<?xml version="1.0" standalone="no"?>
<!DOCTYPE svg PUBLIC "-//W3C//DTD SVG 1.1//EN" "http://www.w3.org/Graphics/SVG/1.1/DTD/svg11.dtd" >
<svg xmlns="http://www.w3.org/2000/svg" xmlns:xlink="http://www.w3.org/1999/xlink" version="1.1">
<metadata></metadata>
<defs>
<font id="astronauta_scriptregular" horiz-adv-x="1206" >
<font-face units-per-em="2048" ascent="1638" descent="-410" />
<missing-glyph horiz-adv-x="593" />
<glyph horiz-adv-x="0" />
<glyph horiz-adv-x="0" />
<glyph unicode="&#xd;" horiz-adv-x="512" />
<glyph unicode=" "  horiz-adv-x="593" />
<glyph unicode="&#x09;" horiz-adv-x="593" />
<glyph unicode="&#xa0;" horiz-adv-x="593" />
<glyph unicode="!" horiz-adv-x="425" d="M162 307q0 35 19.5 55.5t54.5 20.5t54 -20.5t19 -55.5t-19.5 -54.5t-53.5 -19.5q-35 0 -54.5 19.5t-19.5 54.5zM201 596q0 27 3 52.5t7 51.5l92 893q2 14 6 55.5t9.5 85.5t10.5 80.5t9 43.5q18 29 59 28q35 0 61.5 -17.5t26.5 -39.5q0 -25 -4 -51.5t-8 -53.5l-94 -890 q-2 -14 -6 -55.5t-8.5 -85.5t-10.5 -81t-10 -45q-8 -12 -34.5 -19t-45.5 -7q-29 0 -46 16t-17 39z" />
<glyph unicode="&#x22;" horiz-adv-x="374" d="M68 1583q0 16 4 32.5t8 33.5q2 16 2 38.5t5 42t16.5 33t37.5 13.5q23 0 40.5 -17.5t17.5 -40.5q0 -12 -2 -35.5t-5.5 -49t-8.5 -47t-11 -32.5q-16 -27 -49 -26q-23 0 -39 16t-16 39zM223 1583q0 16 4 32.5t9 33.5q2 16 2 38.5t5 42t16 33t38 13.5q23 0 40 -17.5t17 -40.5 q0 -12 -2 -35.5t-5 -49t-8 -47t-11 -32.5q-16 -27 -49 -26q-23 0 -39.5 16t-16.5 39z" />
<glyph unicode="#" horiz-adv-x="1284" d="M139 522q0 23 16.5 40.5t39.5 17.5l254 -2l40 253h-217q-27 0 -46 14.5t-19 43.5q0 23 16.5 40t38.5 17l246 -2q6 37 15 104.5t20.5 135t20.5 119t14 57.5q10 12 21 20.5t28 8.5q10 0 27.5 -4.5t35 -12.5t29.5 -18.5t12 -22.5q0 -23 -8 -75t-18.5 -111.5t-21.5 -115.5 t-15 -85h163q2 12 7.5 47t12.5 80t15 94t15.5 91t13.5 71t8 33q10 16 29.5 22.5t38.5 6.5q27 0 53.5 -12.5t26.5 -45.5q0 -20 -8.5 -73.5t-18.5 -113t-21.5 -115.5t-15.5 -87h197q27 0 47 -14.5t20 -42.5q0 -23 -17 -39.5t-40 -16.5h-225l-41 -254h188q27 0 47.5 -14 t20.5 -43q0 -23 -17.5 -39t-40.5 -16h-217q-2 -20 -11 -83t-20.5 -131.5t-20.5 -123.5t-15 -64q-20 -29 -49 -28q-10 0 -26.5 4t-32 12t-27 18.5t-11.5 22.5q0 25 5.5 48.5t9.5 47.5q10 70 22 138.5t23 138.5h-166q-2 -20 -11.5 -84t-20.5 -132.5t-21.5 -123.5t-14.5 -62 q-12 -14 -46 -21t-50 -7q-23 0 -39 17.5t-16 39.5q0 31 7 80t17.5 103.5t19.5 105.5t15 86h-225q-27 0 -46.5 14.5t-19.5 42.5zM608 578h166q10 63 20.5 125.5t20.5 125.5q-41 0 -83 1t-83 1z" />
<glyph unicode="$" horiz-adv-x="985" d="M121 1135q0 98 36 182t95 149.5t134 108.5t155 59q8 49 14 89t10 49q18 29 49 28q23 0 40.5 -17.5t17.5 -39.5q0 -25 -5 -50.5t-10 -52.5q70 -6 118 -34.5t79 -70.5t44 -91t13 -94q0 -33 -7 -75t-22.5 -79t-36 -62.5t-48.5 -25.5q-8 0 -21.5 4t-26 10t-20.5 14.5t-8 16.5 q0 14 13.5 26.5t28.5 35t28.5 61.5t13.5 104q0 88 -32 133.5t-128 45.5l-90 -625q68 -14 139.5 -28.5t129 -40t94 -71.5t36.5 -126q0 -94 -46 -160t-116.5 -107t-156.5 -59t-164 -18q-4 -31 -8 -52.5t-8 -25.5q-18 -29 -49 -29q-23 0 -39.5 17.5t-16.5 39.5q0 35 6 72 q-92 29 -152.5 96.5t-60.5 167.5q0 12 1 29.5t7.5 33t18.5 26t35 10.5q29 0 55.5 -13.5t26.5 -29.5q0 -14 -3 -27.5t-3 -28.5q0 -129 90 -176l61 426q-57 8 -113.5 20.5t-100.5 41t-70.5 79t-26.5 134.5zM313 1153q0 -78 37 -121t96 -65l70 481q2 14 6 53l2 17 q-45 -27 -84 -69t-67.5 -91t-44 -102.5t-15.5 -102.5zM483 408q113 0 185.5 57t72.5 176q0 53 -15 88t-42 57.5t-63.5 35t-77.5 20.5l-39 -273q0 -4 -1 -12t-3 -18l-15 -113q0 -4 -1 -9t-1 -9z" />
<glyph unicode="%" horiz-adv-x="1300" d="M47 1278q0 74 18.5 146.5t54.5 130t89 93t123 35.5q78 0 124 -42t70.5 -101t31.5 -122.5t7 -106.5q0 -59 -11 -129t-40 -129.5t-77 -99.5t-122 -40q-59 0 -108 28t-85 77t-55.5 115.5t-19.5 144.5zM109 80q0 10 35.5 76.5t95 171t136.5 234.5t156.5 267.5t158.5 269.5 t143.5 239.5t107.5 179t51 88.5q8 14 18.5 35.5t26 42t37 36t49.5 15.5q31 0 63 -17.5t32 -40.5q0 -8 -36 -74.5t-96.5 -171t-136.5 -235.5t-156.5 -268t-159.5 -270.5t-143.5 -241t-107.5 -179t-51 -85.5t-18.5 -36t-24 -42.5t-29.5 -35.5t-37 -15q-10 0 -29.5 5t-38 12 t-32.5 17.5t-14 22.5zM203 1264q0 -47 6 -95.5t20.5 -86.5t38 -62.5t60.5 -24.5q39 0 68.5 29t51 75t33 104.5t11.5 119.5q0 33 -5.5 78t-18.5 85t-40 68.5t-70 28.5t-72.5 -28.5t-48 -73.5t-26.5 -102.5t-8 -114.5zM764 438q0 74 18.5 146.5t54 130t89 93.5t123.5 36 q78 0 124 -42t70.5 -101.5t31.5 -123t7 -106.5q0 -59 -11 -129t-40 -129t-77 -99t-122 -40q-59 0 -108.5 27.5t-85 76.5t-55 115.5t-19.5 144.5zM920 424q0 -47 6 -95t20.5 -86t38 -62.5t59.5 -24.5q39 0 69 28.5t51.5 74.5t32.5 104.5t11 119.5q0 33 -5 78t-18.5 85 t-40 68.5t-69.5 28.5t-72.5 -28.5t-48 -73.5t-26.5 -102.5t-8 -114.5z" />
<glyph unicode="&#x26;" horiz-adv-x="1259" d="M156 578q0 63 19.5 117.5t53 101.5t77.5 88t93 80q-78 106 -126 214.5t-48 211.5q0 78 29 138t77 100t111.5 60.5t132.5 20.5q80 0 145.5 -25.5t114 -68.5t74 -98.5t25.5 -114.5q0 -70 -34 -129.5t-88 -112.5t-119.5 -103t-127.5 -104q68 -86 142.5 -158.5t134.5 -133.5 q14 -16 28.5 -30t30.5 -30q25 59 37 113q4 12 7 30.5t7 37t8.5 36t8.5 25.5q6 12 21.5 14t27.5 2q23 0 40 -11t17 -34q0 -25 -8 -61.5t-20.5 -74.5t-25.5 -74t-24 -58q-4 -4 -5 -10.5t-5 -10.5q39 -31 78 -59.5t82 -52.5q16 -10 34.5 -18.5t35.5 -20.5q27 -20 26 -47 q0 -23 -17.5 -39.5t-39.5 -16.5q-20 0 -53 17.5t-68 40t-66.5 47t-48.5 37.5q-4 4 -9 7t-9 7q-59 -84 -145.5 -138t-211.5 -54q-68 0 -142.5 18t-135.5 60t-101 106.5t-40 157.5zM352 612q0 -53 18.5 -100t51.5 -83t78 -57.5t100 -21.5q80 0 140.5 42t105.5 108 q-90 74 -187.5 168t-185.5 200q-53 -55 -87 -117.5t-34 -138.5zM393 1350q0 -80 30 -158t77 -150q51 41 98 81t84 85t58.5 96.5t21.5 112.5q0 31 -7 62.5t-24.5 57.5t-48.5 43t-80 17q-98 0 -153.5 -70.5t-55.5 -176.5z" />
<glyph unicode="'" horiz-adv-x="262" d="M98 1583q0 16 4 32.5t9 33.5q2 16 2 38.5t5 42t16 33t38 13.5q23 0 40 -17.5t17 -40.5q0 -12 -2 -35.5t-5 -49t-8 -47t-11 -32.5q-16 -27 -49 -26q-23 0 -39.5 16t-16.5 39z" />
<glyph unicode="(" horiz-adv-x="663" d="M76 680q0 201 40 391.5t113.5 362.5t175 324.5t224.5 277.5q12 12 33.5 30.5t46 37t49 31.5t39.5 13q23 0 40 -17t17 -40q0 -16 -12.5 -31.5t-29.5 -28t-34.5 -23.5t-29.5 -19q-82 -61 -146.5 -168t-114 -239t-84 -281.5t-56 -297t-32 -284.5t-10.5 -244 q0 -100 12.5 -220t50.5 -235.5t110.5 -216t193.5 -157.5q29 -14 58.5 -23.5t53.5 -30.5q20 -16 21 -43q0 -23 -17.5 -40t-39.5 -17q-14 0 -40 10.5t-52.5 23.5t-50 27.5t-36.5 22.5q-123 86 -216 204t-154.5 261t-92 305t-30.5 334z" />
<glyph unicode=")" horiz-adv-x="921" d="M4 -444q0 16 12.5 31.5t29.5 27.5t34.5 23.5t30.5 19.5q82 61 146.5 167.5t113.5 239t83.5 282t56 297t32 284.5t10.5 243q0 100 -12.5 220t-50 236t-110.5 216.5t-194 157.5q-29 14 -58.5 23.5t-53.5 29.5q-20 16 -21 43q0 23 17.5 40t40.5 17q14 0 39.5 -10t52 -23.5 t50 -27.5t36.5 -22q123 -86 216 -204t154.5 -261.5t92 -305t30.5 -333.5q0 -201 -40 -391.5t-113.5 -362.5t-175 -324.5t-224.5 -277.5q-12 -12 -33.5 -30.5t-46 -37t-48 -32t-40.5 -13.5q-23 0 -40 17.5t-17 40.5z" />
<glyph unicode="*" horiz-adv-x="563" d="M75 1434.5q1 17.5 17 33.5q10 10 20.5 18.5t24.5 8.5q10 0 15 -2q2 0 23.5 -18.5t55.5 -47.5q2 45 3.5 74t3.5 33q8 16 23 19t34 3q51 0 51 -43q0 -8 -1 -29.5t-1 -51.5q31 27 50.5 44t21.5 17q12 4 16 4q10 0 18.5 -6t18.5 -16q16 -16 21.5 -38t-11.5 -38 q-10 -8 -38.5 -33t-67.5 -59q39 -35 68.5 -60.5t37.5 -34.5q16 -16 11 -35.5t-21 -37.5q-10 -10 -17.5 -15.5t-17.5 -5.5q-8 0 -14 2q-4 0 -26.5 19.5t-57.5 48.5q-2 -45 -3 -75t-3 -32q-8 -16 -29 -16q-6 0 -13 1t-16 1q-23 0 -37 5t-14 28v29.5t2 50.5q-31 -27 -50 -43.5 t-21 -16.5q-12 -4 -19 -4q-18 0 -37 23q-16 16 -19 36.5t13 36.5q8 8 38 34t69 61q-39 35 -69 60.5t-38 33.5q-16 16 -15 33.5z" />
<glyph unicode="+" horiz-adv-x="765" d="M96 1024q0 23 10.5 41t32.5 18q47 0 95.5 -2t95.5 -2v117q0 18 1 42t8 45.5t22.5 36.5t41.5 15q23 0 51.5 -11t28.5 -50v-96t2 -97h109q10 0 22.5 1t24.5 1q29 0 51.5 -10t22.5 -49q0 -23 -15.5 -39t-37.5 -16h-91.5t-85.5 -2v-43t-1 -80t-2 -79t-3 -42 q-6 -16 -33.5 -22.5t-44.5 -6.5q-23 0 -48 12.5t-25 34.5q0 57 2 112.5t2 113.5h-53t-66 1t-59.5 2t-32.5 3q-16 6 -20.5 20.5t-4.5 30.5z" />
<glyph unicode="," horiz-adv-x="442" d="M154 189.5q2 9.5 12 26.5t22.5 40.5t12.5 50.5q0 23 10 40.5t35 17.5q23 0 38 -15.5t15 -40.5q0 -20 -12.5 -43.5t-30.5 -42t-40.5 -31t-45.5 -12.5q-18 0 -16 9.5z" />
<glyph unicode="-" horiz-adv-x="673" d="M195 731q0 23 6 42.5t28 19.5h351q23 0 30.5 -14.5t7.5 -37.5t-8 -42t-30 -19h-351q-23 0 -28.5 14.5t-5.5 36.5z" />
<glyph unicode="." horiz-adv-x="491" d="M166 307q0 35 19.5 55.5t54.5 20.5t55 -20.5t20 -55.5t-20.5 -54.5t-54.5 -19.5q-35 0 -54.5 19.5t-19.5 54.5z" />
<glyph unicode="/" horiz-adv-x="657" d="M66 -145q0 14 16 70.5t37.5 124t41 129t27.5 85.5l441 1442q6 16 11 42t14.5 50.5t23.5 42t39 17.5q12 0 28.5 -5.5t32 -12.5t26.5 -17.5t11 -22.5q0 -14 -16.5 -70.5t-38 -124t-41 -129t-27.5 -85.5l-440 -1442q-16 -55 -29.5 -86t-28 -45.5t-31 -17.5t-40.5 -3 q-23 0 -40 17.5t-17 40.5z" />
<glyph unicode="0" horiz-adv-x="1112" d="M176 952q0 82 7 172t25.5 179.5t52.5 170t87 142t129 98.5t178 37q98 0 169 -34t121 -91t82 -132t49.5 -157t23.5 -165.5t6 -159.5q0 -78 -7 -168t-25.5 -179.5t-52.5 -171t-87 -144t-129 -99.5t-178 -37q-98 0 -170 34t-122 91t-81 133t-48.5 158t-23.5 166t-6 157z M354 958q0 -59 4 -128.5t15.5 -140.5t31 -136.5t50 -115.5t72.5 -80.5t100 -30.5q123 0 195.5 72.5t110.5 179t49 224.5t11 210q0 86 -9 194.5t-43 204.5t-101.5 161.5t-184.5 65.5q-96 0 -155.5 -72.5t-91 -178t-43 -222t-11.5 -207.5z" />
<glyph unicode="1" horiz-adv-x="692" d="M141 1516q0 25 43 68.5t99.5 88.5t113 78t80.5 33q12 0 33.5 -5t42 -13.5t36 -20.5t15.5 -25q0 -35 -7 -69.5t-11 -69.5q-23 -184 -37 -367.5t-14 -369.5q0 -96 5 -190.5t19 -188.5q2 -16 8 -42t12.5 -52.5t11.5 -50t5 -35.5t-14.5 -21.5t-34 -17.5t-39 -12.5t-31.5 -4.5 q-33 0 -49 27q-12 20 -22.5 63t-17.5 99.5t-12 120t-8 122t-5.5 107.5t-2.5 76q0 199 16.5 394t41.5 392q-35 -25 -69 -51.5t-64 -54.5q-14 -12 -28.5 -29.5t-31.5 -28.5q-12 -6 -28 -6q-23 0 -39.5 16.5t-16.5 39.5z" />
<glyph unicode="2" horiz-adv-x="1124" d="M131 1485q0 18 14.5 44.5t24.5 43.5q72 106 199 158.5t272 52.5q92 0 178 -22.5t151.5 -74t104.5 -134.5t39 -203q0 -166 -70.5 -311.5t-179 -270.5t-238.5 -228.5t-251 -185.5h48t86 1t111.5 1h122.5h120t105 -1t74.5 -2t30.5 -3q16 -8 27.5 -20.5t11.5 -32.5 q0 -23 -17.5 -39t-39.5 -16h-822q-23 0 -41 16t-14 39q6 43 61.5 97.5t136.5 122t173 151.5t171 188.5t131 229t52 276.5t-63 230.5t-213 78.5q-49 0 -101.5 -9t-100.5 -27.5t-88 -46t-67 -64.5q-12 -16 -20 -38t-21 -38q-6 -6 -15 -8t-17 -2h-9q-33 0 -45 18.5t-12 28.5z " />
<glyph unicode="3" horiz-adv-x="1136" d="M129 514q0 6 6 15.5t16.5 18.5t22.5 15t23 6q14 0 24 -10t18.5 -25.5t15.5 -32t13 -26.5q25 -39 64 -63.5t84 -39t89 -19.5t77 -5q162 0 239.5 88t77.5 236q0 94 -29.5 159.5t-82 108.5t-123 67.5t-154.5 36.5h-14q-16 0 -39 -1t-39 -1q-18 0 -25 2q-16 8 -21 19.5 t-5 28.5q0 61 49 61q59 0 138 13.5t149.5 47t119.5 89t49 137.5q0 55 -22.5 98t-60 72.5t-86 46t-99.5 16.5q-55 0 -129 -16.5t-125 -42.5q-10 -4 -24.5 -14.5t-30.5 -19.5t-30.5 -16.5t-24.5 -7.5q-16 0 -36 20.5t-20 37.5q0 47 52.5 79.5t123 53t146.5 30t121 9.5 q61 0 139 -16.5t146.5 -53.5t115.5 -96t47 -145q0 -82 -42 -140.5t-102.5 -99.5t-129 -69.5t-123.5 -49.5q74 -31 151.5 -65.5t140 -85t102.5 -120t40 -165.5q0 -100 -44 -183t-119 -140.5t-171 -89t-200 -31.5q-53 0 -110.5 9t-112 31.5t-102.5 59.5t-85 90 q-10 16 -24.5 41t-14.5 47z" />
<glyph unicode="4" horiz-adv-x="1093" d="M133 782q0 8 3 22.5t7 20.5q10 18 64.5 88t134.5 165.5t172 205t175 205.5t146.5 166.5t84.5 89.5q12 10 26.5 21.5t32.5 11.5q10 0 31.5 -4.5t43 -12.5t38 -19t16.5 -24q0 -35 -7 -67.5t-11 -67.5q-25 -178 -38.5 -356t-13.5 -359q23 4 42.5 4h41.5q23 0 31 -15t8 -38 q0 -25 -12 -37t-30.5 -17t-39 -6t-39.5 -3q2 -72 7.5 -144.5t15.5 -144.5q6 -43 21.5 -90t15.5 -90q0 -25 -35 -40.5t-76 -15.5q-29 0 -42 7.5t-23 19.5q-14 18 -25.5 86t-21 146.5t-14.5 151.5t-5 103q-129 -10 -255 -15t-255 -5q-18 0 -54 1t-72 6t-62.5 17.5t-26.5 32.5z M342 842q29 -2 38 -3t38 -1q111 0 219 5t219 15q0 178 14.5 353t34.5 354q-78 -88 -147.5 -177.5t-137 -180.5t-136 -182t-142.5 -183z" />
<glyph unicode="5" horiz-adv-x="1077" d="M174 1526q0 20 1 45.5t4 51.5t11.5 49.5t20.5 37.5q16 18 60 28.5t96.5 15.5t102.5 6t75 1q23 0 85 -3t131.5 -9t127 -14.5t67.5 -18.5q12 -12 14.5 -21t2.5 -26q0 -16 -12.5 -36.5t-32.5 -20.5q-29 0 -55.5 6t-55.5 10q-76 12 -150.5 16.5t-152.5 4.5q-39 0 -70.5 -3.5 t-72.5 -17.5q-6 -18 -7.5 -36.5t-1.5 -37.5q0 -135 4.5 -270t26.5 -270q100 0 217 -13.5t217.5 -53.5t167 -113.5t66.5 -194.5q0 -88 -37 -163t-97.5 -127t-138 -81.5t-159.5 -29.5q-33 0 -102.5 11t-141.5 33.5t-126 54.5t-54 73q0 23 16.5 40t38.5 17q10 0 27.5 -8 t37 -19.5t39 -22.5t31.5 -18q55 -23 114.5 -36t119.5 -13q57 0 101 20.5t72.5 55.5t44 81t15.5 95q0 111 -62.5 172.5t-152.5 89t-192.5 32.5t-182.5 5q-12 0 -23 3t-22 16q-10 12 -19 56t-14.5 103.5t-9.5 128t-6 132t-3 113.5t-1 73z" />
<glyph unicode="6" horiz-adv-x="1071" d="M135 680q0 104 33 218t84 225.5t113.5 218t125 194.5t117 153.5t86.5 98.5q6 6 16.5 10t16.5 4q8 0 19.5 -6t20.5 -15t15 -19.5t6 -16.5q0 -12 -8 -27.5t-20 -33t-24.5 -32t-18.5 -24.5q-39 -51 -81 -117.5t-83 -141.5t-80 -155.5t-70 -162.5q47 12 94.5 19t98.5 7 q90 0 179 -23.5t161 -71.5t117 -121t45 -171q0 -92 -40 -173t-108.5 -142.5t-160 -97t-195.5 -35.5q-80 0 -162 24.5t-148.5 76.5t-107.5 135t-41 202zM319 684q0 -74 21.5 -134.5t61.5 -104.5t94.5 -67.5t121.5 -23.5q72 0 122.5 26t83 71t48 103t15.5 122q0 156 -78 222.5 t-207 66.5q-72 0 -129 -15.5t-115 -36.5q-18 -61 -28.5 -119.5t-10.5 -109.5z" />
<glyph unicode="7" horiz-adv-x="925" d="M152 1714q0 12 5 36t15 32q4 4 54 5t112.5 3t121 2h79.5q70 0 150.5 -3t150 -15.5t117 -34t47.5 -58.5q0 -61 -41 -157.5t-103.5 -212t-134.5 -245.5t-134.5 -260t-103.5 -254t-41 -228q0 -35 -26.5 -43.5t-48.5 -8.5q-37 0 -57.5 11.5t-30 28t-11.5 36t-2 35.5 q0 113 38 232.5t94.5 237.5t121 229.5t119.5 205.5q25 41 50.5 86t50 92t45 95.5t30.5 93.5q-86 16 -173 19t-175 3h-109q-47 0 -91 -3t-91 -3q-18 0 -23 14.5t-5 28.5z" />
<glyph unicode="8" horiz-adv-x="1081" d="M111 662q0 72 23.5 135t62.5 118.5t90 100.5t104 80q-86 57 -142 133t-56 194q0 86 30.5 156t84.5 120t125 76.5t151 26.5q82 0 158.5 -27.5t136 -78.5t95.5 -122t36 -155q0 -111 -60.5 -210t-158.5 -156q55 -33 105 -73t89 -89t61.5 -111.5t22.5 -142.5q0 -104 -38 -179 t-101.5 -123t-144 -70.5t-164.5 -22.5q-100 0 -192.5 29.5t-163 85t-112.5 133t-42 172.5zM303 672q0 -145 81 -231.5t234 -86.5q123 0 197 61.5t74 190.5q0 88 -34 150.5t-88 110.5t-123 86t-138 75q-92 -45 -147.5 -139t-55.5 -217zM383 1464q0 -63 23.5 -112t63.5 -89 t92 -74t108 -67q100 33 145 113t45 172q0 66 -20.5 118t-56 89t-83 56.5t-100.5 19.5q-98 0 -157.5 -61t-59.5 -165z" />
<glyph unicode="9" horiz-adv-x="1028" d="M115 1354q0 92 40 173t108.5 142.5t159.5 97t195 35.5q80 0 162 -24.5t148.5 -76.5t107.5 -135t41 -202q0 -104 -32.5 -218t-84 -225.5t-114 -218t-125 -194.5t-116.5 -153.5t-87 -98.5q-6 -6 -16 -10t-17 -4q-8 0 -19 6t-20.5 15t-15.5 19.5t-6 16.5q0 12 8 27.5 t20.5 33t24.5 33t19 23.5q39 51 80.5 117.5t82.5 141.5t80 155.5t70 162.5q-47 -12 -94 -19t-99 -7q-90 0 -179 23.5t-160.5 71.5t-116.5 121t-45 171zM326 1368q0 -156 77.5 -222.5t206.5 -66.5q72 0 129.5 15.5t114.5 35.5q18 61 28.5 120t10.5 110q0 74 -21.5 134 t-61.5 104t-94 68t-122 24q-70 0 -121 -26t-84 -71t-48 -102t-15 -123z" />
<glyph unicode=":" horiz-adv-x="491" d="M172 307q0 35 19.5 55.5t54.5 20.5t55.5 -20.5t20.5 -55.5t-20.5 -54.5t-55.5 -19.5t-54.5 19.5t-19.5 54.5zM172 944q0 35 19.5 55.5t54.5 20.5t55.5 -20.5t20.5 -55.5t-20.5 -54.5t-55.5 -19.5t-54.5 19.5t-19.5 54.5z" />
<glyph unicode=";" horiz-adv-x="442" d="M153 193.5q1 13.5 10 33t20.5 42t11.5 42.5t13 37t38 17q23 0 38 -15.5t15 -40.5q0 -20 -11.5 -43.5t-29.5 -42t-40.5 -31t-45.5 -12.5q-20 0 -19 13.5zM197 948q0 35 19.5 55.5t53.5 20.5q35 0 55.5 -20.5t20.5 -55.5t-20.5 -54.5t-55.5 -19.5t-54 19.5t-19 54.5z" />
<glyph unicode="&#x3c;" horiz-adv-x="985" d="M231 870v22.5t11 20.5q12 12 37.5 27.5t53 31t54.5 30t45 24.5l240 139q29 16 56.5 35t55.5 33q16 8 29 8q4 0 13.5 -5t19.5 -12t17 -17.5t7 -22.5q0 -23 -20 -43q-27 -25 -68 -45.5t-71 -36.5l-330 -185q16 -8 54 -24t86 -37.5t101.5 -44.5t98.5 -43t76.5 -35.5 t38.5 -21.5q20 -20 20 -43q0 -8 -6 -18.5t-15.5 -19.5t-19.5 -14.5t-16 -3.5q-2 2 -8 2h-11q-8 4 -51 23.5t-102.5 47.5t-126 59.5t-124 59t-95 46t-39.5 20.5q-10 8 -10.5 19.5t-0.5 23.5z" />
<glyph unicode="=" horiz-adv-x="1105" d="M158 770q0 23 7 40t30 17h663q23 0 33 -17t10 -40t-10 -39t-33 -16h-663q-23 0 -30 16.5t-7 38.5zM158 926q0 23 7 40t30 17h663q23 0 33 -17.5t10 -39.5q0 -23 -10 -39.5t-33 -16.5h-663q-23 0 -30 16.5t-7 39.5z" />
<glyph unicode="&#x3e;" horiz-adv-x="759" d="M109 627q0 23 20 43q27 25 68 45t71 37l330 184q-16 8 -54 24.5t-86 38t-101.5 44t-98.5 43t-76.5 36t-38.5 21.5q-20 20 -20 43q0 8 7 18t16.5 19.5t18.5 14.5t15 3h10q6 0 9 -2q8 -2 51 -22.5t102.5 -48t126 -59.5t123.5 -59.5t95 -46t40 -20.5q10 -8 10.5 -19.5 t0.5 -23.5v-22.5t-11 -20.5q-12 -12 -37.5 -27.5t-53.5 -31t-54.5 -29.5t-44.5 -25l-240 -139q-29 -16 -56.5 -34.5t-55.5 -32.5q-16 -8 -29 -9q-4 0 -13.5 5.5t-19.5 12.5t-17 17t-7 23z" />
<glyph unicode="?" horiz-adv-x="872" d="M72 1587q0 18 13 44t24 42q70 113 179 179.5t242 66.5q96 0 170 -35t124 -96.5t76 -144t26 -177.5q0 -129 -42 -214t-106.5 -146.5t-138.5 -108.5t-138.5 -98t-106.5 -116.5t-42 -164.5q0 -51 -53 -51q-23 0 -41 10.5t-18 32.5q0 133 37.5 219t94 146.5t122 109 t122 104.5t94.5 132t38 192q0 39 -7.5 89.5t-30 95.5t-66.5 76.5t-118 31.5q-90 0 -176 -48t-135 -126q-12 -18 -20.5 -40.5t-24.5 -39.5q-10 -10 -19.5 -11t-23.5 -1q-23 0 -39 12.5t-16 34.5zM201 268q0 35 19.5 54.5t53.5 19.5q35 0 54.5 -19.5t19.5 -54.5t-19.5 -55 t-54.5 -20t-54 20t-19 55z" />
<glyph unicode="@" horiz-adv-x="1435" d="M147 604q0 133 44.5 268.5t129.5 244t208.5 177t285.5 68.5q113 0 211 -42t171 -113.5t115 -170t42 -211.5q0 -66 -14.5 -135t-42 -137t-66.5 -128t-86 -106q-27 -27 -60.5 -47t-72.5 -20q-41 0 -67.5 33.5t-44 82t-26 101.5t-12.5 90q-18 -37 -42.5 -79t-53.5 -77.5 t-60.5 -60.5t-64.5 -25q-57 0 -103 28t-79 73t-50.5 105.5t-17.5 123.5q0 78 24.5 145.5t70.5 120t109.5 82t141.5 29.5q90 0 154 -51q6 20 12 28q2 6 4 10.5t4 8.5q10 12 21.5 20.5t28.5 8.5q23 0 45 -22.5t22 -45.5q0 -29 -5 -50.5t-11 -49.5q-16 -84 -26.5 -169 t-10.5 -171v-42t3 -55.5t10 -50t24 -28.5q23 6 41 22t34 33q35 39 61 88t41 103.5t22.5 109.5t7.5 108q0 90 -30 167t-83 133.5t-127 88t-164 31.5q-119 0 -214 -61.5t-162.5 -157.5t-103.5 -212t-36 -226q0 -98 25.5 -187.5t78 -157t130 -107.5t182.5 -40q37 0 78 7.5 t75 21.5q10 4 23.5 12.5t29 15.5t30 13t22.5 6q23 0 40 -17.5t17 -39.5q0 -33 -38 -57.5t-90 -41t-104 -24.5t-83 -8q-127 0 -231.5 51t-179.5 136t-116 196.5t-41 232.5zM549 592q0 -25 5 -53.5t16.5 -53t27.5 -41t39 -16.5q25 0 49.5 25.5t46 66.5t42 91.5t37.5 100.5 t29.5 94t20.5 73q-12 35 -45 48t-69 13q-51 0 -89 -41t-63 -97.5t-36 -114.5t-11 -95z" />
<glyph unicode="A" d="M88 -37q0 18 15.5 88t40 167t55 212t61.5 225h-16q-29 0 -44.5 12.5t-15.5 49.5t17 47q2 2 21.5 2t51.5 4h17q31 111 54.5 192.5t33.5 112.5q37 121 79 240t83 205q12 27 23 49t25.5 39.5t34 27t50.5 9.5q61 0 102 -32t58 -63q29 -59 59.5 -158.5t60 -219t57 -252 t53.5 -257t45 -233t34 -180.5l12 -54t17.5 -73t16.5 -68.5t7 -44.5q0 -23 -40 -39t-93 -16q-35 0 -50.5 7t-25.5 20q-6 8 -17.5 55t-22.5 103.5t-21.5 108.5t-14.5 70q-12 63 -28.5 155.5t-36.5 201.5q-61 -2 -134 -5t-141.5 -5t-124 -4.5t-79.5 -2.5q-35 -137 -61.5 -251.5 t-43.5 -182.5q-2 -12 -12 -56t-22.5 -91t-21.5 -87t-13 -44q-10 -12 -21.5 -14.5t-28.5 -2.5q-23 0 -39 8.5t-16 24.5zM397 774q49 2 104.5 4t113 4t111.5 4t99 2q-20 109 -41.5 218.5t-45 208t-49 180.5t-50.5 131q-25 -41 -55.5 -121t-62.5 -181.5t-63.5 -217 t-60.5 -232.5z" />
<glyph unicode="B" horiz-adv-x="1183" d="M113 1593q0 10 18 17.5t49 15.5q0 4 1 7t1 7q6 59 84 60q6 0 26.5 -1t43 -6t39 -14.5t12.5 -27.5q68 4 128 6t93 2q92 0 189.5 -18.5t177.5 -64.5t131 -124t51 -199t-52 -225t-135 -190t-183.5 -150.5t-196.5 -107.5q72 0 162 -13.5t172 -47.5t137 -91t55 -143 q0 -94 -64.5 -163t-155.5 -116t-186.5 -74.5t-156.5 -40.5q-47 -10 -85 -18t-75 -8q-16 0 -22 13t-6 30q0 12 3 21.5t7 9.5q12 2 29.5 5l35 6t30.5 6t15 3q100 18 177 54t128.5 82t78 98.5t26.5 103.5q0 66 -36 103.5t-87 59t-107.5 28t-97.5 6.5q-82 0 -136 -14.5 t-89 -26.5q4 -104 12 -194.5t19 -164.5q4 -23 9 -46t5 -48q0 -12 -18.5 -21.5t-43 -17.5t-49 -12t-36.5 -4q-18 0 -32.5 9t-19.5 28q-18 96 -29.5 224t-15.5 272.5t-4 296t5.5 292.5t11.5 263t14 208q-57 0 -57 55zM335 813v-54q0 -108 3 -212q37 16 71.5 30.5t63.5 28.5 q104 49 190.5 126t147.5 166t95 183.5t34 180.5q0 66 -21.5 122t-66.5 98t-116 66.5t-171 24.5q-41 0 -91 -4t-99 -8q-12 -100 -21.5 -222t-13.5 -255.5t-5 -270.5z" />
<glyph unicode="C" horiz-adv-x="1210" d="M86 756q0 94 13.5 199.5t43 209t78.5 197.5t120 165.5t166 113.5t218 42q88 0 166 -24.5t135 -73.5t91 -121t34 -166q0 -23 -17.5 -39t-39.5 -16q-25 0 -40.5 12.5t-24.5 30t-13 37.5t-8 37q-23 111 -102 161t-181 50q-78 0 -138.5 -39t-106.5 -104.5t-76.5 -150.5 t-50 -177t-29 -184.5t-9.5 -172.5q0 -117 18.5 -240.5t63.5 -227t118 -169t179 -65.5q94 0 166 59.5t137 196.5q25 49 48.5 89t72.5 40q23 0 40.5 -17.5t17.5 -39.5q0 -29 -15.5 -64t-27.5 -63q-37 -86 -87.5 -145.5t-111 -96.5t-128 -54.5t-138.5 -17.5q-160 0 -271.5 75 t-180.5 193.5t-99.5 266t-30.5 293.5z" />
<glyph unicode="D" horiz-adv-x="1179" d="M71 1604.5q1 17.5 13 25.5q8 8 43 12.5t80 8.5v2q6 23 21.5 42t66.5 19q43 0 81 -14t44 -35q14 2 27.5 2h27.5q152 0 279 -40t218 -122t141 -202.5t50 -284.5q0 -170 -53 -317.5t-143 -270.5t-211 -220t-254 -165q-31 -14 -72 -33.5t-82 -36t-73.5 -27.5t-49.5 -11 q-27 0 -37 24.5t-10 46.5q0 25 23 33q4 10 2 17.5t-2 17.5q-23 184 -30 365.5t-7 367.5q0 182 5 363.5t24 363.5q-12 -2 -25 -3t-27 -1q-25 0 -41 12t-23 27.5t-6 33zM373 809q0 -174 4 -344t26 -342q23 10 42.5 20.5t39.5 22.5q96 55 179.5 146t145.5 202t98 233.5 t36 241.5t-39 224.5t-109.5 184.5t-170 125t-222.5 46l-2 -19q-16 -186 -22 -370.5t-6 -370.5z" />
<glyph unicode="E" horiz-adv-x="1105" d="M82 1550q0 18 4 30.5t20 21.5q25 12 91 18q4 14 5 23.5t5 13.5q10 16 24.5 27.5t55.5 11.5q49 0 85 -14.5t31 -32.5q0 -4 -1 -6.5t-1 -4.5h9q88 6 179 10.5t173 7.5t146.5 4t97.5 1q23 0 32 -18.5t9 -40.5q0 -20 -3.5 -31.5t-19.5 -20.5q-2 -2 -29.5 -3t-68.5 -3 t-89.5 -3t-92.5 -2t-78.5 -2t-47.5 -1q-55 -4 -111 -5t-114 -5h-6q-16 -154 -22.5 -309.5t-6.5 -309.5l21 2q41 4 73.5 4h49.5q16 0 74.5 -1t124 -2t118.5 -3t58 -4q16 -8 27 -21.5t11 -31.5q0 -23 -17 -40t-40 -17q-90 0 -178 4t-178 4h-72t-72 -2q0 -139 3.5 -276.5 t13.5 -274.5q2 -25 6 -54.5t10 -60.5h25q150 0 294 8.5t294 8.5q23 0 27.5 -16.5t4.5 -35.5q0 -20 -8 -39.5t-33 -19.5q-123 0 -245.5 -10.5t-247.5 -10.5q-12 0 -38 -1t-58 -1v-20q0 -23 -38 -39t-83 -16q-41 0 -62.5 16t-25.5 57q-29 2 -49.5 5.5t-30.5 7.5 q-16 10 -20.5 21t-4.5 30q0 20 9.5 38.5t33.5 18.5q23 0 47 -6q-6 68 -10 150.5t-7 170t-5 170t-2 148.5q-27 0 -46.5 14.5t-19.5 42.5q0 31 29 49q12 6 37 13q0 311 24 614q-14 -4 -28.5 -6t-28.5 -2q-23 0 -33 17.5t-10 39.5z" />
<glyph unicode="F" horiz-adv-x="1110" d="M82 1550q0 18 4 30.5t20 21.5q25 12 91 18q4 14 5 23.5t5 13.5q10 16 24.5 27.5t55.5 11.5q49 0 85 -14.5t31 -32.5q0 -4 -1 -6.5t-1 -4.5h9q88 6 176 10.5t165.5 7.5t139 4t94.5 1q23 0 32 -18.5t9 -40.5q0 -20 -3 -31.5t-19 -20.5q-2 -2 -33 -3t-76 -3t-99.5 -3 t-102.5 -2t-86 -2t-50 -1q-27 -2 -45 -3t-35.5 -2t-36 -2t-47.5 -3h-6q-18 -166 -23.5 -333t-5.5 -335l21 2q20 2 32.5 3t20.5 1h14.5h14.5q16 0 74.5 -1t124 -2t118.5 -3t58 -4q16 -8 27 -21.5t11 -31.5q0 -23 -17 -40.5t-40 -17.5q-90 0 -178 4.5t-178 4.5h-55.5t-47.5 -2 q0 -127 3 -252t14 -250q2 -27 7 -61.5t10 -69.5t9.5 -67t4.5 -54q0 -23 -38 -39t-83 -16q-37 0 -53.5 10t-24.5 26q-12 27 -20.5 110t-14.5 191.5t-9 226.5t-3 214q-27 0 -47.5 14.5t-20.5 42.5q0 31 29 49q12 6 37 13q0 166 5 331.5t19 331.5q-14 -4 -28.5 -6t-28.5 -2 q-23 0 -33 17.5t-10 39.5z" />
<glyph unicode="G" horiz-adv-x="1296" d="M86 756q0 94 13.5 199.5t43 209t78.5 197.5t120 165.5t166 113.5t218 42q88 0 166 -24.5t135 -73.5t91 -120.5t34 -166.5q0 -23 -17.5 -39t-39.5 -16q-25 0 -40.5 12.5t-24.5 30t-13 37.5t-8 37q-23 111 -102 161t-181 50q-78 0 -138.5 -39t-106.5 -104.5t-76.5 -150.5 t-50 -177t-29 -184.5t-9.5 -172.5q0 -117 17.5 -240.5t51.5 -227t84 -169t116 -65.5q53 0 94 42t75.5 107.5t61.5 147.5t49.5 162t42 148.5t37.5 109.5v4q-80 -4 -159.5 -7t-147.5 -6.5t-116 -4.5t-66 -1q-23 0 -31 13.5t-8 36.5q0 20 5 37.5t15 21.5q2 2 55.5 4t133.5 6 t175 7t180 5.5t149.5 4.5t82.5 2q20 0 28.5 -20.5t8.5 -43.5q0 -31 -14 -38t-25 -9l-100 -6v-787q0 -40 -84 -40h-4q-18 0 -33 2q-12 4 -24.5 7t-16.5 13q-2 4 -4 45t-3 97.5t-1 122v118.5q-27 -70 -59.5 -142.5t-77.5 -133t-106.5 -99.5t-145.5 -39q-117 0 -204 75 t-145.5 193.5t-87 266.5t-28.5 293z" />
<glyph unicode="H" horiz-adv-x="1298" d="M166 701.5q4 19.5 20 27.5q2 0 7 2h14q0 31 2 103.5t6 166t9 194.5t12.5 188t17.5 149.5t20 77.5q10 12 31 19t37 7q12 0 31.5 -4t40 -12t35 -17.5t14.5 -21.5q0 -23 -6 -46.5t-11 -45.5q-8 -47 -12 -92t-8 -92q-25 -283 -25 -566q74 4 156 6.5t158 5.5t137 5t92 2 q0 31 1 104.5t3 166.5t6 193.5t9.5 187.5t14.5 147.5t19 72.5q25 29 64 29q10 0 30.5 -4t42 -12.5t37 -18.5t15.5 -22q0 -61 -7.5 -149.5t-16.5 -194t-16 -223t-7 -240.5q0 -150 11 -277t24.5 -226t26.5 -172t16 -114q0 -12 -15.5 -22.5t-37 -17.5t-42 -11t-30.5 -4 q-37 0 -64 26q-18 18 -32.5 91t-23.5 171.5t-15.5 207t-8.5 198.5q-137 -6 -273 -11t-272 -9q2 -109 9.5 -216.5t23.5 -215.5q4 -16 12.5 -58.5t18.5 -87.5q12 -53 27 -115q0 -12 -17.5 -21t-41 -17.5t-46 -12.5t-35.5 -4q-29 0 -49 27q-8 10 -15 40.5t-11 45.5 q-37 156 -52.5 311t-19.5 315q-12 0 -23.5 14.5t-16.5 33t-1 38z" />
<glyph unicode="I" horiz-adv-x="694" d="M23 -2q0 18 4 33.5t20 21.5q4 2 21.5 3t39 2t46 1h43.5q-6 53 -11.5 127t-8.5 158t-5 169t-4 161t-2 135v90t2 114t6 182t9 200.5t14 171.5q-27 -2 -53.5 -2h-55.5q-23 0 -31 16t-8 39q0 18 6 33.5t15 19.5q6 2 24.5 3t43 2t50 1h43.5q10 8 23.5 12.5t40.5 4.5 q29 0 54.5 -5t41.5 -14q16 -2 32.5 -2h33.5h32q31 0 58.5 -8t27.5 -45q0 -41 -20 -50t-51 -9q-27 0 -52.5 1t-50.5 1q-20 -164 -27 -329t-7 -327q0 -166 2 -330.5t14 -330.5q4 -41 12 -93.5t15 -99.5h24q12 0 25.5 1t27.5 1q29 0 50.5 -10t21.5 -47q0 -41 -23.5 -49 t-54.5 -8q-35 0 -71.5 1t-71.5 1q-10 -2 -22.5 -3t-22.5 -1q-27 0 -43 6h-14q-43 0 -85 -1t-85 -1q-23 0 -33 15t-10 38z" />
<glyph unicode="J" horiz-adv-x="1177" d="M137 416q0 23 19.5 40t54.5 17q18 0 39.5 -7t30.5 -24q0 -2 2 -17t4 -34.5t5 -39t5 -27.5q12 -51 32.5 -99.5t50.5 -87.5t67.5 -62.5t87.5 -23.5q70 0 117.5 50.5t79.5 130t48.5 179t24.5 198t9 184.5t1 141q0 115 -1 227.5t-7 227.5q-4 43 -6 83.5t-4 81.5l-88 -2h-35 t-35 -2q-53 -4 -106.5 -7t-106.5 -7q-25 -2 -50.5 -5t-49.5 -3q-23 0 -40.5 16.5t-17.5 38.5q0 39 39 53q10 4 41 5t45 4q287 24 573 24h23h26.5h42t40 -1t22.5 -3q39 -14 39 -53q0 -23 -17.5 -39.5t-39.5 -16.5h-107q4 -53 7.5 -141t4.5 -177t2 -164t1 -99q0 -76 -1 -182.5 t-12.5 -221t-39 -228.5t-81 -204t-138.5 -145t-210 -55q-111 0 -185.5 42t-120.5 109.5t-65.5 153.5t-19.5 172z" />
<glyph unicode="K" horiz-adv-x="1087" d="M125 852q0 39 29 61q2 96 7 215t12 226.5t17.5 187.5t24.5 94q14 16 44 22.5t50 6.5q10 0 27.5 -3t34 -10t28 -18.5t11.5 -25.5q0 -23 -6.5 -46.5t-10.5 -45.5q-8 -47 -12 -92.5t-8 -92.5q-10 -113 -15.5 -225.5t-7.5 -224.5q84 70 178.5 161t183.5 189t165.5 195.5 t123.5 177.5q12 23 29 49t49 26q25 0 47.5 -27.5t22.5 -58.5q0 -41 -45 -117.5t-117 -167.5t-158 -188.5t-170 -182.5t-153.5 -147.5t-106.5 -82.5q55 -57 132 -128t159 -144t163 -141.5t145.5 -122.5t106.5 -87t44 -35q23 -12 22 -47q0 -39 -24.5 -63.5t-46.5 -24.5 q-29 0 -85.5 37t-128 93t-148 126t-144.5 134.5t-120 116.5t-73 75q-12 14 -23 28.5t-24 28.5q4 -53 8.5 -117.5t10.5 -130t16 -128t25 -116.5q6 -23 17 -52t11 -50q0 -12 -13 -22.5t-31.5 -17.5t-37 -11t-28.5 -4q-25 0 -59.5 14t-45.5 41q-27 76 -42 180.5t-23 216 t-10 220t-2 190.5q-10 23 -17.5 44t-7.5 42z" />
<glyph unicode="L" horiz-adv-x="813" d="M154 78q0 16 6 32.5t22 22.5q-8 90 -12 205t-7 226.5t-4 202.5t-1 132q0 27 1 88.5t4 140t7 165.5t9 162t12.5 130t15.5 72q10 16 24.5 27.5t55.5 11.5q49 0 85 -14.5t31 -32.5q-27 -182 -36 -368.5t-9 -371.5q0 -166 2 -330.5t15 -330.5q2 -25 6 -54.5t10 -62.5 q6 2 25 2q150 0 284 8.5t283 8.5q23 0 28 -16.5t5 -35.5q0 -20 -8.5 -39.5t-32.5 -19.5q-123 0 -235.5 -10.5t-237.5 -10.5q-14 0 -40 -1t-56 -3v-18q0 -23 -38 -39t-83 -16q-49 0 -64.5 19.5t-25.5 59.5q-25 8 -33 18.5t-8 39.5z" />
<glyph unicode="M" horiz-adv-x="1540" d="M152 971q0 23 1 76t4 120.5t6 141t7 138t9 112t11 59.5q8 16 28 27.5t69 11.5q41 0 62.5 -7.5t31.5 -17.5q16 -16 51 -84.5t78 -165t91 -208t91 -214t76 -182.5t45 -114q29 43 65.5 121.5t78.5 174t85 200t85 198.5t78 170t63 114q8 10 44 19.5t72 9.5q55 0 75 -20 t20 -47q0 -57 -2 -104.5t-5.5 -93.5t-6.5 -94t-5 -106q0 -12 -3 -71.5t-7 -147.5t-9 -196.5t-11.5 -221t-12.5 -218t-10 -188.5t-7 -134.5t-5 -53.5q-8 -16 -43 -16q-12 0 -41 1t-56.5 4t-49 10.5t-21.5 19.5q0 33 6 117t16.5 202.5t21.5 260t21.5 289t18.5 289.5t8 261 q-12 -33 -44 -105.5t-72 -162.5t-85 -187.5t-86 -182.5t-73.5 -146.5t-47.5 -77.5q-10 -10 -23.5 -20.5t-31.5 -10.5t-27.5 8.5t-21.5 20.5q-14 14 -41 64.5t-62.5 123t-76.5 160.5t-83 179t-81 178t-70 155q-5 -62 -5 -125q0 -46 3 -94q6 -110 6 -219q0 -158 6 -314.5 t29 -312.5q6 -45 13.5 -90t19.5 -90q4 -16 14 -43t10 -43q0 -12 -18 -21.5t-43 -17.5t-49.5 -12t-36.5 -4q-33 0 -49 26q-8 10 -14.5 38t-10.5 42q-53 209 -63 418t-10 424z" />
<glyph unicode="N" horiz-adv-x="1302" d="M152 932q0 180 4 328q0 63 2 124.5t5 111.5t7 85t8 43t21.5 13t39 8.5t43 4.5t33.5 1q72 0 116 -20.5t54 -47.5q68 -172 130.5 -324.5t124 -298t122 -293t123.5 -307.5q-4 125 -6 241t-3 232.5t-5 241.5t-13 268v56.5t2.5 87.5t3.5 82t3 39q8 16 23.5 27.5t53.5 11.5 q47 0 82 -17.5t35 -40.5q0 -162 7.5 -309t7.5 -311q0 -83 1 -181v-99v-101q-1 -102 -3.5 -198.5t-6.5 -177.5t-12 -137.5t-22 -74.5q-6 -6 -23.5 -11t-37 -8.5t-39 -5.5t-27.5 -2t-33 45t-62 123t-83 181.5t-97 220t-104.5 239.5t-102.5 240t-93 220.5t-77 180.5 q-3 -45 -3 -94q0 -23 1 -49q2 -76 5 -152.5t7 -152.5t3 -144q0 -35 2 -90t5 -119.5t8 -136t9 -141.5q10 -162 25 -344q0 -12 -17.5 -19.5t-39 -11.5t-43 -5t-31.5 -1q-33 0 -49 27t-28.5 97.5t-22 163.5t-16.5 198.5t-10 202t-5 171t-2 109.5z" />
<glyph unicode="O" horiz-adv-x="1341" d="M94 766q0 82 13.5 183.5t42 204.5t75.5 201.5t115 175.5t160 123t209 46q154 0 258 -77t168.5 -194.5t93 -260t28.5 -271.5q0 -84 -12 -190.5t-39.5 -217t-74 -215t-112 -185.5t-154.5 -131t-203 -50q-100 0 -182.5 39t-145 105.5t-108.5 152.5t-74.5 181t-43 193.5 t-14.5 186.5zM340 735q0 -66 5 -144.5t18.5 -158.5t37 -155.5t60.5 -134t88 -94.5t121 -36q80 0 138 47t98 122t65.5 169t39 190.5t18.5 186t5 150.5q0 111 -14 239.5t-51 238t-100.5 182.5t-161.5 73q-76 0 -133.5 -45t-98.5 -120t-67.5 -168t-41 -190.5t-20.5 -189.5 t-6 -162z" />
<glyph unicode="P" d="M43 1546q0 33 25 51q10 6 40.5 12.5t75.5 14.5q4 23 21.5 41t56.5 18q10 0 31.5 -2t42 -5t36 -9t13.5 -16q0 -4 -1 -7.5t-1 -7.5q47 4 86 5t66 1q57 0 126.5 -7t140 -25.5t137.5 -49t119 -77.5t84 -111.5t32 -150.5t-38 -166t-100.5 -149.5t-145.5 -131t-173 -114 t-183.5 -95.5t-175.5 -76q4 -125 13.5 -247.5t25.5 -229.5q0 -4 -7 -17t-24.5 -28.5t-43 -27t-60.5 -11.5q-33 0 -48 10.5t-24 26.5q-8 18 -16 77.5t-13 140.5t-9.5 172t-6.5 175t-3 151t-1 97q0 180 4.5 362.5t24.5 362.5q-25 -4 -49.5 -6t-48.5 -2q-29 0 -29 51zM352 1152 v-374v-89t2 -93q127 45 237.5 113.5t192.5 152.5t128 176t46 183q0 98 -43 159.5t-111.5 94t-154.5 44t-170 11.5h-52.5t-57.5 -2q-18 -181 -17 -366v-10z" />
<glyph unicode="Q" horiz-adv-x="1363" d="M94 766q0 82 13.5 183.5t42 204.5t75.5 201.5t115 175.5t160 123t209 46q154 0 258 -77t168.5 -194.5t93 -260t28.5 -271.5q0 -92 -15 -211t-49 -238.5t-89 -229t-137 -187.5q23 0 66.5 -5.5t97 -14.5t108.5 -23.5t101 -34t75 -43t29 -51.5q0 -23 -14.5 -50.5 t-36.5 -27.5q-18 0 -72.5 20.5t-128.5 45t-158 45t-160 20.5q-164 0 -276.5 -38t-185 -83t-109.5 -83t-49 -38q-23 0 -47.5 19.5t-24.5 42.5q0 25 30 58.5t73 67t89 62.5t79 41q-94 51 -162 143.5t-112 204t-64.5 231t-20.5 226.5zM340 735q0 -66 5 -144.5t18.5 -158.5 t37 -155.5t60.5 -134t88 -94.5t121 -36q80 0 138 47t98 122t65.5 169t39 190.5t18.5 185.5t5 151q0 111 -14 239.5t-51 238t-100.5 182.5t-161.5 73q-76 0 -133.5 -45t-98.5 -120t-67.5 -168t-41 -190.5t-20.5 -189.5t-6 -162z" />
<glyph unicode="R" horiz-adv-x="1116" d="M43 1546q0 33 25 51q10 6 40.5 12.5t75.5 14.5q4 23 21.5 41t56.5 18q10 0 31.5 -2t42 -5t36 -9t13.5 -16q0 -4 -1 -7.5t-1 -7.5q47 4 86 5t66 1q57 0 126.5 -7t140 -25.5t137.5 -49t119 -75.5t84 -108.5t32 -145.5q0 -125 -71 -223.5t-181.5 -174t-243.5 -130 t-260 -91.5q51 -41 129 -94t166 -109.5t177 -109.5t161.5 -95t120 -67.5t49.5 -27.5q23 -12 22 -48q0 -39 -24.5 -63.5t-47.5 -24.5q-51 0 -119.5 29t-144.5 77t-154.5 107.5t-152.5 121t-136.5 118.5t-107.5 98q4 -131 14.5 -264t26.5 -248q0 -4 -7 -17t-24.5 -28.5 t-43 -27t-60.5 -11.5q-33 0 -48 10.5t-24 26.5q-8 18 -16 77.5t-13 140.5t-9.5 172t-6.5 175t-3 151t-1 97q0 180 4.5 362.5t24.5 362.5q-25 -4 -49.5 -6t-48.5 -2q-29 0 -29 51zM352 1152v-374v-90q127 35 237.5 89t192.5 125t129 156t47 179q0 92 -43 149.5t-111.5 89 t-154.5 43t-170 11.5h-52.5t-57.5 -2q-18 -181 -17 -366v-10z" />
<glyph unicode="S" horiz-adv-x="1245" d="M115 1006q0 143 61.5 265t157.5 211t216 139t236 50q102 0 175 -37t118 -94t65.5 -126t20.5 -132q0 -45 -10 -101.5t-29.5 -105.5t-47 -81.5t-64.5 -32.5q-12 0 -29.5 5t-34 14t-28 19.5t-11.5 22.5q0 18 17.5 34.5t39 46.5t39 81t17.5 139q0 20 -2 60t-19.5 79t-55.5 68 t-111 29q-94 0 -182.5 -51.5t-156 -130.5t-107.5 -174t-40 -185q0 -86 38 -139.5t99.5 -86t139.5 -51t159.5 -35t159.5 -36t139.5 -55t99.5 -93t38 -149.5q0 -115 -57.5 -200t-144.5 -142.5t-193.5 -85t-204.5 -27.5q-96 0 -183.5 26.5t-153 76t-103.5 120t-38 160.5 q0 16 1 38.5t9.5 43t25 34t46.5 13.5q35 0 72 -17.5t37 -39.5q0 -18 -4 -36t-4 -36q0 -135 71.5 -202.5t210.5 -67.5q80 0 149.5 22.5t122 65.5t82 104.5t29.5 136.5q0 88 -37.5 137.5t-99 76t-140.5 38t-162 21.5t-162 27.5t-140.5 56.5t-99 107.5t-37.5 181.5z" />
<glyph unicode="T" horiz-adv-x="897" d="M123 1550q0 18 3 29.5t21 22.5q10 6 42 12t78 11t102.5 9t117.5 8q10 33 31 43.5t55 10.5q47 0 81 -13.5t36 -29.5q102 4 184 6t119 2q25 0 33 -19.5t8 -39.5t-2 -30.5t-20 -21.5q-2 -2 -33 -3t-78 -3t-106.5 -4t-118.5 -4q-16 -156 -23.5 -313.5t-7.5 -313.5 q0 -166 2 -330.5t15 -330.5q2 -27 7 -61.5t10 -69.5t9 -67t4 -54q0 -23 -38 -39t-83 -16q-37 0 -53 10t-24 26q-10 23 -18.5 90.5t-13.5 157.5t-9 193.5t-5.5 198t-2.5 171t-1 111.5q0 29 2.5 103.5t5.5 167t9 189.5t12 171q-61 -4 -120.5 -10.5t-119.5 -16.5 q-16 -4 -33.5 -7t-33.5 -3q-25 0 -34 18.5t-9 38.5z" />
<glyph unicode="U" horiz-adv-x="1294" d="M160 879q0 18 2 80.5t5 144.5t8 174t9 171t7.5 131t5.5 58q6 16 36.5 27.5t49.5 11.5q12 0 32.5 -1t42 -5t37 -10t15.5 -19q0 -61 -5.5 -132.5t-9.5 -133.5q-10 -129 -15 -258t-5 -258q0 -49 1 -127t8 -168t21.5 -180t41 -164t67.5 -120t100 -46q68 0 117 58.5t83 150.5 t54.5 207t31.5 225.5t14.5 206.5t3.5 152v83t-2 120q-1 33 -0.5 66.5t0.5 67.5q2 70 3 129.5t5 101.5t10 54q10 16 20.5 26.5t32.5 10.5q10 0 30.5 -3t42 -7t40 -11t22.5 -16q2 -4 5 -75.5t7.5 -187.5t7.5 -261t6 -299t6 -303.5t5 -271t3 -202.5t1 -100q0 -23 -35.5 -39 t-83.5 -16q-35 0 -48 8.5t-15 12.5q-4 8 -6 44t-3 86q-1 51 -2 109v56.5v53.5q1 52 1 91v49q-25 -78 -58.5 -164t-84 -157.5t-120 -118.5t-161.5 -47q-96 0 -162 50t-109 132t-66.5 184.5t-34.5 206t-13 198.5t-2 163z" />
<glyph unicode="V" horiz-adv-x="1150" d="M131 1585q0 16 1 32.5t9.5 30t26.5 22.5t51 9q47 0 78 -17t31 -40q0 -94 15 -217t42 -258t62.5 -277.5t74.5 -276.5t79 -253t77 -209q27 39 61.5 142.5t72.5 242.5t76 299t69.5 311.5t56 281.5t37.5 208q2 12 4 29.5t8 27.5q8 12 20.5 15.5t28.5 3.5q23 0 45.5 -13.5 t22.5 -36.5q0 -41 -14.5 -129t-39 -204.5t-56.5 -253.5t-67.5 -275.5t-73.5 -271.5t-73 -241.5t-64.5 -184.5t-50.5 -100q-16 -20 -35.5 -35t-48.5 -15q-41 0 -70.5 27t-51.5 57q-43 66 -90.5 183.5t-92.5 265t-85 309.5t-70.5 314.5t-48 283.5t-17.5 213z" />
<glyph unicode="W" horiz-adv-x="1515" d="M104 1395q0 16 1 54t2.5 79t5.5 74.5t10 44.5q17 28 85 28h5q53 0 75.5 -17.5t22.5 -39.5q0 -63 -6 -110.5t-6 -112.5q0 -125 4 -284t18.5 -321.5t41 -315t71.5 -267.5q4 -8 11.5 -25.5t17.5 -36t21.5 -33t19.5 -14.5q6 0 15 10.5t17.5 22.5t14.5 24.5t8 18.5 q57 119 87 277.5t45.5 330.5t25.5 340t26 305q4 25 17.5 31t38.5 6q14 0 36.5 -1t44 -5t37 -11t15.5 -20q0 -78 -4 -186t-7 -228t-3 -247t8 -242.5t27.5 -214t54.5 -162.5q6 -12 21 -32.5t34 -20.5q16 0 29.5 15.5t21.5 27.5q35 57 63.5 149.5t50 203t37 233.5t27 238.5 t17.5 218t10 172.5q0 16 3 63t6 99.5t5 94.5t4 46q6 14 17.5 17t34.5 3h16h12q25 0 40.5 -4t15.5 -24q0 -88 -8.5 -221.5t-23 -285t-37 -312t-52 -304t-65.5 -261.5t-77 -183q-27 -41 -64.5 -69.5t-96.5 -28.5q-61 0 -107.5 34.5t-79.5 90t-54.5 123t-34.5 135t-19 126 t-11 93.5q-4 -35 -13 -96.5t-23.5 -133t-36 -144.5t-51 -132.5t-69.5 -97t-91 -37.5q-59 0 -107.5 53t-84.5 141t-62.5 204t-44 242t-28.5 252t-17 236.5t-8.5 195.5t-2.5 128z" />
<glyph unicode="X" horiz-adv-x="1146" d="M100 -74q0 14 17.5 45t41 65t46 64.5t33.5 44.5q88 127 172 254t163 256q-88 158 -171 311.5t-147.5 282.5t-103 221.5t-38.5 122.5q0 23 21.5 40.5t72.5 17.5q29 0 57.5 -5.5t38.5 -15.5q4 -4 11.5 -22.5t16.5 -41t16 -43t11 -30.5q27 -66 60 -127t63 -123 q49 -98 99.5 -193.5t101.5 -191.5q63 104 121.5 210t114.5 216q41 78 80.5 155t68.5 158q4 10 10 30t15 28q6 4 23.5 6t25.5 2q23 0 37 -11.5t14 -33.5q0 -20 -17.5 -54t-27.5 -55q-94 -207 -195.5 -393t-210.5 -366q76 -137 155 -271.5t163 -267.5q35 -55 69.5 -111.5 t75.5 -109.5q18 -25 49 -54.5t31 -58.5t-36 -46t-70 -17q-4 0 -18.5 1t-30 2t-30 5t-20.5 10q-25 29 -70.5 97.5t-105 163.5t-129 213t-141.5 245q-84 -129 -168 -260t-176 -268q-23 -35 -42.5 -70t-47.5 -64q-18 -18 -43 -18q-12 0 -34 19.5t-22 35.5z" />
<glyph unicode="Y" horiz-adv-x="1263" d="M143 1591q0 47 18.5 68.5t67.5 21.5q12 0 33 -3t40.5 -9t32.5 -17.5t13 -27.5v-163t6 -163q2 -39 6.5 -106.5t12.5 -145t23.5 -156.5t40 -142.5t62.5 -104.5t89 -41q57 0 108.5 48t94.5 124t78.5 171t62 187.5t43 173t22.5 130.5q2 12 5.5 46t8.5 69.5t9 65.5t8 36 q14 18 42 27.5t50 9.5q41 0 59.5 -14.5t24.5 -37t4 -51t-2 -57.5q0 -31 -7 -114t-19.5 -199.5t-29.5 -255t-34.5 -279.5t-36 -275.5t-36 -239t-32 -172t-22.5 -75.5q-14 -14 -42.5 -21.5t-57.5 -7.5q-47 0 -66.5 17.5t-19.5 40.5q0 16 6 51t14 77t16.5 86t14.5 79t14.5 89 t18.5 119.5t20.5 134t19.5 134t17 120t12 89.5q-20 -37 -59 -111t-97.5 -146.5t-133 -127t-164.5 -54.5q-94 0 -156.5 62.5t-102.5 161t-60.5 222.5t-29 246t-9.5 231.5t-1 178.5z" />
<glyph unicode="Z" horiz-adv-x="1251" d="M98 49q0 14 42 88t107.5 180.5t143.5 230.5t148.5 234.5t125 195.5t70.5 112q72 117 155 234.5t148 238.5q-63 4 -141 6t-141 2q-98 0 -196.5 -2t-197.5 -10q-37 -4 -74.5 -10.5t-74.5 -6.5q-25 0 -33 19.5t-8 40.5q0 16 1 26t15 21q12 8 58.5 13t113 9t144.5 7t152.5 4 t137 2.5t97.5 1.5q53 0 112.5 -3.5t110.5 -11.5t85 -24.5t34 -44.5q0 -27 -32 -95.5t-84 -166t-120.5 -215t-144.5 -240.5t-153.5 -245t-147.5 -227.5t-126 -187.5t-89 -125q33 -2 52.5 -4t34.5 -4t34.5 -4t52.5 -2q61 0 129 1t137.5 4t136 9t127.5 15q12 2 37 9t49.5 14 t44 13.5t21.5 6.5q23 0 32 -24.5t9 -47.5q0 -39 -62.5 -61.5t-153.5 -35t-195.5 -15.5t-188.5 -3h-70t-97 1t-108.5 2t-103.5 4.5t-81 8.5t-44 11q-31 20 -31 51z" />
<glyph unicode="[" horiz-adv-x="632" d="M102 -467q0 557 1 1105t1 1105q0 70 -1 138.5t3 137.5q0 41 30 50.5t63 9.5h34q104 0 205 3t205 3q23 0 40 -17.5t17 -39.5q0 -20 -11 -31.5t-27 -22.5q-4 -2 -30 -4t-65 -3t-84 -1t-86 -1t-73.5 -1h-44.5q-2 -596 -1 -1188t-2 -1188h39t62 1t73.5 1h73.5h81t38 -4 q16 -8 27.5 -20t11.5 -33q0 -23 -17.5 -40t-39.5 -17h-467q-23 0 -39.5 17.5t-16.5 39.5z" />
<glyph unicode="\" horiz-adv-x="757" d="M66 1800q0 12 11 22.5t26.5 17.5t32 12.5t28.5 5.5q25 0 39 -17.5t23.5 -42t14.5 -50.5t11 -42l440 -1442q8 -25 27.5 -86t41 -128.5t38 -124t16.5 -70.5q0 -23 -17.5 -40.5t-39.5 -17.5q-25 0 -41.5 3t-30.5 17.5t-27.5 45.5t-29.5 86l-441 1442q-8 25 -27.5 86 t-41 128.5t-37.5 124t-16 70.5z" />
<glyph unicode="]" horiz-adv-x="827" d="M102 -467q0 20 11.5 31.5t27.5 21.5q4 2 30 4t64.5 3t84 1t86 1.5t73.5 1.5h45q2 596 1 1187.5t1 1187.5h-38.5t-61.5 -1t-74 -1h-73h-81t-38 4q-16 8 -27.5 20.5t-11.5 33.5q0 23 17.5 40t39.5 17h467q23 0 39 -17.5t16 -39.5q0 -557 -1 -1105t-1 -1105q0 -70 1 -138.5 t-3 -138.5q0 -41 -29.5 -50t-62.5 -9h-35q-104 0 -204.5 -3t-204.5 -3q-23 0 -40.5 17.5t-17.5 39.5z" />
<glyph unicode="^" horiz-adv-x="675" d="M90 1024q0 12 8 29q27 53 67 107t73 106q27 41 50 80.5t54 76.5q10 12 21.5 21.5t29.5 9.5q12 0 43 -5t41 -15q4 -2 20.5 -35t39 -79t49 -100.5t49 -101.5t37 -79.5t14.5 -37.5q0 -12 -14.5 -21t-31.5 -17.5t-34.5 -12.5t-23.5 -4q-14 0 -37 19q-2 2 -25.5 48 t-51.5 103.5t-53.5 107.5t-29.5 60q-14 -25 -38.5 -65.5t-52.5 -84.5t-54.5 -84t-49.5 -63q-18 -18 -36 -18q-20 0 -42 21.5t-22 33.5z" />
<glyph unicode="_" horiz-adv-x="978" d="M8 -115q0 23 16.5 39.5t38.5 16.5h809q23 0 40.5 -16.5t17.5 -39.5t-17.5 -40t-40.5 -17h-809q-23 0 -39 17.5t-16 39.5z" />
<glyph unicode="`" horiz-adv-x="438" d="M134 1328.5q5 19.5 32 27.5q6 2 14 2q18 0 29.5 -13.5t15.5 -33.5q8 -29 25.5 -50.5t36 -37t33 -28t18.5 -24.5q4 -18 -6 -34.5t-27 -22.5q-2 0 -4 -1t-4 -1q-23 0 -48.5 18.5t-48 45t-40 57.5t-23.5 53q-8 23 -3 42.5z" />
<glyph unicode="a" horiz-adv-x="868" d="M10 635q0 98 32 171t80 122t106.5 73.5t113.5 24.5q72 0 115 -35t55 -82q8 25 29.5 37t44.5 12q25 0 59.5 -15t34.5 -46q0 -16 -5 -62.5t-10.5 -105.5t-10.5 -124.5t-5 -123.5q0 -35 6 -63q4 -23 14.5 -43.5t28.5 -20.5q25 0 49.5 34t49 84t48 110.5t43 114t34 92 t22.5 45.5q8 8 21 8q14 0 32.5 -12.5t18.5 -28.5q0 -29 -12.5 -82t-35 -114.5t-54 -126t-71.5 -117t-86 -86t-98 -33.5q-59 0 -91.5 43t-49 102t-20.5 122.5t-4 104.5q-14 -29 -37 -75.5t-54.5 -92t-72.5 -78t-97 -32.5q-35 0 -74.5 16.5t-72.5 52t-54.5 92t-21.5 138.5z M217 588q0 -72 15.5 -120t48.5 -48q31 0 60.5 46t56 107.5t46 125t27.5 98.5q0 23 -2 49t-9 50t-24.5 39t-48.5 15q-41 0 -72.5 -34.5t-53 -88t-33 -117t-11.5 -122.5z" />
<glyph unicode="b" horiz-adv-x="694" d="M20 739q0 63 2.5 152.5t6.5 189t10 200.5t12 192.5t12.5 162t12.5 107.5q4 29 28.5 47t61.5 18q23 0 42 -8t19 -31q0 -29 -3 -93t-9 -150t-12 -188.5t-11.5 -207t-9.5 -206t-4 -187.5q16 41 41 90.5t60.5 92.5t86 72.5t113.5 29.5t101 -27.5t57.5 -67.5t26 -82t6.5 -71 q0 -82 -29 -160.5t-75 -141t-104.5 -101.5t-117.5 -39q-33 0 -58.5 11t-46 27.5t-35 33t-26.5 28.5v-14t1 -26.5t1 -26v-15.5q0 -29 -14 -54.5t-53 -25.5q-35 0 -49.5 14.5t-24.5 30.5q-4 8 -8 59.5t-6 118t-3.5 135t-1.5 111.5zM180 604q0 -84 34 -129t87 -45q51 0 87 38 t59.5 92t35 110.5t11.5 93.5q0 23 -4.5 50.5t-13.5 52t-25 41t-39 16.5q-37 0 -75 -39t-69.5 -91.5t-55.5 -106.5t-32 -83z" />
<glyph unicode="c" horiz-adv-x="675" d="M0 623q0 66 17.5 137t54.5 130.5t92 97.5t131 38q35 0 67.5 -14.5t57 -39t40 -56t15.5 -68.5q0 -23 -17.5 -39t-39.5 -16q-23 0 -32 23.5t-17.5 51t-23.5 50t-50 22.5q-20 0 -39.5 -26.5t-35 -69.5t-25 -97.5t-9.5 -109.5q0 -47 8.5 -90t26 -77t46 -54.5t71.5 -20.5 q53 0 101 30t91 75t80 98t64.5 101.5t45 83t21.5 40.5q8 10 13.5 14.5t17.5 4.5q51 0 52 -51q0 -23 -10.5 -58t-20.5 -57q-33 -63 -84.5 -129t-116 -119t-140 -86t-159.5 -33q-61 0 -115.5 20.5t-93.5 59.5t-61.5 98.5t-22.5 135.5z" />
<glyph unicode="d" horiz-adv-x="735" d="M4 637q0 84 23.5 154.5t64.5 123t96.5 82t118.5 29.5q70 0 111 -30.5t55 -61.5q0 6 2 70.5t6 158.5t7.5 203t7.5 201t7 153.5t5 63.5q10 10 35.5 16t42.5 6q12 0 29.5 -4t35 -11t28.5 -18.5t11 -27.5q0 -10 -4 -74.5t-9 -160t-12.5 -211t-12.5 -231.5t-9 -219.5 t-4 -172.5q0 -59 3 -118.5t6 -111t5 -91.5t2 -58q0 -41 -14 -64.5t-55 -23.5q-29 0 -48.5 27.5t-30.5 70.5t-16.5 95.5t-6.5 100.5v46v42q1 40 1 56q-10 -31 -28.5 -85t-48 -107.5t-71.5 -92t-101 -38.5q-37 0 -78 18t-75 56t-56.5 97.5t-22.5 141.5zM211 588q0 -72 11 -120 t46 -48q31 0 60.5 40t55.5 98t45.5 124t27.5 115q0 23 -2 49t-9.5 50t-24.5 39t-48 15q-41 0 -72 -34.5t-50.5 -88t-29.5 -117t-10 -122.5z" />
<glyph unicode="e" horiz-adv-x="690" d="M0 623q0 66 17.5 137t52 130.5t87 97.5t122.5 38q84 0 140 -55.5t56 -143.5q0 -55 -23.5 -93t-58.5 -60.5t-77 -31.5t-76 -9q-16 0 -29.5 1t-24.5 3q0 -47 8.5 -90t26 -77t46 -54.5t71.5 -20.5q53 0 101 30t91 75t80 98t64.5 101.5t45 83t21.5 40.5q8 10 13.5 14.5 t17.5 4.5q51 0 52 -51q0 -23 -10.5 -58t-20.5 -57q-33 -63 -84.5 -129t-116 -119t-140 -86t-159.5 -33q-61 0 -115.5 20.5t-93.5 59.5t-61.5 98.5t-22.5 135.5zM188 682q23 -6 41 -6q29 0 53.5 18.5t42 45t27.5 59t10 59.5q0 39 -16 60.5t-39 21.5t-43 -21.5t-35.5 -58.5 t-26 -83t-14.5 -95z" />
<glyph unicode="f" horiz-adv-x="442" d="M-211 -223q0 18 14.5 30.5t34 20.5t40 15t32.5 16q37 23 61.5 96.5t40 174.5t23.5 219t11 230.5t3 210v156.5v115q-25 -2 -43 -2h-29q-35 0 -50 6t-15 47q0 31 16.5 38t40.5 7h23h61q6 190 25.5 323.5t54.5 218.5t86 124t123 39q63 0 108.5 -27t73 -68t39.5 -92t12 -98 q0 -23 -17 -39t-40 -16q-18 0 -25.5 35.5t-16.5 78.5t-25.5 79t-53.5 36q-43 0 -71.5 -52t-47 -136t-26.5 -189.5t-12 -210.5q31 2 61.5 2h60.5q23 0 30 -24.5t7 -40.5q0 -14 -4 -16.5t-14 -8.5q-4 -2 -45 -4t-100 -4q-1 -60 -1 -113v-52q1 -75 1 -124q0 -70 -2.5 -162 t-9.5 -192t-24.5 -202.5t-48 -192.5t-77.5 -162t-115 -111q-25 -14 -56.5 -25.5t-58.5 -11.5q-23 0 -39 17.5t-16 40.5z" />
<glyph unicode="g" horiz-adv-x="667" d="M-168 -229q0 76 36 153.5t111.5 143t194.5 114.5t287 68q-6 57 -12.5 112.5t-10.5 112.5q-2 16 -2 29.5t-2 30.5q-14 -29 -33.5 -64t-46 -64.5t-59.5 -50t-74 -20.5q-47 0 -85 27.5t-65.5 71.5t-42 101.5t-14.5 114.5q0 59 16.5 125t49.5 121t83 92t118 37 q39 0 68.5 -12.5t51 -29.5t38 -38.5t28.5 -40.5q0 2 1 4t1 4q10 23 30.5 38.5t45.5 15.5q35 0 61.5 -23.5t26.5 -46.5q0 -74 -14.5 -154.5t-14.5 -162.5q0 -80 8.5 -160t18.5 -160h52.5t51.5 -4q43 -6 43 -45q0 -20 -11 -24.5t-30 -4.5h-47t-51 -2q4 -43 7 -85t3 -85 q0 -94 -24.5 -197.5t-77.5 -190.5t-137 -143.5t-205 -56.5q-84 0 -152.5 29t-118 77t-76 110.5t-26.5 132.5zM0 -213q0 -59 19.5 -112.5t52 -93.5t77 -63.5t93.5 -23.5q78 0 124 55.5t69.5 135t30.5 169t7 156.5q0 76 -6 150q-86 -14 -170 -41t-149.5 -71t-106.5 -108.5 t-41 -152.5zM205 565q0 -61 14 -103t49 -42q31 0 59.5 37t52 88t40 104t24.5 86q2 18 3.5 37t3.5 35q-12 57 -35 100t-58 43q-33 0 -61.5 -38t-49 -95t-31.5 -125t-11 -127z" />
<glyph unicode="h" horiz-adv-x="839" d="M25 592q0 68 2 166t6 210.5t9 232.5t12 229.5t16.5 200.5t19.5 149q2 14 25.5 21t52.5 7q33 0 59.5 -9t26.5 -30q0 -27 -4 -90t-11.5 -149t-14.5 -188.5t-14 -210t-12 -212t-5 -194.5q12 39 31.5 90t50 97t74.5 78t106 32q66 0 99.5 -35t48.5 -83t17.5 -99t2.5 -86 q0 -55 -1 -109v-22q0 -42 3 -77q4 -44 16 -70.5t41 -26.5t55.5 27.5t49 69.5t41 92t34 96t27.5 81t20 47q6 10 11.5 12.5t19.5 2.5q23 0 35 -17.5t12 -23.5q0 -55 -24.5 -139t-70.5 -162t-111.5 -134.5t-145.5 -56.5q-92 0 -139 75t-47 185q0 33 2 91q1 21 1 41q0 36 -2 71 q-4 55 -16 96t-43 41q-27 0 -52.5 -37.5t-48 -104.5t-41 -158t-30.5 -199q-2 -20 -4 -57.5t-3 -77t-4 -76t-7 -56.5q-4 -14 -24.5 -20t-45.5 -6q-31 0 -56.5 7t-29.5 23q-6 25 -9 78.5t-6 118t-4 132t-1 116.5z" />
<glyph unicode="i" horiz-adv-x="423" d="M6 580q0 12 2 48t4 83t6.5 99t7.5 96t6 76t5 36q8 16 37.5 23.5t58.5 7.5q88 0 88 -50q0 -29 -3 -54t-7 -54l-12 -156t-6 -155q0 -20 1 -48t7 -52.5t18 -41t37 -16.5q23 0 41 13.5t33.5 33.5t29 44t21.5 44q8 18 23.5 59t32 85t31.5 81t21 45q2 2 2.5 3t2.5 4l4 4 q8 4 16 4q10 0 21.5 -5.5t19.5 -15.5q10 -10 10 -22v-4q0 -6 -1 -12.5t-1 -14.5q-4 -23 -8 -49.5t-8 -36.5q-14 -41 -30.5 -87t-39.5 -93q-4 -10 -12 -27q-2 -4 -4 -9t-4 -9l-2 2q-37 -63 -92.5 -106.5t-135.5 -43.5q-59 0 -101 24.5t-68.5 63.5t-39 87t-12.5 96zM39 1335 q0 49 29.5 79t78.5 30t79 -30t30 -79t-29.5 -78.5t-79.5 -29.5q-49 0 -78.5 29.5t-29.5 78.5z" />
<glyph unicode="j" horiz-adv-x="337" d="M-557 -223q0 117 57.5 200.5t148.5 140t201.5 89.5t217.5 47q-8 78 -15.5 156.5t-7.5 156.5q0 25 1 90.5t4 137t8 131t14 73.5q12 23 29.5 38.5t45.5 15.5q27 0 58 -20.5t31 -49.5q0 -100 -10.5 -198.5t-10.5 -198.5q0 -80 8 -160t19 -160h20h37q31 0 60.5 -7t29.5 -42 q0 -20 -12 -24.5t-29 -4.5h-47.5t-50.5 -2q4 -43 7 -85t3 -85q0 -100 -25.5 -204.5t-80 -189.5t-138 -139t-200.5 -54q-74 0 -141.5 25.5t-119 71.5t-82 109.5t-30.5 141.5zM-389 -207q0 -51 16.5 -103t48 -94t76.5 -69t101 -27q80 0 127 59.5t69.5 142.5t28.5 170t6 144 q0 76 -6 150q-86 -14 -170 -41t-149.5 -72t-106.5 -108.5t-41 -151.5zM53 1266q0 49 30 78.5t79 29.5t78.5 -29.5t29.5 -78.5t-29.5 -79t-78.5 -30t-79 30t-30 79z" />
<glyph unicode="k" horiz-adv-x="747" d="M51 672q0 127 1 268t7.5 285.5t18.5 286t35 266.5q4 29 29.5 39t47.5 10q37 0 56.5 -17.5t19.5 -40.5q0 -20 -4 -76.5t-11 -136t-14.5 -176t-14.5 -196t-12 -196.5t-5 -179q47 98 114.5 164.5t159.5 66.5q76 0 131.5 -48t55.5 -122q0 -55 -31 -101t-77 -78t-101.5 -49 t-104.5 -17q23 -27 53.5 -62t64.5 -66.5t66.5 -53t59.5 -21.5q29 0 54.5 25.5t46 65.5t38 88t31.5 93t26.5 80t20.5 47q8 10 13 15.5t20 5.5q10 0 28.5 -12.5t18.5 -30.5q0 -6 -2 -21.5t-5 -34t-6 -36t-8 -25.5q-16 -49 -39.5 -116.5t-57.5 -131t-81 -107.5t-110 -44 q-55 0 -110.5 32.5t-105 80.5t-87 101.5t-58.5 94.5q-10 -35 -11 -74v-27q0 -28 1 -59q0 -25 4 -49.5t4 -48.5q0 -23 -19.5 -39t-56.5 -16q-59 0 -75 36q-6 14 -9.5 65.5t-5.5 111t-3 113t-1 67.5zM252 760q4 -6 12 -19.5t19.5 -27t21.5 -22.5t17 -9q35 0 67.5 18.5t60 48 t44 66.5t16.5 76q0 10 -2 24.5t-7 28.5t-15.5 24.5t-28.5 10.5q-23 0 -51.5 -19.5t-57.5 -51t-54.5 -70.5t-41.5 -78z" />
<glyph unicode="l" horiz-adv-x="339" d="M53 942q0 90 5 214t14.5 245t23 220t31.5 142q6 16 11 26.5t24 10.5q12 0 30.5 -2t36 -7t29.5 -12t12 -20q0 -23 -2 -33t-6 -32q-29 -176 -43 -366.5t-14 -358.5q0 -135 8 -274.5t20.5 -262.5t29 -216t30.5 -136q4 -10 -5 -20.5t-24.5 -17.5t-33 -12t-29.5 -5 q-29 0 -49 26q-8 10 -15.5 40l-11.5 46q-14 61 -27.5 158.5t-24 209t-15.5 226.5t-5 211z" />
<glyph unicode="m" horiz-adv-x="1071" d="M25 588q0 174 10 284.5t22 145.5q14 39 43 46t39 7q29 0 55.5 -11t26.5 -34q0 -35 -4 -82t-8 -98t-9 -99.5t-10 -82.5q12 37 24.5 101t36 125.5t64.5 107.5t111 46q51 0 82 -25.5t47 -66.5t22.5 -92t6.5 -102q6 31 14 67.5t23.5 68.5t42 54.5t69.5 22.5q45 0 75 -25.5 t47 -63.5t24.5 -83t7.5 -82q0 -27 -2 -76q-1 -20 -1 -39q0 -29 2 -56q3 -46 15 -81t39 -35q23 0 43.5 24.5t38.5 63.5t34.5 85t32 91t30 82t26.5 55q4 4 7 7.5t15 3.5q23 0 37.5 -14.5t14.5 -28.5q0 -8 -3.5 -25.5t-8.5 -37t-9 -38t-8 -28.5q-18 -51 -42 -113.5t-58.5 -118 t-81.5 -92.5t-115 -37q-47 0 -81 21.5t-56.5 53.5t-32.5 71t-10 75q0 51 3 100.5t3 100.5v32.5t-2 50.5t-9.5 46.5t-19.5 20.5q-16 0 -29.5 -30t-24.5 -76t-20.5 -103.5t-16.5 -110.5t-12 -98t-7 -68q-4 -31 -29 -44t-55 -13q-25 0 -41.5 16.5t-25.5 38t-13 44t-4 34.5v297 q0 6 -1 36t-4.5 62.5t-11.5 58t-22 25.5q-16 0 -35 -35.5t-36 -91t-33.5 -123t-30 -129t-22.5 -110.5t-13 -70q-6 -33 -8.5 -69.5t-14.5 -67.5q-8 -16 -21.5 -27.5t-31.5 -11.5q-35 0 -59.5 23.5t-28.5 52.5q-8 82 -10 160t-2 137z" />
<glyph unicode="n" horiz-adv-x="839" d="M23 659q0 23 2 82.5t7 124t12 118.5t17 67q12 16 35 22t41 6q12 0 29.5 -4t33 -11t26 -17.5t10.5 -24.5q0 -18 -5.5 -61t-11.5 -96.5t-11 -112t-5 -105.5q10 41 33.5 116t61.5 150.5t93 131t129 55.5q63 0 91 -42t35 -108q4 -42 4 -90q0 -27 -1 -56q-4 -79 -4 -153 q0 -43 3 -81t9.5 -67.5t17.5 -47t27 -17.5q31 0 62 52.5t58.5 119t52 131t38.5 88.5q2 4 5.5 8.5t17.5 4.5q23 0 37 -15.5t14 -25.5q0 -53 -23.5 -137t-68.5 -163t-107.5 -135.5t-140.5 -56.5q-47 0 -79.5 21.5t-54 57.5t-32 82t-10.5 93q0 37 4 108.5t4 141.5t-7 122 t-32 52q-20 0 -46.5 -45t-49 -101.5t-40 -110.5t-23.5 -73q-23 -84 -37.5 -166.5t-24.5 -168.5q-4 -35 -5 -70t-11 -70q-10 -39 -86 -39q-61 0 -68 47q-16 115 -21 234t-5 235z" />
<glyph unicode="o" horiz-adv-x="757" d="M-4 608q0 84 17.5 146.5t45 104.5t60.5 62.5t63 20.5q18 43 57.5 76t106.5 33q66 0 111 -39t73.5 -96.5t42 -125t13.5 -126.5v-26.5t-2 -29.5q47 18 87 53t72.5 71t56 66.5t36.5 39.5q10 6 18 6q16 0 33.5 -15.5t17.5 -33.5q0 -29 -14 -45.5t-33 -32.5q-39 -35 -72.5 -68 t-67.5 -58.5t-70 -44t-81 -26.5q-12 -49 -33.5 -95t-56.5 -83t-83 -59.5t-113 -22.5q-55 0 -107.5 19.5t-91.5 61.5t-62.5 107.5t-23.5 159.5zM166 594q0 -31 8 -73t26.5 -80t50.5 -65.5t79 -27.5q63 0 106 48t66 120q-45 2 -93.5 13.5t-92.5 34t-78.5 55t-57.5 77.5 q-6 -27 -10 -52.5t-4 -49.5zM272 823q0 -49 20.5 -92t54.5 -73.5t79 -48t92 -17.5q2 18 3 37.5t1 38.5q0 63 -12 118.5t-33.5 96.5t-48.5 64.5t-55 23.5q-25 0 -44.5 -17.5t-31.5 -42t-18.5 -49.5t-6.5 -39z" />
<glyph unicode="p" horiz-adv-x="745" d="M-12 -86q0 176 5 349t15 349q6 94 12.5 187.5t22.5 185.5q4 29 33.5 44t66.5 15q23 0 51.5 -5t28.5 -27q0 -29 -7 -55.5t-11 -55.5q-4 -41 -7 -80t-8 -80q18 51 43 101.5t58 90.5t77 64.5t99 24.5q90 0 153.5 -68.5t63.5 -205.5q0 -86 -26.5 -161t-72.5 -132.5 t-107.5 -90t-129.5 -32.5q-66 0 -109.5 26.5t-66.5 61.5q-6 -123 -8 -253t-2 -253q0 -59 2 -119.5t6 -120.5q2 -25 5 -49t3 -49q0 -23 -17.5 -39t-39.5 -16q-8 0 -26.5 3t-37 7t-33 11t-18.5 16q-4 10 -8 60t-6 109.5t-3 114t-1 72.5zM209 545q0 -23 8 -49.5t22.5 -49 t36 -37t52.5 -14.5q47 0 80.5 38t55 93.5t32 117t10.5 110.5q0 10 -1 40.5t-8.5 64.5t-21.5 60.5t-41 26.5q-31 0 -63.5 -36t-63.5 -93t-56.5 -129t-41.5 -143z" />
<glyph unicode="q" horiz-adv-x="698" d="M-4 647q0 76 19.5 144.5t59.5 121t101.5 83t142.5 30.5q43 0 81 -20.5t65 -55.5q2 16 7 39t17.5 43.5t33 33.5t52.5 13q37 0 49.5 -22.5t12.5 -77.5q0 -59 -8 -153.5t-15 -186.5q-14 -213 -19 -425t-5 -427q0 -92 1 -181t1 -181q0 -23 -9.5 -39.5t-66.5 -16.5 q-47 0 -67 37q-4 6 -6.5 32.5t-4.5 65.5t-4 83t-3 84t-1 72v44q0 207 3 410.5t13 410.5q-8 -43 -30.5 -90t-55 -88t-74.5 -67.5t-91 -26.5q-57 0 -95.5 31.5t-61 79t-32.5 101.5t-10 99zM172 596q0 -16 2 -46t8 -59.5t19.5 -52t36.5 -22.5q29 0 66.5 51t70.5 117.5t55.5 131 t22.5 89.5q0 59 -33 105t-96 46q-43 0 -72 -44t-47.5 -104t-25.5 -120.5t-7 -91.5z" />
<glyph unicode="r" horiz-adv-x="608" d="M14 492q0 45 2 130t6.5 173t13.5 160.5t23 95.5q17 28 65 28h3q41 0 60.5 -17.5t19.5 -39.5q0 -41 -4 -95.5t-9.5 -111.5t-10.5 -111.5t-5 -97.5q8 29 17.5 73t23.5 93t33.5 100.5t45.5 92.5t59.5 66.5t76.5 25.5q37 0 64.5 -19.5t45 -50.5t27 -72t9.5 -84 q0 -63 -17.5 -86.5t-50.5 -23.5t-47 17.5t-18.5 44t-3.5 58t0 58.5t-9 44.5t-33 17.5q-43 0 -74.5 -55.5t-54 -139.5t-40 -183.5t-31.5 -187.5q-6 -33 -7 -66.5t-12 -64.5q-4 -18 -22.5 -33.5t-53.5 -15.5t-55 16.5t-24 44.5q-8 53 -10.5 108t-2.5 108z" />
<glyph unicode="s" horiz-adv-x="681" d="M29 301q0 37 21.5 72t58 69.5t86 68.5t102.5 64q-41 31 -86 62t-82 63.5t-61.5 69.5t-24.5 80q0 37 19.5 72.5t52 62.5t74.5 43t87 16t83 -15t66 -40.5t44 -60.5t16 -72q0 -27 -14 -45t-43 -18q-37 0 -48 19t-18 48q-2 12 -7 30.5t-13 36t-20.5 30t-30.5 12.5 q-31 0 -51.5 -32t-20.5 -65q0 -31 19.5 -59.5t51.5 -56t70.5 -54t77.5 -55.5q98 49 181 88t116 66q18 16 27.5 28.5t21.5 12.5q23 0 40.5 -13.5t17.5 -29.5q0 -29 -27 -51q-33 -29 -118 -69t-183 -91q41 -37 67.5 -78t26.5 -90q0 -57 -35.5 -108.5t-91 -89.5t-120 -60.5 t-121.5 -22.5q-45 0 -84 13.5t-67 37t-44 52t-16 59.5zM203 299q0 -27 15 -55.5t56 -28.5q33 0 59.5 20.5t46 50t30 63.5t10.5 59q0 29 -12.5 52t-32.5 46q-74 -47 -123 -99.5t-49 -107.5z" />
<glyph unicode="t" horiz-adv-x="329" d="M-213 1207.5q-2 13.5 3 26.5t24 21l217 9h19t20 2q4 68 10 132t12 116.5t13.5 90t15.5 50.5q17 28 53 28h2q10 0 25.5 -2t32 -7t27.5 -12t11 -20q0 -6 -6 -43.5t-13 -83t-14.5 -87.5t-9.5 -58q-2 -25 -4 -49.5t-4 -48.5q41 2 83 3t83 1q23 0 87.5 -2t135 -7t129 -11.5 t70.5 -14.5t14 -21.5t-1 -25.5t-11 -20.5t-18 -8.5q-39 0 -78 6.5t-78 10.5q-61 6 -123.5 8t-126.5 2q-43 0 -86 -1t-86 -1q-12 -174 -12 -350q0 -129 7 -255t28 -253q4 -18 13 -57t18.5 -80t17.5 -75t8 -40q0 -23 -21.5 -39t-60.5 -16q-45 0 -61 26q-6 10 -14.5 40 t-12.5 44q-43 174 -57.5 349t-14.5 356q0 39 3 134t10 208h-3q-122 -6 -241 -6q-12 0 -22.5 9t-12.5 22.5z" />
<glyph unicode="u" horiz-adv-x="821" d="M10 637q0 33 3 94.5t8.5 122.5t11.5 110.5t12 57.5q15 22 69 22h5q39 0 61 -15q17 -12 16 -53q0 -12 -1 -26q0 -8 -3.5 -36.5t-6.5 -68.5t-6 -86t-3 -89q0 -14 1 -58.5t9.5 -90.5t25.5 -82t50 -36q35 0 60.5 40t45 100.5t33 133.5t21.5 137.5t12 112.5t6 60 q2 16 20.5 22.5t35.5 6.5q10 0 27.5 -3t33.5 -7.5t28.5 -11.5t12.5 -15q0 -94 -12.5 -195.5t-12.5 -191.5v-58.5t4.5 -63.5t17.5 -50.5t38 -20.5q33 0 60.5 33t52 82t47 106.5t43 106.5t41 82t41.5 33q23 0 37 -15.5t15 -29.5q0 -8 -2.5 -23.5t-6 -33t-6.5 -33t-7 -25.5 q-18 -51 -48 -116.5t-72 -122t-97 -95.5t-127 -39q-49 0 -84 20.5t-54.5 56.5t-25.5 84q-3 24 -3 50t3 53q-10 -31 -24.5 -74.5t-39 -83.5t-60 -69t-91.5 -29q-49 0 -89 26t-67.5 70t-43 102.5t-15.5 121.5z" />
<glyph unicode="v" horiz-adv-x="659" d="M10 961q0 33 7.5 50t17.5 24t20.5 8t18.5 1q49 0 77.5 -13t28.5 -36q0 -35 3 -88t10.5 -114.5t17.5 -127t24.5 -124t32 -106.5t37.5 -75q31 31 60.5 111t52 173t39 184.5t22.5 146.5q2 12 3 27.5t5 25.5q6 16 31 20.5t33 4.5q33 0 43 -20.5t10 -43.5q0 -27 -6 -53.5 t-10 -52.5q-6 -29 -18.5 -86.5t-31 -126t-43 -139t-54 -129t-66.5 -95.5t-78 -37q-20 0 -56 11.5t-63 40.5q-23 27 -44 75.5t-39.5 110t-34 129.5t-26.5 130t-17.5 113.5t-6.5 80.5z" />
<glyph unicode="w" horiz-adv-x="950" d="M8 987q0 29 32 43t69 14q23 0 40 -17t17 -40q0 -51 7 -136t22.5 -172t38 -165t53.5 -119q23 10 44 64.5t37.5 125t29 141.5t18.5 112q2 10 4 29.5t5 40t6 39t5 24.5q10 33 62 33q39 0 58 -21.5t19 -73.5q0 -14 2.5 -54t6.5 -95t10 -115.5t16.5 -116t24.5 -96.5t33 -57 q23 20 42 62t33.5 94.5t25.5 109.5t18.5 109.5t12.5 93.5t7 59q4 39 7 65.5t7 44t12.5 24.5t24.5 7q27 0 44.5 -18t17.5 -51q0 -16 -4.5 -41t-8.5 -51q-4 -31 -12 -87.5t-22.5 -123t-35 -137t-50 -127t-68.5 -93t-90 -36.5q-59 0 -95 48t-55.5 113.5t-27 132t-9.5 105.5 q-12 -49 -26.5 -117.5t-39 -131t-59.5 -106.5t-86 -44t-86.5 44t-60.5 112.5t-40 151.5t-23.5 161.5t-10.5 143t-2 95.5z" />
<glyph unicode="x" horiz-adv-x="641" d="M-12 299q0 6 29.5 49t68.5 97.5t77 106.5t54 77l-10 12q-14 20 -50 71.5t-73 108t-65.5 105.5t-28.5 67q0 12 13 21.5t30.5 15.5t36 10t30.5 4q23 0 41 -18q2 -2 20.5 -29.5t44 -65.5t52.5 -80t47 -73q20 31 47 73t51.5 81t43 66.5t20.5 29.5q18 14 37 14q23 0 39 -17 t16 -40q0 -14 -20.5 -52t-49 -84t-60.5 -93t-54 -80l26 -39q10 -14 45 -61.5t73 -99.5t67.5 -96t29.5 -52q0 -12 -13 -21.5t-31.5 -15.5t-37 -9t-30.5 -3q-25 0 -43 18t-42 48t-46.5 62.5t-45 66.5t-40.5 61q-45 -66 -95.5 -143t-103.5 -128q-18 -18 -43 -18q-23 0 -40 15 t-17 38z" />
<glyph unicode="y" horiz-adv-x="708" d="M-188 -223q0 117 57 200.5t148.5 140t202 89.5t216.5 47q-6 68 -12 134.5t-10 135.5q-31 -76 -71 -132t-107 -56q-78 0 -123 37t-67.5 90t-29 112.5t-6.5 104.5q0 16 3 67.5t8.5 108.5t10.5 104.5t11 55.5q10 12 23.5 20t37.5 8q6 0 18.5 -1t25 -5t21.5 -10t9 -18 q0 -23 2 -54.5t-2 -54.5q-6 -55 -11 -110.5t-5 -110.5q0 -18 2 -65.5t9 -95.5t21.5 -86t41.5 -38q39 0 68.5 40t52 99.5t38 126t25.5 121.5q2 76 7 139.5t13 77.5q12 23 29.5 38.5t46.5 15.5q27 0 57.5 -20.5t30.5 -49.5q0 -100 -10 -198.5t-10 -198.5q0 -80 8 -160t18 -160 h21h37q31 0 60.5 -7t29.5 -42q0 -20 -12.5 -24.5t-28.5 -4.5h-47.5t-51.5 -2q4 -43 7.5 -85t3.5 -85q0 -100 -25.5 -204.5t-80 -189.5t-138.5 -139t-201 -54q-74 0 -141.5 25.5t-118.5 71.5t-81.5 109.5t-30.5 141.5zM-20 -207q0 -51 16 -103t48 -94t77 -69t100 -27 q80 0 127 59.5t69.5 142.5t29 170t6.5 144q0 76 -7 150q-86 -14 -169.5 -41t-149.5 -72t-106.5 -108.5t-40.5 -151.5z" />
<glyph unicode="z" horiz-adv-x="690" d="M48 393.5q-1 14.5 3 20.5q23 35 51.5 65.5t57.5 61.5q78 88 151.5 179t132.5 193q-10 0 -18 1t-18 1q-63 0 -125 -4t-125 -4q-33 0 -51.5 6.5t-18.5 44.5q0 37 17.5 49.5t52.5 12.5q72 0 143 4t143 4q18 0 48 -1t59 -7t50.5 -20.5t21.5 -38.5q0 -20 -19.5 -62.5 t-50.5 -93.5t-70 -107.5t-77.5 -106.5t-73.5 -90t-60 -59l492 17q23 2 27 -15.5t4 -40.5q0 -20 -34 -34.5t-86 -23.5t-115.5 -15t-123 -8.5t-107.5 -3.5t-69 -1h-58.5t-58 1t-45 2.5t-22.5 3.5q-6 4 -12.5 15t-10.5 25.5t-5 29z" />
<glyph unicode="{" horiz-adv-x="528" d="M49 813q0 29 16.5 42t39 19.5t47 9.5t41.5 13q10 6 19 15.5t19 19.5q18 23 30.5 57.5t20 73.5t9.5 77t2 66q0 86 -8.5 173t-8.5 173q0 84 11.5 181.5t46.5 180.5t100 138t174 55q20 0 35.5 -17t24 -37.5t10.5 -38t-4 -19.5q-12 -4 -24.5 -3t-24.5 -1q-63 -12 -99.5 -63.5 t-54.5 -119t-22.5 -137t-4.5 -119.5q0 -86 8.5 -173t8.5 -173q0 -47 -4 -99t-17.5 -102.5t-36 -96.5t-59.5 -79q-23 -23 -49 -34q59 -43 93 -113t52.5 -148.5t23.5 -159.5t5 -149t-4 -135t-4 -135q0 -25 1 -59.5t5 -71.5t13 -70t24 -53q31 -39 64.5 -45t63.5 -9t49 -14.5 t19 -58.5q0 -23 -17 -40t-40 -17q-31 0 -62.5 5t-62.5 13q-84 20 -130 64.5t-66.5 102.5t-23.5 128t-3 141q0 63 3 127t3 127q0 51 -3 119t-16.5 135.5t-38 128t-67.5 94.5q-14 12 -36.5 21.5t-42 22t-34 27.5t-14.5 40z" />
<glyph unicode="|" horiz-adv-x="780" d="M356 -426q0 508 12.5 1008.5t18.5 1008.5v65.5v110t1 131t2 127t4 98.5t5 44q10 16 21.5 27.5t32.5 11.5q12 0 28.5 -5.5t31.5 -12.5t26.5 -17t11.5 -23q0 -168 -4 -334.5t-8 -334.5l-21 -1348v-66.5t-1 -111t-1 -130t-2 -125.5t-4 -98t-4 -44q-10 -16 -42 -27.5 t-52 -11.5q-23 0 -39.5 17t-16.5 40z" />
<glyph unicode="}" horiz-adv-x="727" d="M49 2050q0 23 17.5 40t39.5 17q31 0 63 -5t62 -13q84 -20 130.5 -64.5t67 -102.5t23.5 -128t3 -141q0 -63 -3 -127t-3 -127q0 -51 3 -119t16 -135.5t37.5 -128t67.5 -94.5q16 -12 38 -21.5t41.5 -22t33.5 -27.5t14 -40q0 -29 -16 -42t-38.5 -19.5t-47.5 -9.5t-41 -13 q-10 -6 -19.5 -15.5l-19.5 -19.5q-18 -23 -30.5 -57.5t-19.5 -73.5t-9 -77t-2 -66q0 -86 8 -173t8 -173q0 -84 -11 -181.5t-46 -180.5t-100.5 -138t-174.5 -55q-20 0 -35.5 17t-23.5 37.5t-10 38t4 19.5q12 4 24.5 3t24.5 1q63 12 99 63.5t54.5 119t22.5 137.5t4 119 q0 86 -8 173t-8 173q0 47 4 99t17.5 103.5t36 96.5t59.5 78q23 23 49 34q-57 43 -92 113t-53.5 148.5t-23.5 159.5t-5 149t4 135.5t4 134.5q0 25 -1 59.5t-5 71.5t-12.5 70t-24.5 53q-31 39 -65 45t-63.5 9t-49 14.5t-19.5 58.5z" />
<glyph unicode="~" horiz-adv-x="1191" d="M92 915q0 55 19.5 110.5t53.5 100.5t81 74t102 29q61 0 103.5 -27.5t72 -67.5t53 -88.5t50 -88t61.5 -67.5t86 -28q86 0 123 52.5t37 129.5q0 6 -1 16.5t1 16.5q6 20 19.5 33.5t35.5 13.5q35 0 46.5 -25.5t11.5 -54.5q0 -63 -16.5 -122.5t-50.5 -106.5t-83 -75.5 t-115 -28.5q-70 0 -118 24.5t-83.5 61.5t-62 81t-52.5 80.5t-53.5 61t-66.5 24.5q-66 0 -103.5 -33t-37.5 -96q0 -6 1 -18t-1 -18q-14 -45 -55 -45q-37 0 -47.5 26.5t-10.5 54.5z" />
<glyph unicode="&#xa1;" horiz-adv-x="464" d="M174 86q0 25 4 51.5t8 52.5l95 891q2 14 6 55.5t8 85.5t10 80.5t10 45.5q8 12 35 19t45 7q29 0 46.5 -16t17.5 -39q0 -27 -3 -52.5t-7 -52.5l-93 -892q-2 -14 -6 -54.5t-9 -85.5t-10 -82t-9 -43q-18 -29 -60 -28q-35 0 -61.5 17t-26.5 40zM350 1608q0 35 19.5 54t54.5 19 t54.5 -19t19.5 -54t-19.5 -55.5t-54.5 -20.5t-54.5 20.5t-19.5 55.5z" />
<glyph unicode="&#xa2;" horiz-adv-x="686" d="M14 997q0 78 21.5 147.5t60.5 125t95.5 91.5t123.5 46v43v58v97.5t1 92.5t3 47q10 16 21.5 27.5t32.5 11.5q23 0 40 -17.5t17 -40.5v-166.5t-2 -166.5q18 -8 36.5 -23.5t34 -35t26 -42t10.5 -43.5q0 -23 -17.5 -39t-40.5 -16t-33 9t-16 24q-2 -123 -3 -246t-1 -246 q43 10 68.5 34t43 47.5t33 40.5t37.5 17q23 0 40.5 -17t17.5 -40q0 -16 -13.5 -36.5t-23.5 -32.5q-43 -53 -92.5 -85t-110.5 -42v-5v-58v-96t-1 -92t-3 -48q-10 -16 -21.5 -27.5t-31.5 -11.5q-23 0 -39.5 17t-16.5 40v281q-135 18 -216 120.5t-81 255.5zM158 965 q0 -39 8 -76t26.5 -69t48 -54.5t72.5 -30.5q0 139 1 277.5t1 277.5q-41 -12 -70.5 -49t-49 -84t-28.5 -99t-9 -93z" />
<glyph unicode="&#xa3;" horiz-adv-x="978" d="M57 813q0 18 11.5 31.5t27.5 21.5q6 2 54.5 3t113.5 3q-8 47 -21.5 92.5t-25.5 89.5t-20.5 88t-8.5 93q0 68 18.5 143.5t56.5 141t94.5 108.5t131.5 43q53 0 100.5 -20.5t83.5 -56t56.5 -83t20.5 -100.5q0 -23 -17.5 -39t-40.5 -16t-33 16.5t-14 41t-9 53t-19.5 53 t-43 41t-81.5 16.5q-45 0 -76 -38t-49.5 -91t-25.5 -111.5t-7 -101.5q0 -92 22.5 -178t38.5 -183h168q23 0 40.5 -17t17.5 -40q0 -18 -11.5 -31.5t-27.5 -21.5q-4 -2 -55.5 -3t-118.5 -1q0 -59 -3.5 -120.5t-21.5 -119.5q111 4 217.5 4h216.5q23 0 40 -17.5t17 -39.5 q0 -20 -11 -32.5t-27 -20.5q-4 -2 -44 -3t-100.5 -2t-131.5 -1t-134.5 -1t-112.5 -1h-65q-23 0 -34 17t-11 40q0 18 5 31.5t21 21.5l15 2q23 18 31 46t8 58.5t-3.5 62.5t-3.5 58v15h-161q-23 0 -40.5 16.5t-17.5 38.5z" />
<glyph unicode="&#xa4;" horiz-adv-x="1290" d="M168 420q0 12 8 29q2 4 21.5 31.5t48 66.5t60.5 83t59 81q-72 61 -114 150t-42 198q0 98 35 183t98 149q-27 35 -55.5 73.5t-52 70.5t-40 55.5t-18.5 27.5q-8 16 -8 29q0 23 17.5 40t39.5 17q18 0 37 -14l18 -22q17 -23 41.5 -56t54.5 -74t56 -78q104 63 240 64q6 2 16 2 q57 0 113.5 -20.5t103.5 -49.5q27 37 56.5 78t55 76t43.5 58l17 22q18 14 37 14q23 0 40 -17.5t17 -39.5q0 -12 -8 -29q-2 -4 -18.5 -28.5t-41 -58.5t-54 -73t-56.5 -76q51 -55 79 -127.5t28 -154.5q0 -96 -38 -190.5t-110 -166.5q25 -35 61 -83t68.5 -93t56 -78.5 t25.5 -39.5q8 -10 8 -29q0 -23 -17 -40.5t-40 -17.5q-18 0 -37 15q-2 2 -25.5 34.5t-57 79t-70.5 96.5t-62 87q-47 -29 -102 -44.5t-117 -15.5q-96 0 -180 37q-27 -37 -61.5 -85t-65.5 -89t-52 -71l-22 -29q-18 -14 -37 -15q-23 0 -40 17.5t-17 40.5zM371 1053 q0 -68 15 -127.5t49 -103.5t85 -69.5t123 -25.5q80 0 135.5 35t91 89t51 120.5t15.5 130.5q0 55 -12.5 107.5t-37 94.5t-64.5 69.5t-95 35.5q-12 -4 -20 -4q-12 0 -24.5 3t-25.5 3q-74 0 -128 -29.5t-88.5 -79t-52 -113.5t-17.5 -136z" />
<glyph unicode="&#xa5;" horiz-adv-x="729" d="M-51 1597q0 23 17.5 40.5t39.5 17.5q18 0 37.5 -15.5t39 -37t36 -44t28.5 -34.5l226 -258l233 260q12 12 28.5 35.5t36 45t40 38t39.5 16.5q23 0 40 -17.5t17 -39.5q0 -10 -25.5 -47t-63.5 -85.5t-83 -101.5t-85 -99t-68.5 -78t-32.5 -38v-115h200q23 0 40.5 -17 t17.5 -40t-17.5 -39t-40.5 -16h-200v-62h200q23 0 40.5 -17.5t17.5 -39.5q0 -23 -17.5 -39t-40.5 -16h-200v-334q0 -23 -28 -40.5t-50 -17.5q-23 0 -49.5 17.5t-26.5 40.5v334h-172q-23 0 -40 16t-17 39t17 40t40 17h172v62h-156q-23 0 -40 16.5t-17 38.5q0 23 17.5 40 t39.5 17h156v115q-12 12 -39 44t-60.5 73t-70.5 86t-69.5 86t-57.5 72.5t-35 44.5q-14 18 -14 36z" />
<glyph unicode="&#xa6;" horiz-adv-x="835" d="M315 -426q0 238 6.5 473.5t10.5 472.5q0 12 10 24.5t24.5 21.5t32 15.5t31.5 6.5q12 0 28.5 -5t32 -12.5t26.5 -17.5t11 -23q0 -238 -7 -473t-11 -473q0 -12 -10.5 -24.5t-24.5 -21.5t-31.5 -15t-31.5 -6q-12 0 -28.5 5t-32 12t-26 17.5t-10.5 22.5zM344 1196 q0 205 3 407.5t7 407.5q0 78 21.5 117t87.5 39q47 0 67.5 -17.5t20.5 -40.5q0 -205 -4 -407.5t-8 -407.5q0 -18 -5.5 -44.5t-15.5 -50t-28.5 -41t-45.5 -17.5q-12 0 -29.5 4t-32.5 12t-26.5 17.5t-11.5 21.5z" />
<glyph unicode="&#xa7;" horiz-adv-x="1013" d="M70 891q0 45 16 85t44 73.5t63.5 61.5t74.5 46q-41 41 -66.5 93.5t-25.5 121.5q0 96 48 173t120 130.5t158 82t160 28.5q72 0 133 -24.5t106 -65.5t71.5 -97.5t26.5 -119.5q0 -23 -17 -39.5t-40 -16.5q-45 0 -63.5 21.5t-24.5 52.5q-14 70 -62.5 123t-138.5 53 q-49 0 -96 -17.5t-86 -50t-62.5 -81.5t-23.5 -111q0 -88 46 -144.5t116.5 -96t151.5 -71.5t152 -69t117 -88t46 -131q0 -86 -51.5 -151.5t-116.5 -100.5q66 -72 65 -174q0 -80 -36.5 -154.5t-98 -131t-140.5 -91.5t-161 -35q-80 0 -151.5 28t-125 78t-84 118.5t-30.5 150.5 q0 23 29.5 43.5t52.5 20.5q39 0 53 -39q10 -23 9 -51.5t8 -53.5q27 -84 91 -133t148 -49q59 0 106.5 23.5t80 62.5t51 86t18.5 92q0 80 -49 128t-123 82t-159 59.5t-158.5 59.5t-122.5 82t-49 128zM246 930q0 -57 49 -94t124 -67t161 -57.5t159 -68.5q37 6 70 23.5t33 74.5 q0 66 -45 111t-114 81t-150.5 68.5t-155.5 75.5q-2 0 -3 -1t-3 -1q-53 -12 -89 -54t-36 -91z" />
<glyph unicode="&#xa8;" horiz-adv-x="473" d="M78 1212q0 29 16.5 45.5t44.5 16.5q29 0 45.5 -16.5t16.5 -45.5t-16.5 -45t-45.5 -16t-45 16t-16 45zM283 1212q0 29 16 45.5t45 16.5t45.5 -16.5t16.5 -45.5t-16.5 -45t-45.5 -16t-45 16t-16 45z" />
<glyph unicode="&#xa9;" horiz-adv-x="1607" d="M160 696q0 147 46 286.5t132 247t210 173t277 65.5h25.5t32.5 -2q12 6 26 7q66 0 131.5 -16.5t124.5 -43.5q186 -86 282.5 -244.5t96.5 -373.5q0 -152 -48 -297.5t-139 -260t-224.5 -184t-303.5 -69.5q-156 0 -280.5 56t-210.5 153.5t-132 226.5t-46 276zM346 678 q0 -123 25.5 -228.5t83 -184.5t149.5 -123t225 -44q147 0 249 62.5t165.5 164t92 231.5t28.5 263q0 98 -16.5 182t-54.5 151t-101.5 115t-157.5 74q-14 4 -28.5 7.5t-28.5 5.5q-14 -10 -33 -11q-10 0 -22.5 2.5l-22.5 4.5q-37 6 -74 6q-131 0 -222 -59.5t-148.5 -156 t-83 -217t-25.5 -245.5zM489 702q0 90 21.5 173t67 147.5t115 103.5t165.5 39q63 0 117.5 -22.5t91.5 -75.5q8 -10 14 -20.5t6 -24.5q0 -23 -17 -39t-40 -16t-34 13t-26.5 29.5t-40 30t-71.5 13.5q-53 0 -93 -31t-66.5 -80t-40 -112.5t-13.5 -129.5q0 -51 8.5 -104t28.5 -97 t54 -72t85 -28q25 0 54.5 5.5t57.5 17.5t49.5 31.5t29.5 46.5q4 10 3 20t3 21q4 20 18.5 33.5t36.5 13.5q23 0 40 -17.5t17 -40.5q0 -59 -28.5 -104t-73.5 -76t-99.5 -47t-107.5 -16q-92 0 -155.5 35.5t-102.5 94t-56.5 133.5t-17.5 152z" />
<glyph unicode="&#xaa;" horiz-adv-x="700" d="M70 1473q0 106 67.5 168.5t165.5 62.5q43 0 83 -17.5t69 -48.5q12 4 24 4q16 0 28.5 -12t12.5 -28q0 -14 -8 -23.5t-18 -17.5q-2 -10 -3.5 -30t-2.5 -41.5t-1 -40.5v-30v-23.5t3.5 -30.5t10.5 -25.5t21 -10.5q25 0 52.5 19.5t39.5 40.5q4 6 7.5 12t9.5 10q10 10 26 10 t28.5 -12t12.5 -29q0 -10 -7 -21t-13 -22q-27 -35 -68 -62.5t-88 -27.5q-37 0 -59.5 16.5t-34.5 41t-17 55.5t-5 59v84q-16 -25 -41 -61.5t-54.5 -70.5t-62.5 -58.5t-64 -24.5q-43 0 -78.5 52.5t-35.5 132.5zM129 1139q0 27 27 39q2 2 31.5 3t74.5 1t97.5 1t99.5 1h84h49 q16 0 28.5 -12.5t12.5 -28.5q0 -25 -27 -39q-2 -2 -31.5 -3t-74.5 -1t-97.5 -1t-99.5 -1h-84h-49q-16 0 -28.5 12t-12.5 29zM172 1460q0 -6 1 -21.5t6 -30.5t14.5 -26.5t25.5 -11.5q27 0 51.5 25.5t46 59.5t37 65.5t23.5 42.5q4 4 16.5 18t16.5 18q-14 16 -42 29.5t-63 13.5 q-31 0 -55.5 -16t-42 -41.5t-26.5 -58.5t-9 -66z" />
<glyph unicode="&#xab;" horiz-adv-x="679" d="M68 1022q0 16 6 29q2 2 16 18t35.5 40t48.5 52.5t49.5 52t37.5 41t20 19.5q18 14 36 14q23 0 40.5 -17.5t17.5 -39.5q0 -12 -8 -29q-4 -8 -27 -33.5t-50.5 -53.5t-53 -53.5t-35.5 -37.5q10 -10 32.5 -31.5t47 -46t44 -45t23.5 -29.5q8 -16 8 -28q0 -23 -17 -39.5 t-40 -16.5q-20 0 -37 13q-25 18 -44 41.5t-42 46.5q-23 25 -49.5 47t-46.5 49q-12 17 -12 37zM307 1022q0 16 6 29q2 2 16.5 18t36 40t48 52.5t49 52t38 41t19.5 19.5q18 14 37 14q23 0 40 -17.5t17 -39.5q0 -12 -8 -29q-4 -8 -26.5 -33.5t-50 -53.5t-53 -53.5t-36.5 -37.5 q10 -10 33 -31.5t47.5 -46t44 -45t23.5 -29.5q8 -16 8 -28q0 -23 -17.5 -39.5t-39.5 -16.5q-20 0 -37 13q-25 18 -44.5 41.5t-41.5 46.5q-23 25 -49.5 47t-47.5 49q-12 17 -12 37z" />
<glyph unicode="&#xac;" horiz-adv-x="765" d="M49 838q0 39 37 53q4 2 44 3t98.5 2t128 2t132 1h110.5h65q23 0 52 -17.5t29 -39.5v-250q0 -23 -29.5 -39t-51.5 -16q-27 0 -39.5 15t-16.5 36.5t-3 46t1 41.5q0 29 1 54.5t1 53.5q-127 -2 -252 -2h-252q-23 0 -39 16.5t-16 39.5z" />
<glyph unicode="&#xad;" horiz-adv-x="673" d="M195 731q0 23 6 42.5t28 19.5h351q23 0 30.5 -14.5t7.5 -37.5t-8 -42t-30 -19h-351q-23 0 -28.5 14.5t-5.5 36.5z" />
<glyph unicode="&#xae;" horiz-adv-x="1574" d="M160 707q0 143 46 280t132 243.5t210 172t277 65.5h25.5t32.5 -2q12 6 26 7q66 0 131.5 -16.5t124.5 -43.5q186 -86 282.5 -242.5t96.5 -359.5q0 -158 -48 -306.5t-139 -264t-224.5 -186t-303.5 -70.5q-156 0 -280.5 56t-210.5 154.5t-132 230.5t-46 282zM354 700 q0 -127 24.5 -236.5t80 -191.5t146.5 -128t224 -46q147 0 247 56.5t161 150.5t88 218t27 257q0 98 -14.5 188.5t-50.5 164t-97.5 128t-155.5 80.5q-14 4 -28.5 7.5t-28.5 5.5q-14 -10 -33 -11q-10 0 -22.5 2.5l-22.5 4.5q-37 6 -74 6q-131 0 -221 -57.5t-145.5 -149.5 t-80 -210t-24.5 -239zM475 926q0 25 16.5 47t39 39.5t49 30t47.5 16.5q0 10 1 15t1 7q8 16 29.5 27.5t41.5 11.5q23 0 38.5 -14t19.5 -37q55 0 122.5 -9t126 -35t98.5 -71t40 -118q0 -53 -23.5 -94.5t-61.5 -72t-84 -54t-93 -40.5q61 -51 124.5 -93t104.5 -54 q4 12 20.5 21.5t28.5 9.5q23 0 40.5 -17.5t17.5 -40.5q0 -41 -29 -65.5t-84 -24.5q-51 0 -95 20.5t-85 52.5t-82 71t-86 77l-15 -2q-4 -66 -5 -108.5t-3 -46.5q-8 -16 -29.5 -26.5t-41.5 -10.5q-23 0 -39.5 16.5t-16.5 38.5q0 23 1 101.5t5 177.5q-16 18 -32.5 39.5 t-16.5 40.5q0 23 15.5 39t37.5 18q0 35 1.5 67.5t1.5 61.5q-8 -2 -17 -10q-20 -16 -30.5 -37t-43.5 -21q-23 0 -39 16.5t-16 39.5zM752 711q20 -25 49 -47q31 6 61.5 22t56 40t41 53.5t15.5 64.5q0 39 -23.5 61.5t-57.5 33.5t-72 14t-66 3q-2 -51 -3 -114t-1 -131z" />
<glyph unicode="&#xaf;" horiz-adv-x="581" d="M49 1159q0 37 37 53q6 2 52 4.5t103.5 3.5t113 1h79.5q35 0 65.5 -10.5t30.5 -49.5q0 -18 -11 -31.5t-27 -21.5q-6 -2 -52.5 -4t-103.5 -3t-112.5 -1h-80.5q-35 0 -64.5 10t-29.5 49z" />
<glyph unicode="&#xb0;" horiz-adv-x="358" d="M10 1511q0 33 12.5 65t35 56.5t52 39t64.5 14.5q33 0 47 -15q63 -2 93 -47t30 -104q0 -74 -50 -121t-122 -47q-70 0 -116 44.5t-46 114.5zM92 1511q0 -35 22.5 -56t57.5 -21q39 0 64.5 22.5t25.5 63.5q0 35 -8 48t-18.5 17t-22.5 5t-23 12h-20h-10q-31 -8 -49.5 -34 t-18.5 -57z" />
<glyph unicode="&#xb1;" horiz-adv-x="888" d="M84 578q0 23 16.5 40t38.5 17q33 0 66 -2t65 -2q82 0 162 1t162 1q10 0 24.5 1t30.5 1q35 0 67 -10.5t32 -49.5q0 -23 -17.5 -39t-40.5 -16q-104 0 -209.5 -1t-210.5 -1h-30.5t-47 1t-45 2t-26.5 3q-37 14 -37 54zM84 1026q0 23 16.5 40t38.5 17q33 0 55.5 -2t55.5 -2h80 v117q0 18 2 44t9 50.5t23.5 42t43.5 17.5q23 0 49 -17.5t26 -40.5v-105t2 -106h109q10 0 24.5 1t30.5 1q35 0 67 -10t32 -49q0 -23 -17.5 -39t-40.5 -16h-102t-103 -2v-95v-30.5t-1 -47t-2 -45t-3 -26.5q-6 -16 -31.5 -26.5t-41.5 -10.5q-23 0 -50.5 16.5t-27.5 38.5 q0 33 2 66t2 65v95h-82h-27.5t-40 1t-38 2t-23.5 3q-37 14 -37 53z" />
<glyph unicode="&#xb2;" horiz-adv-x="514" d="M76 1796q0 31 24.5 56.5t59.5 45t72.5 30.5t62.5 11q41 0 83 -12t75.5 -36.5t55 -64.5t21.5 -95q0 -84 -45 -149.5t-103 -118t-115.5 -94.5t-80.5 -81h283q14 0 20.5 -15.5t6.5 -25.5t-6.5 -25.5t-20.5 -15.5h-352q-18 0 -23 21q-12 12 -12 28q0 45 52 100.5t114.5 117 t115 126t52.5 127.5q0 49 -34 90.5t-87 41.5q-43 0 -70.5 -16.5t-46 -35t-33 -35t-28.5 -16.5q-16 0 -28.5 12.5t-12.5 28.5z" />
<glyph unicode="&#xb3;" horiz-adv-x="536" d="M80 1337q0 16 12.5 28.5t28.5 12.5q12 0 26.5 -15t35 -33.5t50 -34t70.5 -15.5q57 0 92 38t35 95q0 43 -18.5 66.5t-48 35t-64.5 13.5t-68 2q-16 0 -28.5 12t-12.5 29q0 16 7.5 31.5t23.5 21.5q18 8 52 11t67 12.5t57.5 30t24.5 63.5q0 49 -32 73.5t-75 24.5 q-45 0 -74.5 -15.5t-49 -35t-33 -34.5t-27.5 -15q-16 0 -28.5 12t-12.5 29q0 31 25.5 57.5t61.5 45t75 28.5t63 10q39 0 78 -6t71 -23.5t52.5 -47t20.5 -77.5q0 -43 -16.5 -71.5t-41 -48t-52.5 -32.5t-50 -26q27 -12 57.5 -24.5t56 -30.5t42 -46t16.5 -71q0 -49 -21.5 -89 t-56.5 -68.5t-79 -45t-89 -16.5q-25 0 -63.5 10.5t-73.5 28.5t-60.5 44t-25.5 56z" />
<glyph unicode="&#xb4;" horiz-adv-x="428" d="M131 1151q4 12 18.5 24.5t33 28t36 37t25.5 49.5q4 20 15 33.5t30 13.5q8 0 14 -2q25 -8 30 -27.5t-1 -41.5q-14 -45 -33 -72q-10 -14 -25.5 -31.5t-34 -33t-38 -25.5t-37.5 -10q-18 6 -28.5 22.5t-4.5 34.5z" />
<glyph unicode="&#xb5;" horiz-adv-x="958" d="M53 195q0 20 6.5 39.5t10.5 39.5q37 176 64.5 329t53 265.5t50 178t55.5 65.5q12 0 28.5 -5t32 -12.5t26.5 -17.5t11 -22q0 -20 -6 -40t-10 -40q-23 -98 -39.5 -185.5t-16.5 -185.5q0 -18 3.5 -53t12.5 -70t26.5 -61.5t46.5 -26.5q31 0 61.5 31t61 79t58 106.5 t50.5 115.5t40 106.5t26 75.5q4 12 11 41t16 59.5t16.5 55t11.5 31.5q23 29 49 28q12 0 28.5 -5t32 -12t26.5 -17.5t11 -22.5q0 -39 -10 -75t-18 -72q-16 -88 -28.5 -176.5t-12.5 -178.5q0 -10 1 -30.5t4 -42t9 -39t16 -21.5q23 -10 40.5 -17t17.5 -40q0 -23 -33 -47.5 t-68 -24.5q-49 0 -78.5 20.5t-45 54.5t-20.5 75t-5 81.5t2 77.5t2 60q-20 -39 -47 -105.5t-64 -129t-84 -108.5t-110 -46q-51 0 -85 30.5t-38 79.5q-4 -20 -11.5 -62t-17.5 -85t-27.5 -75t-43.5 -32q-12 0 -29 5t-32 12.5t-26.5 18t-11.5 22.5z" />
<glyph unicode="&#xb6;" horiz-adv-x="1290" d="M18 1184q0 139 63.5 251.5t167 194.5t231.5 126t257 44q25 0 50.5 -1t54.5 -3q0 31 2 33q8 16 22.5 27.5t46.5 11.5q57 0 80 -30t23 -60q20 -4 54 -17.5t65.5 -34t54 -46t22.5 -54.5q0 -23 -17 -39t-40 -16q-16 0 -33.5 11t-36 24.5t-36 27t-35.5 17.5q-2 -78 -3 -148.5 t-3 -148.5l-13 -588l-4 -328v-76.5t-1 -124t-3 -117.5t-4 -59q-4 -8 -18.5 -15t-33 -12t-35.5 -8t-28 -3q-23 0 -39 17t-16 40q0 115 2 228.5t4 228.5l17 915v89t2 140q-55 6 -111 7q-2 -104 -5 -208t-7 -208l-21 -897q0 -16 -1 -73.5t-3 -121t-4 -115t-4 -57.5 q-8 -16 -22.5 -27.5t-47.5 -11.5q-41 0 -60.5 17.5t-19.5 40.5q0 113 3.5 224t7.5 224l6 234q-102 14 -198.5 45.5t-170.5 89t-118 140.5t-44 200z" />
<glyph unicode="&#xb7;" horiz-adv-x="548" d="M201 717q0 35 19.5 54.5t53.5 19.5q35 0 54.5 -19.5t19.5 -54.5t-19.5 -54.5t-54.5 -19.5t-54 19.5t-19 54.5z" />
<glyph unicode="&#xb8;" horiz-adv-x="415" d="M53 -317q0 18 13.5 31.5t31.5 13.5q14 0 29.5 -10.5t15.5 -26.5q10 -10 31 -15.5t37 -5.5q47 0 75.5 33t28.5 80t-33.5 65.5t-75.5 29.5t-76 23.5t-34 45.5q0 4 9.5 30.5t20.5 57.5t22.5 56.5t13.5 27.5q18 18 35 18q18 0 32.5 -14t14.5 -33q0 -6 -5.5 -21.5t-13.5 -34 t-14 -34.5t-10 -25q41 -12 77.5 -24t65.5 -33.5t46.5 -53.5t17.5 -81q0 -43 -14.5 -80t-41 -64.5t-62.5 -44t-79 -16.5q-23 0 -50.5 6t-51 18.5t-40 32t-16.5 48.5z" />
<glyph unicode="&#xb9;" horiz-adv-x="446" d="M168 1804q0 10 15.5 32t37 44.5t42 39.5t28.5 17t20.5 -1t23.5 -4t19 -11t8 -25q0 -160 -3 -318.5t-3 -317.5q0 -18 -14 -33t-43 -15t-42 12.5t-13 28.5v336v96.5t2 98.5q-16 -20 -37 -21q-16 0 -28.5 12.5t-12.5 28.5z" />
<glyph unicode="&#xba;" horiz-adv-x="634" d="M68 1153q0 27 26 39q2 2 33 2t75 1t96 2t100 1h84h48q16 0 28.5 -12t12.5 -29q0 -25 -26 -39q-2 0 -33 -1t-75 -2t-96 -1t-100 -1t-84 -1h-48q-16 0 -28.5 12.5t-12.5 28.5zM92 1485q0 86 37 150.5t102 80.5q39 23 84 23q55 0 92 -22.5t59.5 -58.5t33 -81t10.5 -92v-20.5 t-2 -20.5q18 -2 39.5 -2t30.5 -4q27 -10 26 -39q0 -16 -12 -28.5t-29 -12.5q-39 0 -80 6q-25 -53 -70.5 -85t-111.5 -32q-51 0 -90 21.5t-65.5 55.5t-40 76t-13.5 85zM190 1462q0 -27 6.5 -54.5t19.5 -51t33.5 -38.5t49.5 -15q41 0 72.5 27.5t48.5 53.5q-2 0 -4 1t-4 1 q-53 20 -109.5 59.5t-87.5 92.5q-25 -20 -25 -76zM262 1626q0 -27 17.5 -52.5t45 -47t59.5 -39t60 -27.5q2 8 2 23q0 102 -26.5 145t-97.5 43q-4 0 -14.5 -7t-16.5 -9q-8 -10 -25 -15q-4 -8 -4 -14z" />
<glyph unicode="&#xbb;" horiz-adv-x="669" d="M66 844q0 12 8 28q4 10 26.5 35t50 52.5l53 53t36.5 38.5q-8 10 -32 31.5t-48.5 46t-44 45t-23.5 28.5q-8 16 -8 29q0 23 17.5 39t39.5 16q23 0 37 -12q25 -18 44.5 -42t41.5 -46q23 -25 49.5 -47.5t46.5 -48.5q13 -14 13 -37q0 -16 -6 -29q-2 -2 -33 -36t-68 -75 t-69.5 -74.5t-36.5 -37.5q-18 -14 -37 -15q-23 0 -40 17.5t-17 40.5zM305 844q0 12 8 28q4 10 26.5 35t50.5 52.5t53.5 53t35.5 38.5q-8 10 -31.5 31.5t-48 46t-44 45t-23.5 28.5q-8 16 -8 29q0 23 17 39t40 16t37 -12q25 -18 44 -42t42 -46q23 -25 49.5 -47.5t46.5 -48.5 q12 -14 12 -37q0 -16 -6 -29q-2 -2 -32.5 -36t-67.5 -75t-70 -74.5t-37 -37.5q-18 -14 -37 -15q-23 0 -40 17.5t-17 40.5z" />
<glyph unicode="&#xbc;" horiz-adv-x="1421" d="M154 80q0 10 35.5 76.5t95 171t136.5 234.5t156.5 267.5t158.5 269.5t143.5 239.5t107.5 179.5t51 88q8 14 18.5 35.5t26 42t37 36t49.5 15.5q31 0 63 -17.5t32 -40.5q0 -8 -36 -74.5t-96.5 -171t-136 -235.5t-156.5 -268t-160 -270.5t-143.5 -241t-107.5 -179t-51 -85.5 t-18.5 -36t-23.5 -42.5t-29.5 -35.5t-37.5 -15q-10 0 -29.5 5t-38 12t-32.5 17.5t-14 22.5zM166 1579q0 10 15.5 31.5t37 44t42 40t28.5 17.5t20.5 -1t23.5 -4t19 -11t8 -25q0 -160 -3 -318.5t-3 -318.5q0 -18 -14 -32.5t-43 -14.5t-42 12.5t-13 28.5v336v96t2 99 q-16 -20 -37 -21q-16 0 -28.5 12.5t-12.5 28.5zM872 438q0 8 21.5 40t55.5 75t74 92t76 91t62.5 72t32.5 34q14 10 27 10q16 0 42.5 -12.5t26.5 -28.5q0 -78 -3 -153.5t-3 -153.5v-23q16 -2 25.5 -2t13.5 -2q27 -10 27 -39q0 -16 -12.5 -37.5t-28.5 -21.5h-25q0 -14 1 -51 t1 -78t-1 -74t-3 -39q-4 -12 -28.5 -14t-39.5 -2q-16 0 -24 24.5t-12 56t-5.5 64.5t-1.5 49v64h-258q-16 0 -28.5 21.5t-12.5 37.5zM1004 479q16 0 65 1t102 1q0 53 1.5 103.5t3.5 103.5q-43 -53 -85 -105.5t-87 -103.5z" />
<glyph unicode="&#xbd;" horiz-adv-x="1454" d="M154 80q0 10 35.5 76.5t95 171t136.5 234.5t156.5 267.5t158.5 269.5t143.5 239.5t107.5 179t51 88.5q8 14 18.5 35.5t26 42t37 36t49.5 15.5q31 0 63 -17.5t32 -40.5q0 -8 -36 -74.5t-96.5 -171t-136 -235.5t-156.5 -268t-160 -270.5t-143.5 -241t-107.5 -179t-51 -85.5 t-18.5 -36t-23.5 -42.5t-29.5 -35.5t-37.5 -15q-10 0 -29.5 5t-38 12t-32.5 17.5t-14 22.5zM166 1579q0 10 15.5 31.5t37 44t42 40t28.5 17.5t20.5 -1t23.5 -4t19 -11t8 -25q0 -160 -3 -318.5t-3 -318.5q0 -18 -14 -32.5t-43 -14.5t-42 12.5t-13 28.5v336v96.5t2 98.5 q-16 -20 -37 -21q-16 0 -28.5 12.5t-12.5 28.5zM971 674q0 31 24.5 56.5t59.5 45t72.5 30.5t62.5 11q41 0 83 -12t75.5 -37t55 -64.5t21.5 -95.5q0 -84 -45 -149.5t-103 -117.5t-115.5 -94t-80.5 -81h283q14 0 20.5 -15.5t6.5 -25.5t-6.5 -25.5t-20.5 -15.5h-352 q-18 0 -23 20q-12 12 -12 29q0 45 52 100.5t114.5 117t115 126t52.5 127.5q0 49 -34 90t-87 41q-43 0 -70.5 -16.5t-46 -34.5t-33 -34.5t-28.5 -16.5q-16 0 -28.5 12t-12.5 29z" />
<glyph unicode="&#xbe;" horiz-adv-x="1374" d="M117 1106q0 16 12.5 28.5t28.5 12.5q12 0 26.5 -15.5t35 -34t50 -33.5t70.5 -15q57 0 92 37.5t35 95.5q0 43 -18.5 66.5t-48 34.5t-64.5 13t-68 2q-16 0 -28.5 12.5t-12.5 28.5t7.5 31.5t23.5 22.5q18 8 52 11t67 12t57.5 29.5t24.5 63.5q0 49 -32 74t-75 25 q-45 0 -74.5 -15.5t-49 -35t-33 -35t-27.5 -15.5q-16 0 -28.5 12.5t-12.5 28.5q0 31 25.5 57.5t61.5 45t75 29t63 10.5q39 0 78 -6.5t70.5 -24t52 -47t20.5 -76.5q0 -43 -16 -71.5t-40.5 -48t-52.5 -33t-50 -25.5q27 -12 57.5 -24.5t56 -31t42 -46t16.5 -70.5 q0 -49 -21.5 -89t-56.5 -69t-79 -45t-89 -16q-25 0 -63.5 10t-73.5 28.5t-60.5 44t-25.5 56.5zM154 80q0 10 35.5 76.5t95 171t136.5 234.5t156.5 267.5t158.5 269.5t143.5 239.5t107.5 179.5t51 88q8 14 18.5 35.5t26 42t37 36t49.5 15.5q31 0 63 -17.5t32 -40.5 q0 -8 -36 -74.5t-96.5 -171t-136 -235.5t-156.5 -268t-160 -270.5t-143.5 -241t-107.5 -179t-51 -85.5t-18.5 -36t-23.5 -42.5t-29.5 -35.5t-37.5 -15q-10 0 -29.5 5t-38 12t-32.5 17.5t-14 22.5zM872 438q0 8 21.5 40t55.5 75t74 92t76 91t62.5 72t32.5 34q14 10 27 10 q16 0 42.5 -12.5t26.5 -28.5q0 -78 -3 -153.5t-3 -153.5v-23q16 -2 25.5 -2t13.5 -2q27 -10 27 -39q0 -16 -12.5 -37.5t-28.5 -21.5h-25q0 -14 1 -51t1 -78t-1 -74t-3 -39q-4 -12 -28.5 -14t-39.5 -2q-16 0 -24 24.5t-12 56t-5.5 64.5t-1.5 49v64h-258q-16 0 -28.5 21.5 t-12.5 37.5zM1004 479q16 0 65 1t102 1q0 53 1.5 103.5t3.5 103.5q-43 -53 -85 -105.5t-87 -103.5z" />
<glyph unicode="&#xbf;" horiz-adv-x="946" d="M123 389q0 129 42 214t106.5 146.5t138 108.5t138 98.5t106.5 117t42 163.5q0 51 54 51q23 0 41 -10t18 -33q0 -133 -38 -219t-94 -146.5t-122 -108.5t-122 -104.5t-94 -132t-38 -192.5q0 -39 7 -89t29.5 -95t66.5 -77t118 -32q90 0 176 48t136 126q12 18 20 41t25 39 q10 10 19 11t24 1q23 0 39 -12t16 -35q0 -18 -13.5 -43.5t-23.5 -42.5q-70 -113 -179.5 -179t-242.5 -66q-96 0 -170 34.5t-124 96t-75.5 144.5t-25.5 177zM700 1587q0 35 19.5 55.5t54.5 20.5t54.5 -20.5t19.5 -55.5t-19.5 -54.5t-54.5 -19.5t-54.5 19.5t-19.5 54.5z" />
<glyph unicode="&#xc0;" d="M88 -37q0 18 15.5 88t40 167t55 212t61.5 225h-16q-29 0 -44.5 12.5t-15.5 49.5t17 47q2 2 21.5 2t51.5 4h17q31 111 54.5 192.5t33.5 112.5q37 121 79 240t83 205q12 27 23 49t25.5 39.5t34 27t50.5 9.5q61 0 102 -32t58 -63q29 -59 59.5 -158.5t60 -219t57 -252 t53.5 -257t45 -233t34 -180.5l12 -54t17.5 -73t16.5 -68.5t7 -44.5q0 -23 -40 -39t-93 -16q-35 0 -50.5 7t-25.5 20q-6 8 -17.5 55t-22.5 103.5t-21.5 108.5t-14.5 70q-12 63 -28.5 155.5t-36.5 201.5q-61 -2 -134 -5t-141.5 -5t-124 -4.5t-79.5 -2.5q-35 -137 -61.5 -251.5 t-43.5 -182.5q-2 -12 -12 -56t-22.5 -91t-21.5 -87t-13 -44q-10 -12 -21.5 -14.5t-28.5 -2.5q-23 0 -39 8.5t-16 24.5zM397 774q49 2 104.5 4t113 4t111.5 4t99 2q-20 109 -41.5 218.5t-45 208t-49 180.5t-50.5 131q-25 -41 -55.5 -121t-62.5 -181.5t-63.5 -217 t-60.5 -232.5zM501 2090q5 19 31 28q6 2 15 2q18 0 29.5 -13.5t15.5 -33.5q8 -29 25.5 -50.5t36 -37t32.5 -27.5t19 -25q4 -18 -6.5 -34.5t-26.5 -22.5q-2 0 -4 -1t-4 -1q-23 0 -48.5 18.5t-48 45t-40 57t-23.5 53.5q-8 23 -3 42z" />
<glyph unicode="&#xc1;" d="M88 -37q0 18 15.5 88t40 167t55 212t61.5 225h-16q-29 0 -44.5 12.5t-15.5 49.5t17 47q2 2 21.5 2t51.5 4h17q31 111 54.5 192.5t33.5 112.5q37 121 79 240t83 205q12 27 23 49t25.5 39.5t34 27t50.5 9.5q61 0 102 -32t58 -63q29 -59 59.5 -158.5t60 -219t57 -252 t53.5 -257t45 -233t34 -180.5l12 -54t17.5 -73t16.5 -68.5t7 -44.5q0 -23 -40 -39t-93 -16q-35 0 -50.5 7t-25.5 20q-6 8 -17.5 55t-22.5 103.5t-21.5 108.5t-14.5 70q-12 63 -28.5 155.5t-36.5 201.5q-61 -2 -134 -5t-141.5 -5t-124 -4.5t-79.5 -2.5q-35 -137 -61.5 -251.5 t-43.5 -182.5q-2 -12 -12 -56t-22.5 -91t-21.5 -87t-13 -44q-10 -12 -21.5 -14.5t-28.5 -2.5q-23 0 -39 8.5t-16 24.5zM397 774q49 2 104.5 4t113 4t111.5 4t99 2q-20 109 -41.5 218.5t-45 208t-49 180.5t-50.5 131q-25 -41 -55.5 -121t-62.5 -181.5t-63.5 -217 t-60.5 -232.5zM502 1913q4 12 18.5 24.5t32.5 27.5t35.5 36.5t25.5 50.5q4 20 15.5 33.5t29.5 13.5q8 0 15 -2q25 -8 30 -27.5t-2 -41.5q-14 -45 -32 -72q-10 -14 -25.5 -31.5t-34 -33t-38 -26t-37.5 -10.5q-18 6 -28.5 22.5t-4.5 35.5z" />
<glyph unicode="&#xc2;" d="M88 -37q0 18 15.5 88t40 167t55 212t61.5 225h-16q-29 0 -44.5 12.5t-15.5 49.5t17 47q2 2 21.5 2t51.5 4h17q31 111 54.5 192.5t33.5 112.5q37 121 79 240t83 205q12 27 23 49t25.5 39.5t34 27t50.5 9.5q61 0 102 -32t58 -63q29 -59 59.5 -158.5t60 -219t57 -252 t53.5 -257t45 -233t34 -180.5l12 -54t17.5 -73t16.5 -68.5t7 -44.5q0 -23 -40 -39t-93 -16q-35 0 -50.5 7t-25.5 20q-6 8 -17.5 55t-22.5 103.5t-21.5 108.5t-14.5 70q-12 63 -28.5 155.5t-36.5 201.5q-61 -2 -134 -5t-141.5 -5t-124 -4.5t-79.5 -2.5q-35 -137 -61.5 -251.5 t-43.5 -182.5q-2 -12 -12 -56t-22.5 -91t-21.5 -87t-13 -44q-10 -12 -21.5 -14.5t-28.5 -2.5q-23 0 -39 8.5t-16 24.5zM397 774q49 2 104.5 4t113 4t111.5 4t99 2q-20 109 -41.5 218.5t-45 208t-49 180.5t-50.5 131q-25 -41 -55.5 -121t-62.5 -181.5t-63.5 -217 t-60.5 -232.5zM436 1919q4 12 18.5 25.5t33 29t36 37t25.5 49.5q10 31 22.5 39t42.5 8q18 0 28.5 -13t16.5 -34q8 -29 25.5 -50t36 -36.5t33 -28t18.5 -24.5q4 -18 -5 -34.5t-28 -22.5q-18 0 -37.5 10t-38 25.5t-34 33t-25.5 31.5q-6 -10 -21.5 -26.5t-33 -33t-35.5 -28.5 t-35 -12q-6 0 -10 2q-18 4 -27.5 20.5t-5.5 32.5z" />
<glyph unicode="&#xc3;" d="M88 -37q0 18 15.5 88t40 167t55 212t61.5 225h-16q-29 0 -44.5 12.5t-15.5 49.5t17 47q2 2 21.5 2t51.5 4h17q31 111 54.5 192.5t33.5 112.5q37 121 79 240t83 205q12 27 23 49t25.5 39.5t34 27t50.5 9.5q61 0 102 -32t58 -63q29 -59 59.5 -158.5t60 -219t57 -252 t53.5 -257t45 -233t34 -180.5l12 -54t17.5 -73t16.5 -68.5t7 -44.5q0 -23 -40 -39t-93 -16q-35 0 -50.5 7t-25.5 20q-6 8 -17.5 55t-22.5 103.5t-21.5 108.5t-14.5 70q-12 63 -28.5 155.5t-36.5 201.5q-61 -2 -134 -5t-141.5 -5t-124 -4.5t-79.5 -2.5q-35 -137 -61.5 -251.5 t-43.5 -182.5q-2 -12 -12 -56t-22.5 -91t-21.5 -87t-13 -44q-10 -12 -21.5 -14.5t-28.5 -2.5q-23 0 -39 8.5t-16 24.5zM317 1958q0 84 43 143.5t136 59.5q59 0 89.5 -21.5t49 -48.5t34 -48.5t40.5 -21.5q37 0 47 17.5t16 39t16.5 39t42.5 17.5q29 0 43.5 -20.5t14.5 -47.5 q0 -74 -50.5 -115.5t-125.5 -41.5q-57 0 -87 21.5t-49.5 46t-35 46t-41.5 21.5q-41 0 -52.5 -22.5t-15.5 -48t-13 -48t-46 -22.5q-23 0 -39.5 16t-16.5 39zM397 774q49 2 104.5 4t113 4t111.5 4t99 2q-20 109 -41.5 218.5t-45 208t-49 180.5t-50.5 131q-25 -41 -55.5 -121 t-62.5 -181.5t-63.5 -217t-60.5 -232.5z" />
<glyph unicode="&#xc4;" d="M88 -37q0 18 15.5 88t40 167t55 212t61.5 225h-16q-29 0 -44.5 12.5t-15.5 49.5t17 47q2 2 21.5 2t51.5 4h17q31 111 54.5 192.5t33.5 112.5q37 121 79 240t83 205q12 27 23 49t25.5 39.5t34 27t50.5 9.5q61 0 102 -32t58 -63q29 -59 59.5 -158.5t60 -219t57 -252 t53.5 -257t45 -233t34 -180.5l12 -54t17.5 -73t16.5 -68.5t7 -44.5q0 -23 -40 -39t-93 -16q-35 0 -50.5 7t-25.5 20q-6 8 -17.5 55t-22.5 103.5t-21.5 108.5t-14.5 70q-12 63 -28.5 155.5t-36.5 201.5q-61 -2 -134 -5t-141.5 -5t-124 -4.5t-79.5 -2.5q-35 -137 -61.5 -251.5 t-43.5 -182.5q-2 -12 -12 -56t-22.5 -91t-21.5 -87t-13 -44q-10 -12 -21.5 -14.5t-28.5 -2.5q-23 0 -39 8.5t-16 24.5zM397 774q49 2 104.5 4t113 4t111.5 4t99 2q-20 109 -41.5 218.5t-45 208t-49 180.5t-50.5 131q-25 -41 -55.5 -121t-62.5 -181.5t-63.5 -217 t-60.5 -232.5zM440 1974q0 29 16.5 45.5t45.5 16.5t45 -16.5t16 -45.5t-16.5 -45t-44.5 -16q-29 0 -45.5 16t-16.5 45zM645 1974q0 29 16.5 45.5t45.5 16.5t45 -16.5t16 -45.5t-16.5 -45t-44.5 -16q-29 0 -45.5 16t-16.5 45z" />
<glyph unicode="&#xc5;" d="M88 -37q0 18 15.5 88t40 167t55 212t61.5 225h-16q-29 0 -44.5 12.5t-15.5 49.5t17 47q2 2 21.5 2t51.5 4h17q31 111 54.5 192.5t33.5 112.5q37 121 79 240t83 205q12 27 23 49t25.5 39.5t34 27t50.5 9.5q61 0 102 -32t58 -63q29 -59 59.5 -158.5t60 -219t57 -252 t53.5 -257t45 -233t34 -180.5l12 -54t17.5 -73t16.5 -68.5t7 -44.5q0 -23 -40 -39t-93 -16q-35 0 -50.5 7t-25.5 20q-6 8 -17.5 55t-22.5 103.5t-21.5 108.5t-14.5 70q-12 63 -28.5 155.5t-36.5 201.5q-61 -2 -134 -5t-141.5 -5t-124 -4.5t-79.5 -2.5q-35 -137 -61.5 -251.5 t-43.5 -182.5q-2 -12 -12 -56t-22.5 -91t-21.5 -87t-13 -44q-10 -12 -21.5 -14.5t-28.5 -2.5q-23 0 -39 8.5t-16 24.5zM397 774q49 2 104.5 4t113 4t111.5 4t99 2q-20 109 -41.5 218.5t-45 208t-49 180.5t-50.5 131q-25 -41 -55.5 -121t-62.5 -181.5t-63.5 -217 t-60.5 -232.5zM451 1954q0 72 52 116t122 44q14 0 33.5 -2.5t37 -9.5t29.5 -18t12 -30q0 -8 -2 -12q23 -23 23 -62q0 -35 -14.5 -67.5t-38 -59t-55 -42t-66.5 -15.5q-66 0 -99.5 49t-33.5 109zM543 1954q0 -18 8 -42t33 -24q33 0 57.5 32t22.5 62q-16 10 -31 16.5t-21 22.5 q-29 -4 -49 -20t-20 -47z" />
<glyph unicode="&#xc6;" horiz-adv-x="1984" d="M88 -37q0 18 15.5 88t40 167t55 212t61.5 225h-16q-29 0 -44.5 12.5t-15.5 49.5t17 47q2 2 21.5 2t51.5 4h17q31 111 54.5 192.5t33.5 112.5q37 121 79 240t83 205q12 27 23 49t25.5 39.5t34 27t50.5 9.5q61 0 102 -32t58 -63q23 -47 46 -118.5t46.5 -159.5t47 -187.5 t46.5 -201.5q8 4 16 4q0 311 25 614q-14 -4 -28.5 -6t-28.5 -2q-23 0 -33 17.5t-10 39.5q0 18 4 30.5t20 21.5q25 12 90 18q4 14 5 23.5t5 13.5q10 16 24.5 27.5t55.5 11.5q49 0 85 -14.5t32 -32.5q0 -4 -1 -6.5t-1 -4.5h8q88 6 179.5 10.5t173 7.5t146 4t97.5 1 q23 0 32 -18.5t9 -40.5q0 -20 -3 -31.5t-19 -20.5q-2 -2 -30 -3t-69 -3t-89 -3t-92 -2t-79 -2t-47 -1q-55 -4 -111.5 -5t-113.5 -5h-6q-16 -154 -22.5 -309.5t-6.5 -309.5l20 2q41 4 74 4h49t74.5 -1t124.5 -2t119 -3t57 -4q16 -8 27.5 -21.5t11.5 -31.5q0 -23 -17.5 -40 t-39.5 -17q-90 0 -178.5 4t-178.5 4h-71.5t-71.5 -2q0 -139 3 -276.5t13 -274.5q2 -25 6.5 -54.5t10.5 -60.5h24q150 0 294.5 8.5t293.5 8.5q23 0 28 -16.5t5 -35.5q0 -20 -8.5 -39.5t-32.5 -19.5q-123 0 -246 -10.5t-248 -10.5q-12 0 -37.5 -1t-58.5 -1v-20q0 -23 -38 -39 t-83 -16q-41 0 -61 16q-10 -2 -19.5 -2h-19.5q-35 0 -50.5 7t-25.5 20q-6 8 -17.5 55t-22.5 103.5t-21.5 108.5t-14.5 70q-12 63 -28.5 155.5t-36.5 201.5q-61 -2 -134 -5t-141.5 -5t-124 -4.5t-79.5 -2.5q-35 -137 -61.5 -251.5t-43.5 -182.5q-2 -12 -12 -56t-22.5 -91 t-21.5 -87t-13 -44q-10 -12 -22 -14.5t-28 -2.5q-23 0 -39 8.5t-16 24.5zM397 774q49 2 104.5 4t113 4t111.5 4t99 2q-20 109 -41.5 218.5t-45 208t-49 180.5t-50.5 131q-25 -41 -55.5 -121t-62.5 -181.5t-63.5 -217t-60.5 -232.5z" />
<glyph unicode="&#xc7;" horiz-adv-x="1210" d="M86 756q0 94 13.5 199.5t43 209t78.5 197.5t120 165.5t166 113.5t218 42q88 0 166 -24.5t135 -73.5t91 -120.5t34 -166.5q0 -23 -17.5 -39t-39.5 -16q-25 0 -40.5 12.5t-24.5 30t-13 37.5t-8 37q-23 111 -102 161t-181 50q-78 0 -138.5 -39t-106.5 -104.5t-76.5 -150.5 t-50 -177t-29 -184.5t-9.5 -172.5q0 -117 18.5 -240.5t63.5 -227t118 -169t179 -65.5q94 0 166 59.5t137 196.5q25 49 48.5 89t72.5 40q23 0 40.5 -17.5t17.5 -39.5q0 -29 -15.5 -64t-27.5 -63q-37 -86 -87.5 -145.5t-111 -96.5t-128 -54.5t-138.5 -17.5q-18 0 -37 1t-37 3 l-8 -20t-6 -14q41 -12 77.5 -24.5t65.5 -34t46 -53.5t17 -81q0 -43 -14 -80t-40.5 -64.5t-62.5 -44t-79 -16.5q-23 0 -50.5 6.5t-51 18.5t-40 31.5t-16.5 48.5q0 18 13.5 31.5t31.5 13.5q14 0 29.5 -10.5t15.5 -26.5q10 -10 30.5 -15.5t37.5 -5.5q47 0 75.5 33t28.5 80 t-33.5 65.5t-75.5 30t-76 23.5t-34 45q0 4 9.5 29.5t19.5 54.5q-115 37 -195 120t-129 193.5t-71.5 237.5t-22.5 252z" />
<glyph unicode="&#xc8;" horiz-adv-x="1105" d="M82 1550q0 18 4 30.5t20 21.5q25 12 91 18q4 14 5 23.5t5 13.5q10 16 24.5 27.5t55.5 11.5q49 0 85 -14.5t31 -32.5q0 -4 -1 -6.5t-1 -4.5h9q88 6 179 10.5t173 7.5t146.5 4t97.5 1q23 0 32 -18.5t9 -40.5q0 -20 -3.5 -31.5t-19.5 -20.5q-2 -2 -29.5 -3t-68.5 -3 t-89.5 -3t-92.5 -2t-78.5 -2t-47.5 -1q-55 -4 -111 -5t-114 -5h-6q-16 -154 -22.5 -309.5t-6.5 -309.5l21 2q41 4 73.5 4h49.5q16 0 74.5 -1t124 -2t118.5 -3t58 -4q16 -8 27 -21.5t11 -31.5q0 -23 -17 -40t-40 -17q-90 0 -178 4t-178 4h-72t-72 -2q0 -139 3.5 -276.5 t13.5 -274.5q2 -25 6 -54.5t10 -60.5h25q150 0 294 8.5t294 8.5q23 0 27.5 -16.5t4.5 -35.5q0 -20 -8 -39.5t-33 -19.5q-123 0 -245.5 -10.5t-247.5 -10.5q-12 0 -38 -1t-58 -1v-20q0 -23 -38 -39t-83 -16q-41 0 -62.5 16t-25.5 57q-29 2 -49.5 5.5t-30.5 7.5 q-16 10 -20.5 21t-4.5 30q0 20 9.5 38.5t33.5 18.5q23 0 47 -6q-6 68 -10 150.5t-7 170t-5 170t-2 148.5q-27 0 -46.5 14.5t-19.5 42.5q0 31 29 49q12 6 37 13q0 311 24 614q-14 -4 -28.5 -6t-28.5 -2q-23 0 -33 17.5t-10 39.5zM452 2090q5 19 31 28q6 2 15 2 q18 0 29.5 -13.5t15.5 -33.5q8 -29 25.5 -50.5t36 -37t32.5 -27.5t18 -25q4 -18 -6 -34.5t-26 -22.5q-2 0 -4.5 -1t-4.5 -1q-23 0 -48 18.5t-47.5 45t-40 57t-23.5 53.5q-8 23 -3 42z" />
<glyph unicode="&#xc9;" horiz-adv-x="1105" d="M82 1550q0 18 4 30.5t20 21.5q25 12 91 18q4 14 5 23.5t5 13.5q10 16 24.5 27.5t55.5 11.5q49 0 85 -14.5t31 -32.5q0 -4 -1 -6.5t-1 -4.5h9q88 6 179 10.5t173 7.5t146.5 4t97.5 1q23 0 32 -18.5t9 -40.5q0 -20 -3.5 -31.5t-19.5 -20.5q-2 -2 -29.5 -3t-68.5 -3 t-89.5 -3t-92.5 -2t-78.5 -2t-47.5 -1q-55 -4 -111 -5t-114 -5h-6q-16 -154 -22.5 -309.5t-6.5 -309.5l21 2q41 4 73.5 4h49.5q16 0 74.5 -1t124 -2t118.5 -3t58 -4q16 -8 27 -21.5t11 -31.5q0 -23 -17 -40t-40 -17q-90 0 -178 4t-178 4h-72t-72 -2q0 -139 3.5 -276.5 t13.5 -274.5q2 -25 6 -54.5t10 -60.5h25q150 0 294 8.5t294 8.5q23 0 27.5 -16.5t4.5 -35.5q0 -20 -8 -39.5t-33 -19.5q-123 0 -245.5 -10.5t-247.5 -10.5q-12 0 -38 -1t-58 -1v-20q0 -23 -38 -39t-83 -16q-41 0 -62.5 16t-25.5 57q-29 2 -49.5 5.5t-30.5 7.5 q-16 10 -20.5 21t-4.5 30q0 20 9.5 38.5t33.5 18.5q23 0 47 -6q-6 68 -10 150.5t-7 170t-5 170t-2 148.5q-27 0 -46.5 14.5t-19.5 42.5q0 31 29 49q12 6 37 13q0 311 24 614q-14 -4 -28.5 -6t-28.5 -2q-23 0 -33 17.5t-10 39.5zM453 1913q4 12 18 24.5t32.5 27.5t36 36.5 t25.5 50.5q4 20 15.5 33.5t29.5 13.5q8 0 15 -2q25 -8 29.5 -27.5t-1.5 -41.5q-14 -45 -32 -72q-10 -14 -25.5 -31.5t-34 -33t-38.5 -26t-38 -10.5q-18 6 -28.5 22.5t-3.5 35.5z" />
<glyph unicode="&#xca;" horiz-adv-x="1105" d="M82 1550q0 18 4 30.5t20 21.5q25 12 91 18q4 14 5 23.5t5 13.5q10 16 24.5 27.5t55.5 11.5q49 0 85 -14.5t31 -32.5q0 -4 -1 -6.5t-1 -4.5h9q88 6 179 10.5t173 7.5t146.5 4t97.5 1q23 0 32 -18.5t9 -40.5q0 -20 -3.5 -31.5t-19.5 -20.5q-2 -2 -29.5 -3t-68.5 -3 t-89.5 -3t-92.5 -2t-78.5 -2t-47.5 -1q-55 -4 -111 -5t-114 -5h-6q-16 -154 -22.5 -309.5t-6.5 -309.5l21 2q41 4 73.5 4h49.5q16 0 74.5 -1t124 -2t118.5 -3t58 -4q16 -8 27 -21.5t11 -31.5q0 -23 -17 -40t-40 -17q-90 0 -178 4t-178 4h-72t-72 -2q0 -139 3.5 -276.5 t13.5 -274.5q2 -25 6 -54.5t10 -60.5h25q150 0 294 8.5t294 8.5q23 0 27.5 -16.5t4.5 -35.5q0 -20 -8 -39.5t-33 -19.5q-123 0 -245.5 -10.5t-247.5 -10.5q-12 0 -38 -1t-58 -1v-20q0 -23 -38 -39t-83 -16q-41 0 -62.5 16t-25.5 57q-29 2 -49.5 5.5t-30.5 7.5 q-16 10 -20.5 21t-4.5 30q0 20 9.5 38.5t33.5 18.5q23 0 47 -6q-6 68 -10 150.5t-7 170t-5 170t-2 148.5q-27 0 -46.5 14.5t-19.5 42.5q0 31 29 49q12 6 37 13q0 311 24 614q-14 -4 -28.5 -6t-28.5 -2q-23 0 -33 17.5t-10 39.5zM385 1919q4 12 18.5 25.5t33 29t35.5 37 t26 49.5q10 31 22 39t43 8q18 0 28.5 -13t16.5 -34q8 -29 25.5 -50t36 -36.5t33 -28t18.5 -24.5q4 -18 -5 -34.5t-28 -22.5q-18 0 -37.5 10t-38 25.5t-34 33t-25.5 31.5q-6 -10 -21.5 -26.5t-33 -33t-36 -28.5t-34.5 -12q-6 0 -10 2q-18 4 -27.5 20.5t-5.5 32.5z" />
<glyph unicode="&#xcb;" horiz-adv-x="1105" d="M82 1550q0 18 4 30.5t20 21.5q25 12 91 18q4 14 5 23.5t5 13.5q10 16 24.5 27.5t55.5 11.5q49 0 85 -14.5t31 -32.5q0 -4 -1 -6.5t-1 -4.5h9q88 6 179 10.5t173 7.5t146.5 4t97.5 1q23 0 32 -18.5t9 -40.5q0 -20 -3.5 -31.5t-19.5 -20.5q-2 -2 -29.5 -3t-68.5 -3 t-89.5 -3t-92.5 -2t-78.5 -2t-47.5 -1q-55 -4 -111 -5t-114 -5h-6q-16 -154 -22.5 -309.5t-6.5 -309.5l21 2q41 4 73.5 4h49.5q16 0 74.5 -1t124 -2t118.5 -3t58 -4q16 -8 27 -21.5t11 -31.5q0 -23 -17 -40t-40 -17q-90 0 -178 4t-178 4h-72t-72 -2q0 -139 3.5 -276.5 t13.5 -274.5q2 -25 6 -54.5t10 -60.5h25q150 0 294 8.5t294 8.5q23 0 27.5 -16.5t4.5 -35.5q0 -20 -8 -39.5t-33 -19.5q-123 0 -245.5 -10.5t-247.5 -10.5q-12 0 -38 -1t-58 -1v-20q0 -23 -38 -39t-83 -16q-41 0 -62.5 16t-25.5 57q-29 2 -49.5 5.5t-30.5 7.5 q-16 10 -20.5 21t-4.5 30q0 20 9.5 38.5t33.5 18.5q23 0 47 -6q-6 68 -10 150.5t-7 170t-5 170t-2 148.5q-27 0 -46.5 14.5t-19.5 42.5q0 31 29 49q12 6 37 13q0 311 24 614q-14 -4 -28.5 -6t-28.5 -2q-23 0 -33 17.5t-10 39.5zM389 1974q0 29 16.5 45.5t45.5 16.5t45 -16.5 t16 -45.5t-16.5 -45t-44.5 -16q-29 0 -45.5 16t-16.5 45zM594 1974q0 29 16.5 45.5t44.5 16.5q29 0 45.5 -16.5t16.5 -45.5t-16.5 -45t-45.5 -16t-45 16t-16 45z" />
<glyph unicode="&#xcc;" horiz-adv-x="694" d="M23 -2q0 18 4 33.5t20 21.5q4 2 21.5 3t39 2t46.5 1h43q-6 53 -11.5 127t-8.5 158t-5 169t-4 161t-2 135v90t2 114t6 182t9 200.5t14 171.5q-27 -2 -53.5 -2h-55.5q-23 0 -31 16t-8 39q0 18 6 33.5t15 19.5q6 2 24.5 3t43 2t50 1h43.5q10 8 23.5 12.5t40.5 4.5 q29 0 54.5 -5t41.5 -14q16 -2 32.5 -2h33.5h32q31 0 58.5 -8t27.5 -45q0 -41 -20 -50t-51 -9q-27 0 -52.5 1t-50.5 1q-20 -164 -27 -329t-7 -327q0 -166 2 -330.5t14 -330.5q4 -41 12 -93.5t15 -99.5h24q12 0 25.5 1t27.5 1q29 0 50.5 -10t21.5 -47q0 -41 -23.5 -49 t-54.5 -8q-35 0 -71.5 1t-71.5 1q-10 -2 -22.5 -3t-22.5 -1q-27 0 -43 6h-14q-43 0 -85 -1t-85 -1q-23 0 -33 15t-10 38zM245 2090q5 19 31 28q6 2 15 2q18 0 29.5 -13.5t15.5 -33.5q8 -29 25.5 -50.5t36 -37t33 -28t18.5 -24.5q4 -18 -6.5 -34.5t-26.5 -22.5q-2 0 -4 -1 t-4 -1q-23 0 -48.5 18.5t-48 45t-40 57t-23.5 53.5q-8 23 -3 42z" />
<glyph unicode="&#xcd;" horiz-adv-x="694" d="M23 -2q0 18 4 33.5t20 21.5q4 2 21.5 3t39 2t46 1h43.5q-6 53 -11.5 127t-8.5 158t-5 169t-4 161t-2 135v90t2 114t6 182t9 200.5t14 171.5q-27 -2 -53.5 -2h-55.5q-23 0 -31 16t-8 39q0 18 6 33.5t15 19.5q6 2 24.5 3t43 2t50 1h43.5q10 8 23.5 12.5t40.5 4.5 q29 0 54.5 -5t41.5 -14q16 -2 32.5 -2h33.5h32q31 0 58.5 -8t27.5 -45q0 -41 -20 -50t-51 -9q-27 0 -52.5 1t-50.5 1q-20 -164 -27 -329t-7 -327q0 -166 2 -330.5t14 -330.5q4 -41 12 -93.5t15 -99.5h24q12 0 25.5 1t27.5 1q29 0 50.5 -10t21.5 -47q0 -41 -23.5 -49 t-54.5 -8q-35 0 -71.5 1t-71.5 1q-10 -2 -22.5 -3t-22.5 -1q-27 0 -43 6h-14q-43 0 -85 -1t-85 -1q-23 0 -33 15t-10 38zM246 1913q4 12 18.5 24.5t32.5 27.5t35.5 36.5t25.5 50.5q4 20 15.5 33.5t29.5 13.5q8 0 15 -2q25 -8 30 -27.5t-2 -41.5q-14 -45 -32 -72 q-10 -14 -25.5 -31.5t-34 -33t-38 -26t-37.5 -10.5q-18 6 -28.5 22.5t-4.5 35.5z" />
<glyph unicode="&#xce;" horiz-adv-x="694" d="M23 -2q0 18 4 33.5t20 21.5q4 2 21.5 3t39 2t46 1h43.5q-6 53 -11.5 127t-8.5 158t-5 169t-4 161t-2 135v90t2 114t6 182t9 200.5t14 171.5q-27 -2 -53.5 -2h-55.5q-23 0 -31 16t-8 39q0 18 6 33.5t15 19.5q6 2 24.5 3t43 2t50 1h43.5q10 8 23.5 12.5t40.5 4.5 q29 0 54.5 -5t41.5 -14q16 -2 32.5 -2h33.5h32q31 0 58.5 -8t27.5 -45q0 -41 -20 -50t-51 -9q-27 0 -52.5 1t-50.5 1q-20 -164 -27 -329t-7 -327q0 -166 2 -330.5t14 -330.5q4 -41 12 -93.5t15 -99.5h24q12 0 25.5 1t27.5 1q29 0 50.5 -10t21.5 -47q0 -41 -23.5 -49 t-54.5 -8q-35 0 -71.5 1t-71.5 1q-10 -2 -22.5 -3t-22.5 -1q-27 0 -43 6h-14q-43 0 -85 -1t-85 -1q-23 0 -33 15t-10 38zM180 1919q4 12 18.5 25.5t33 29t36 37t25.5 49.5q10 31 22.5 39t42.5 8q18 0 28.5 -13t16.5 -34q8 -29 25.5 -50t36 -36.5t33 -28t18.5 -24.5 q4 -18 -5 -34.5t-28 -22.5q-18 0 -37.5 10t-38 25.5t-34 33t-25.5 31.5q-6 -10 -21.5 -26.5t-33 -33t-35.5 -28.5t-35 -12q-6 0 -10 2q-18 4 -27.5 20.5t-5.5 32.5z" />
<glyph unicode="&#xcf;" horiz-adv-x="694" d="M23 -2q0 18 4 33.5t20 21.5q4 2 21.5 3t39 2t46 1h43.5q-6 53 -11.5 127t-8.5 158t-5 169t-4 161t-2 135v90t2 114t6 182t9 200.5t14 171.5q-27 -2 -53.5 -2h-55.5q-23 0 -31 16t-8 39q0 18 6 33.5t15 19.5q6 2 24.5 3t43 2t50 1h43.5q10 8 23.5 12.5t40.5 4.5 q29 0 54.5 -5t41.5 -14q16 -2 32.5 -2h33.5h32q31 0 58.5 -8t27.5 -45q0 -41 -20 -50t-51 -9q-27 0 -52.5 1t-50.5 1q-20 -164 -27 -329t-7 -327q0 -166 2 -330.5t14 -330.5q4 -41 12 -93.5t15 -99.5h24q12 0 25.5 1t27.5 1q29 0 50.5 -10t21.5 -47q0 -41 -23.5 -49 t-54.5 -8q-35 0 -71.5 1t-71.5 1q-10 -2 -22.5 -3t-22.5 -1q-27 0 -43 6h-14q-43 0 -85 -1t-85 -1q-23 0 -33 15t-10 38zM184 1974q0 29 16.5 45.5t45.5 16.5t45 -16.5t16 -45.5t-16.5 -45t-44.5 -16q-29 0 -45.5 16t-16.5 45zM389 1974q0 29 16.5 45.5t45.5 16.5t45 -16.5 t16 -45.5t-16 -45t-45 -16t-45.5 16.5t-16.5 44.5z" />
<glyph unicode="&#xd0;" horiz-adv-x="1179" d="M29 834q0 23 6 42t28 19h101q2 160 7 320.5t22 320.5q-12 -2 -24.5 -3t-27.5 -1q-25 0 -41 12t-23 27.5t-6 33t13 25.5q8 8 43 12.5t80 8.5v2q6 23 21.5 42t66.5 19q43 0 81 -14t44 -35q14 2 27.5 2h27.5q152 0 279 -40t218 -122t141 -202.5t50 -284.5q0 -170 -53 -317.5 t-143 -270.5t-211 -220t-254 -165q-31 -14 -72 -33.5t-82 -36t-73.5 -27.5t-49.5 -11q-27 0 -37 24.5t-10 46.5q0 25 23 33q4 10 2 17.5t-2 17.5q-23 178 -30 352t-7 354h-101q-23 0 -28.5 14.5t-5.5 37.5zM373 782q0 -166 5 -329.5t25 -329.5q23 10 42.5 20.5t39.5 22.5 q96 55 179.5 146t145.5 202t98 233.5t36 241.5t-39 224.5t-109.5 184.5t-170 125t-222.5 46l-2 -19q-14 -166 -20 -327.5t-8 -327.5h41q23 0 31 -14.5t8 -36.5q0 -23 -8.5 -42.5t-30.5 -19.5h-41z" />
<glyph unicode="&#xd1;" horiz-adv-x="1302" d="M152 932q0 180 4 328q0 63 2 124.5t5 111.5t7 85t8 43t21.5 13t39 8.5t43 4.5t33.5 1q72 0 116 -20.5t54 -47.5q68 -172 130.5 -324.5t124 -298t122 -293t123.5 -307.5q-4 125 -6 241t-3 232.5t-5 241.5t-13 268v56.5t2.5 87.5t3.5 82t3 39q8 16 23.5 27.5t53.5 11.5 q47 0 82 -17.5t35 -40.5q0 -162 7.5 -309t7.5 -311q0 -82 1 -180.5t0 -200t-3.5 -198.5t-6.5 -178t-12 -137.5t-22 -74.5q-6 -6 -23.5 -11t-37 -8.5t-39 -5.5t-27.5 -2t-33 45t-62 123t-83 181.5t-97 220t-104.5 239.5t-102.5 240t-93 220.5t-77 180.5q-4 -68 -2 -143.5 t5 -152t6.5 -152.5t3.5 -144q0 -35 2 -90t5 -119.5t8 -136t9 -141.5q10 -162 25 -344q0 -12 -17.5 -19.5t-39 -11.5t-43 -5t-31.5 -1q-33 0 -49 27t-28.5 97.5t-22 163.5t-16.5 198.5t-10 202t-5 171t-2 109.5zM367 1958q0 84 43 143.5t135 59.5q59 0 90 -21.5t49 -48.5 t33.5 -48.5t40.5 -21.5q37 0 47 17.5t16 39t16.5 39t43.5 17.5q29 0 43 -20.5t14 -47.5q0 -74 -50 -115.5t-126 -41.5q-57 0 -87 21.5t-49.5 46t-34.5 46t-42 21.5q-41 0 -52.5 -22.5t-15.5 -48t-13 -48t-46 -22.5q-23 0 -39 16t-16 39z" />
<glyph unicode="&#xd2;" horiz-adv-x="1341" d="M94 766q0 82 13.5 183.5t42 204.5t75.5 201.5t115 175.5t160 123t209 46q154 0 258 -77t168.5 -194.5t93 -260t28.5 -271.5q0 -84 -12 -190.5t-39.5 -217t-74 -215t-112 -185.5t-154.5 -131t-203 -50q-100 0 -182.5 39t-145 105.5t-108.5 152.5t-74.5 181t-43 193.5 t-14.5 186.5zM340 735q0 -66 5 -144.5t18.5 -158.5t37 -155.5t60.5 -134t88 -94.5t121 -36q80 0 138 47t98 122t65.5 169t39 190.5t18.5 186t5 150.5q0 111 -14 239.5t-51 238t-100.5 182.5t-161.5 73q-76 0 -133.5 -45t-98.5 -120t-67.5 -168t-41 -190.5t-20.5 -189.5 t-6 -162zM568 2090q5 19 32 28q6 2 14 2q18 0 29.5 -13.5t15.5 -33.5q8 -29 25.5 -50.5t36 -37t33 -28t18.5 -24.5q4 -18 -6 -34.5t-27 -22.5q-2 0 -4 -1t-4 -1q-23 0 -48.5 18.5t-48 45t-39.5 57t-24 53.5q-8 23 -3 42z" />
<glyph unicode="&#xd3;" horiz-adv-x="1341" d="M94 766q0 82 13.5 183.5t42 204.5t75.5 201.5t115 175.5t160 123t209 46q154 0 258 -77t168.5 -194.5t93 -260t28.5 -271.5q0 -84 -12 -190.5t-39.5 -217t-74 -215t-112 -185.5t-154.5 -131t-203 -50q-100 0 -182.5 39t-145 105.5t-108.5 152.5t-74.5 181t-43 193.5 t-14.5 186.5zM340 735q0 -66 5 -144.5t18.5 -158.5t37 -155.5t60.5 -134t88 -94.5t121 -36q80 0 138 47t98 122t65.5 169t39 190.5t18.5 186t5 150.5q0 111 -14 239.5t-51 238t-100.5 182.5t-161.5 73q-76 0 -133.5 -45t-98.5 -120t-67.5 -168t-41 -190.5t-20.5 -189.5 t-6 -162zM569 1913q4 12 18.5 24.5t33 27.5t36 36.5t25.5 50.5q4 20 15.5 33.5t29.5 13.5q8 0 14 -2q25 -8 30 -27.5t-1 -41.5q-14 -45 -33 -72q-10 -14 -25.5 -31.5t-34 -33t-37.5 -26t-38 -10.5q-18 6 -28.5 23t-4.5 35z" />
<glyph unicode="&#xd4;" horiz-adv-x="1341" d="M94 766q0 82 13.5 183.5t42 204.5t75.5 201.5t115 175.5t160 123t209 46q154 0 258 -77t168.5 -194.5t93 -260t28.5 -271.5q0 -84 -12 -190.5t-39.5 -217t-74 -215t-112 -185.5t-154.5 -131t-203 -50q-100 0 -182.5 39t-145 105.5t-108.5 152.5t-74.5 181t-43 193.5 t-14.5 186.5zM340 735q0 -66 5 -144.5t18.5 -158.5t37 -155.5t60.5 -134t88 -94.5t121 -36q80 0 138 47t98 122t65.5 169t39 190.5t18.5 186t5 150.5q0 111 -14 239.5t-51 238t-100.5 182.5t-161.5 73q-76 0 -133.5 -45t-98.5 -120t-67.5 -168t-41 -190.5t-20.5 -189.5 t-6 -162zM504 1919q4 12 18.5 25.5t32.5 29t35.5 37t25.5 49.5q10 31 22.5 39t43.5 8q18 0 28.5 -13t16.5 -34q8 -29 25.5 -50t36 -36.5t33 -28t18.5 -24.5q4 -18 -5.5 -34.5t-27.5 -22.5q-18 0 -37.5 10t-38 25.5t-34 33t-25.5 31.5q-6 -10 -21.5 -26.5t-33 -33t-36 -28.5 t-34.5 -12q-6 0 -10 2q-18 4 -27.5 20.5t-5.5 32.5z" />
<glyph unicode="&#xd5;" horiz-adv-x="1341" d="M94 766q0 82 13.5 183.5t42 204.5t75.5 201.5t115 175.5t160 123t209 46q154 0 258 -77t168.5 -194.5t93 -260t28.5 -271.5q0 -84 -12 -190.5t-39.5 -217t-74 -215t-112 -185.5t-154.5 -131t-203 -50q-100 0 -182.5 39t-145 105.5t-108.5 152.5t-74.5 181t-43 193.5 t-14.5 186.5zM340 735q0 -66 5 -144.5t18.5 -158.5t37 -155.5t60.5 -134t88 -94.5t121 -36q80 0 138 47t98 122t65.5 169t39 190.5t18.5 186t5 150.5q0 111 -14 239.5t-51 238t-100.5 182.5t-161.5 73q-76 0 -133.5 -45t-98.5 -120t-67.5 -168t-41 -190.5t-20.5 -189.5 t-6 -162zM385 1958q0 84 43 143.5t135 59.5q59 0 90 -21.5t49.5 -48.5t34 -48.5t39.5 -21.5q37 0 47.5 17.5t16.5 39t16 39t43 17.5q29 0 43 -20.5t14 -47.5q0 -74 -50 -115.5t-126 -41.5q-57 0 -86.5 21.5t-49 46t-35 46t-42.5 21.5q-41 0 -52 -22.5t-15 -48t-13.5 -48 t-46.5 -22.5q-23 0 -39 16t-16 39z" />
<glyph unicode="&#xd6;" horiz-adv-x="1341" d="M94 766q0 82 13.5 183.5t42 204.5t75.5 201.5t115 175.5t160 123t209 46q154 0 258 -77t168.5 -194.5t93 -260t28.5 -271.5q0 -84 -12 -190.5t-39.5 -217t-74 -215t-112 -185.5t-154.5 -131t-203 -50q-100 0 -182.5 39t-145 105.5t-108.5 152.5t-74.5 181t-43 193.5 t-14.5 186.5zM340 735q0 -66 5 -144.5t18.5 -158.5t37 -155.5t60.5 -134t88 -94.5t121 -36q80 0 138 47t98 122t65.5 169t39 190.5t18.5 186t5 150.5q0 111 -14 239.5t-51 238t-100.5 182.5t-161.5 73q-76 0 -133.5 -45t-98.5 -120t-67.5 -168t-41 -190.5t-20.5 -189.5 t-6 -162zM508 1974q0 29 16.5 45.5t44.5 16.5q29 0 45.5 -16.5t16.5 -45.5t-16.5 -45t-45.5 -16t-45 16t-16 45zM713 1974q0 29 16 45.5t45 16.5t45.5 -16.5t16.5 -45.5t-16.5 -45t-45.5 -16t-45 16t-16 45z" />
<glyph unicode="&#xd7;" horiz-adv-x="745" d="M84 664q0 16 6 28q10 18 23.5 34.5t23.5 33.5l156 233l-154 232q-10 16 -23.5 32.5t-23.5 34.5q-8 16 -8 29q0 23 17 40t40 17q16 0 28.5 -9t23.5 -23l169 -250l168 250q10 14 22.5 23t29.5 9q23 0 40 -17.5t17 -39.5q0 -12 -8 -29q-10 -18 -23.5 -34.5t-23.5 -32.5 l-154 -232l156 -233q10 -16 23.5 -32.5t23.5 -35.5q6 -12 6 -28q0 -23 -16.5 -39.5t-38.5 -16.5q-31 0 -52 31l-170 254l-172 -254q-20 -31 -51 -31q-23 0 -39 16.5t-16 39.5z" />
<glyph unicode="&#xd8;" horiz-adv-x="1341" d="M94 766q0 82 13.5 183.5t42 204.5t75.5 201.5t115 175.5t160 123t209 46q39 0 74.5 -5t68.5 -16l8 27q6 16 11.5 42t14.5 50.5t23.5 42t38.5 17.5q12 0 28.5 -5.5t32 -12.5t27 -17.5t11.5 -22.5q0 -16 -16.5 -72.5t-37.5 -123.5q72 -57 122 -139.5t82 -177.5t46 -196.5 t14 -193.5q0 -84 -12 -190.5t-39.5 -217t-74 -215t-112 -185.5t-154.5 -131t-203 -50q-49 0 -93.5 10t-85.5 27q-16 -53 -29.5 -83t-27.5 -44.5t-30.5 -17.5t-41.5 -3q-23 0 -40 17.5t-17 40.5q0 14 15.5 66t35.5 118q-68 66 -116 154t-78.5 185t-45 197.5t-14.5 190.5z M340 735q0 -53 3 -115.5t11 -127t23 -129t35 -121.5q4 6 5 12t3 10l401 1313q-53 33 -114 33q-76 0 -133.5 -45t-98.5 -120t-67.5 -168t-41 -190.5t-20.5 -189.5t-6 -162zM520 70q63 -57 150 -58q80 0 138 47t98 122t65.5 169t39 190.5t18.5 185.5t5 151q0 66 -5 139.5 t-15 147t-28.5 143t-47.5 127.5q-4 -14 -8 -24.5t-6 -18.5z" />
<glyph unicode="&#xd9;" horiz-adv-x="1294" d="M160 879q0 18 2 80.5t5 144.5t8 174t9 171t7.5 131t5.5 58q6 16 36.5 27.5t49.5 11.5q12 0 32.5 -1t42 -5t37 -10t15.5 -19q0 -61 -5.5 -132.5t-9.5 -133.5q-10 -129 -15 -258t-5 -258q0 -49 1 -127t8 -168t21.5 -180t41 -164t67.5 -120t100 -46q68 0 117 58.5t83 150.5 t54.5 207t31.5 225.5t14.5 206.5t3.5 152v83t-1.5 119.5t0 135t2.5 129t5 101.5t10 54q10 16 20.5 26.5t32.5 10.5q10 0 30.5 -3t42 -7t40 -11t22.5 -16q2 -4 5 -75.5t7.5 -187.5t7.5 -261t6 -299t6 -303.5t5 -271t3 -202.5t1 -100q0 -23 -35.5 -39t-83.5 -16q-35 0 -48 8.5 t-15 12.5q-4 8 -6 44t-3 86t-2 108.5t0 110.5t1 91v49q-25 -78 -58.5 -164t-84 -157.5t-120 -118.5t-161.5 -47q-96 0 -162 50t-109 132t-66.5 184.5t-34.5 206t-13 198.5t-2 163zM546 2090q5 19 32 28q6 2 14 2q18 0 29.5 -13.5t15.5 -33.5q8 -29 25.5 -50.5t36 -37t33 -28 t18.5 -24.5q4 -18 -6.5 -34.5t-26.5 -22.5q-2 0 -4 -1t-4 -1q-23 0 -48.5 18.5t-48 45t-40 57t-23.5 53.5q-8 23 -3 42z" />
<glyph unicode="&#xda;" horiz-adv-x="1294" d="M160 879q0 18 2 80.5t5 144.5t8 174t9 171t7.5 131t5.5 58q6 16 36.5 27.5t49.5 11.5q12 0 32.5 -1t42 -5t37 -10t15.5 -19q0 -61 -5.5 -132.5t-9.5 -133.5q-10 -129 -15 -258t-5 -258q0 -49 1 -127t8 -168t21.5 -180t41 -164t67.5 -120t100 -46q68 0 117 58.5t83 150.5 t54.5 207t31.5 225.5t14.5 206.5t3.5 152v83t-1.5 119.5t0 135t2.5 129t5 101.5t10 54q10 16 20.5 26.5t32.5 10.5q10 0 30.5 -3t42 -7t40 -11t22.5 -16q2 -4 5 -75.5t7.5 -187.5t7.5 -261t6 -299t6 -303.5t5 -271t3 -202.5t1 -100q0 -23 -35.5 -39t-83.5 -16q-35 0 -48 8.5 t-15 12.5q-4 8 -6 44t-3 86t-2 108.5t0 110.5t1 91v49q-25 -78 -58.5 -164t-84 -157.5t-120 -118.5t-161.5 -47q-96 0 -162 50t-109 132t-66.5 184.5t-34.5 206t-13 198.5t-2 163zM547 1913q4 12 18.5 24.5t32.5 27.5t35.5 36.5t25.5 50.5q4 20 15.5 33.5t30.5 13.5 q8 0 14 -2q25 -8 30 -27.5t-1 -41.5q-14 -45 -33 -72q-10 -14 -25.5 -31.5t-34 -33t-38 -26t-37.5 -10.5q-18 6 -28.5 23t-4.5 35z" />
<glyph unicode="&#xdb;" horiz-adv-x="1294" d="M160 879q0 18 2 80.5t5 144.5t8 174t9 171t7.5 131t5.5 58q6 16 36.5 27.5t49.5 11.5q12 0 32.5 -1t42 -5t37 -10t15.5 -19q0 -61 -5.5 -132.5t-9.5 -133.5q-10 -129 -15 -258t-5 -258q0 -49 1 -127t8 -168t21.5 -180t41 -164t67.5 -120t100 -46q68 0 117 58.5t83 150.5 t54.5 207t31.5 225.5t14.5 206.5t3.5 152v83t-1.5 119.5t0 135t2.5 129t5 101.5t10 54q10 16 20.5 26.5t32.5 10.5q10 0 30.5 -3t42 -7t40 -11t22.5 -16q2 -4 5 -75.5t7.5 -187.5t7.5 -261t6 -299t6 -303.5t5 -271t3 -202.5t1 -100q0 -23 -35.5 -39t-83.5 -16q-35 0 -48 8.5 t-15 12.5q-4 8 -6 44t-3 86t-2 108.5t0 110.5t1 91v49q-25 -78 -58.5 -164t-84 -157.5t-120 -118.5t-161.5 -47q-96 0 -162 50t-109 132t-66.5 184.5t-34.5 206t-13 198.5t-2 163zM479 1919q4 12 18.5 25.5t33 29t36 37t25.5 49.5q10 31 22.5 39t42.5 8q18 0 28.5 -13 t16.5 -34q8 -29 25.5 -50t36 -36.5t33 -28t18.5 -24.5q4 -18 -5 -34.5t-28 -22.5q-18 0 -37.5 10t-38 25.5t-34 33t-25.5 31.5q-6 -10 -21.5 -26.5t-33 -33t-35.5 -28.5t-35 -12q-6 0 -10 2q-18 4 -27.5 20.5t-5.5 32.5z" />
<glyph unicode="&#xdc;" horiz-adv-x="1294" d="M160 879q0 18 2 80.5t5 144.5t8 174t9 171t7.5 131t5.5 58q6 16 36.5 27.5t49.5 11.5q12 0 32.5 -1t42 -5t37 -10t15.5 -19q0 -61 -5.5 -132.5t-9.5 -133.5q-10 -129 -15 -258t-5 -258q0 -49 1 -127t8 -168t21.5 -180t41 -164t67.5 -120t100 -46q68 0 117 58.5t83 150.5 t54.5 207t31.5 225.5t14.5 206.5t3.5 152v83t-1.5 119.5t0 135t2.5 129t5 101.5t10 54q10 16 20.5 26.5t32.5 10.5q10 0 30.5 -3t42 -7t40 -11t22.5 -16q2 -4 5 -75.5t7.5 -187.5t7.5 -261t6 -299t6 -303.5t5 -271t3 -202.5t1 -100q0 -23 -35.5 -39t-83.5 -16q-35 0 -48 8.5 t-15 12.5q-4 8 -6 44t-3 86t-2 108.5t0 110.5t1 91v49q-25 -78 -58.5 -164t-84 -157.5t-120 -118.5t-161.5 -47q-96 0 -162 50t-109 132t-66.5 184.5t-34.5 206t-13 198.5t-2 163zM483 1974q0 29 16.5 45.5t45.5 16.5t45 -16.5t16 -45.5t-16.5 -45t-44.5 -16q-29 0 -45.5 16 t-16.5 45zM688 1974q0 29 16.5 45.5t45.5 16.5t45 -16.5t16 -45.5t-16.5 -45t-44.5 -16q-29 0 -45.5 16t-16.5 45z" />
<glyph unicode="&#xdd;" horiz-adv-x="1263" d="M143 1591q0 47 18.5 68.5t67.5 21.5q12 0 33 -3t40.5 -9t32.5 -17.5t13 -27.5v-163t6 -163q2 -39 6.5 -106.5t12.5 -145t23.5 -156.5t40 -142.5t62.5 -104.5t89 -41q57 0 108.5 48t94.5 124t78.5 171t62 187.5t43 173t22.5 130.5q2 12 5.5 46t8.5 69.5t9 65.5t8 36 q14 18 42 27.5t50 9.5q41 0 59.5 -14.5t24.5 -37t4 -51t-2 -57.5q0 -31 -7 -114t-19.5 -199.5t-29.5 -255t-34.5 -279.5t-36 -275.5t-36 -239t-32 -172t-22.5 -75.5q-14 -14 -42.5 -21.5t-57.5 -7.5q-47 0 -66.5 17.5t-19.5 40.5q0 16 6 51t14 77t16.5 86t14.5 79t14.5 89 t18.5 119.5t20.5 134t19.5 134t17 120t12 89.5q-20 -37 -59 -111t-97.5 -146.5t-133 -127t-164.5 -54.5q-94 0 -156.5 62.5t-102.5 161t-60.5 222.5t-29 246t-9.5 231.5t-1 178.5zM530 1913q4 12 18.5 24.5t33 27.5t36 36.5t25.5 50.5q4 20 15.5 33.5t29.5 13.5q8 0 14 -2 q25 -8 30 -27.5t-1 -41.5q-14 -45 -33 -72q-10 -14 -25.5 -31.5t-33.5 -33t-37.5 -26t-38.5 -10.5q-18 6 -28.5 23t-4.5 35z" />
<glyph unicode="&#xde;" horiz-adv-x="1189" d="M43 1305q0 33 25 51q8 6 31.5 11t58.5 9q4 63 10 125t16 123q4 23 21.5 41t56.5 18q10 0 31.5 -2t42 -5t36 -9t13.5 -16q-10 -63 -16.5 -127t-10.5 -129q53 4 100.5 5t76.5 1q57 0 126.5 -7.5t140 -25.5t137.5 -49t119 -78t84 -111.5t32 -150.5t-37 -164t-98.5 -147.5 t-142.5 -131t-170 -113.5t-181 -95t-174 -76q4 -63 11 -123.5t15 -116.5q0 -4 -7 -17t-24.5 -28.5t-43 -27t-60.5 -11.5q-33 0 -48 10.5t-24 26.5q-8 18 -16 77.5t-13 140.5t-9.5 172t-6.5 175t-3 151t-1 97q0 121 1 241t8 241q-39 -7 -78 -7q-29 0 -29 52zM351 1028 q1 -127 1 -250q0 -96 2.5 -202.5t10.5 -217.5q127 45 235.5 114t188 152t124.5 174t45 181q0 98 -43 159.5t-111.5 94.5t-154.5 44t-170 11q-29 0 -59.5 -1t-65.5 -3q-4 -129 -3 -256z" />
<glyph unicode="&#xdf;" horiz-adv-x="888" d="M-211 -223q0 18 14.5 30.5t34 20.5t40 15t32.5 16q37 23 61.5 96.5t40 174.5t23.5 219t11 230.5t3 210v156.5q0 248 16.5 422t58.5 283.5t113.5 160t182.5 50.5q104 0 153.5 -38t63.5 -101.5t2 -143.5t-32.5 -163t-40 -164t-19.5 -142q0 -98 48 -189.5t105.5 -175 t105.5 -162.5t48 -153q0 -61 -36 -114.5t-91 -92.5t-119.5 -61.5t-122.5 -22.5q-45 0 -84 13.5t-66.5 37t-44 52t-16.5 59.5q0 29 15.5 61.5t41 59.5t56.5 44t62 17q41 0 61 -21.5t-12 -53.5q-49 -49 -49 -107q0 -29 15 -57.5t56 -28.5q33 0 59.5 20.5t46 51t30 64.5 t10.5 61q0 61 -47.5 132.5t-103.5 153.5t-103 173.5t-47 191.5q0 57 15 130t35.5 148.5t39 149.5t24.5 131t-5 93t-52 36q-51 0 -84 -56.5t-54.5 -144.5t-31.5 -197.5t-13 -218t-3 -203.5v-153q0 -70 -2.5 -162t-9.5 -192t-24.5 -202.5t-48 -192.5t-77.5 -162t-115 -111 q-25 -14 -56.5 -25.5t-58.5 -11.5q-23 0 -39 17.5t-16 40.5z" />
<glyph unicode="&#xe0;" horiz-adv-x="868" d="M10 635q0 98 32 171t80 122t106.5 73.5t113.5 24.5q72 0 115 -35t55 -82q8 25 29.5 37t44.5 12q25 0 59.5 -15t34.5 -46q0 -16 -5 -62.5t-10.5 -105.5t-10.5 -124.5t-5 -123.5q0 -35 6 -63q4 -23 14.5 -43.5t28.5 -20.5q25 0 49.5 34t49 84t48 110.5t43 114t34 92 t22.5 45.5q8 8 21 8q14 0 32.5 -12.5t18.5 -28.5q0 -29 -12.5 -82t-35 -114.5t-54 -126t-71.5 -117t-86 -86t-98 -33.5q-59 0 -91.5 43t-49 102t-20.5 122.5t-4 104.5q-14 -29 -37 -75.5t-54.5 -92t-72.5 -78t-97 -32.5q-35 0 -74.5 16.5t-72.5 52t-54.5 92t-21.5 138.5z M217 588q0 -72 15.5 -120t48.5 -48q31 0 60.5 46t56 107.5t46 125t27.5 98.5q0 23 -2 49t-9 50t-24.5 39t-48.5 15q-41 0 -72.5 -34.5t-53 -88t-33 -117t-11.5 -122.5zM333 1328.5q5 19.5 32 27.5q6 2 14 2q18 0 29.5 -13.5t15.5 -33.5q8 -29 25.5 -50.5t36 -37t33 -28 t18.5 -24.5q4 -18 -6.5 -34.5t-26.5 -22.5q-2 0 -4 -1t-4 -1q-23 0 -48.5 18.5t-48 45t-40 57.5t-23.5 53q-8 23 -3 42.5z" />
<glyph unicode="&#xe1;" horiz-adv-x="868" d="M10 635q0 98 32 171t80 122t106.5 73.5t113.5 24.5q72 0 115 -35t55 -82q8 25 29.5 37t44.5 12q25 0 59.5 -15t34.5 -46q0 -16 -5 -62.5t-10.5 -105.5t-10.5 -124.5t-5 -123.5q0 -35 6 -63q4 -23 14.5 -43.5t28.5 -20.5q25 0 49.5 34t49 84t48 110.5t43 114t34 92 t22.5 45.5q8 8 21 8q14 0 32.5 -12.5t18.5 -28.5q0 -29 -12.5 -82t-35 -114.5t-54 -126t-71.5 -117t-86 -86t-98 -33.5q-59 0 -91.5 43t-49 102t-20.5 122.5t-4 104.5q-14 -29 -37 -75.5t-54.5 -92t-72.5 -78t-97 -32.5q-35 0 -74.5 16.5t-72.5 52t-54.5 92t-21.5 138.5z M217 588q0 -72 15.5 -120t48.5 -48q31 0 60.5 46t56 107.5t46 125t27.5 98.5q0 23 -2 49t-9 50t-24.5 39t-48.5 15q-41 0 -72.5 -34.5t-53 -88t-33 -117t-11.5 -122.5zM334 1151q4 12 18.5 24.5t32.5 28t35.5 37t25.5 49.5q4 20 15.5 33.5t30.5 13.5q8 0 14 -2 q25 -8 30 -27.5t-1 -41.5q-14 -45 -33 -72q-10 -14 -25.5 -31.5t-34 -33t-38 -25.5t-37.5 -10q-18 6 -28.5 22.5t-4.5 34.5z" />
<glyph unicode="&#xe2;" horiz-adv-x="868" d="M10 635q0 98 32 171t80 122t106.5 73.5t113.5 24.5q72 0 115 -35t55 -82q8 25 29.5 37t44.5 12q25 0 59.5 -15t34.5 -46q0 -16 -5 -62.5t-10.5 -105.5t-10.5 -124.5t-5 -123.5q0 -35 6 -63q4 -23 14.5 -43.5t28.5 -20.5q25 0 49.5 34t49 84t48 110.5t43 114t34 92 t22.5 45.5q8 8 21 8q14 0 32.5 -12.5t18.5 -28.5q0 -29 -12.5 -82t-35 -114.5t-54 -126t-71.5 -117t-86 -86t-98 -33.5q-59 0 -91.5 43t-49 102t-20.5 122.5t-4 104.5q-14 -29 -37 -75.5t-54.5 -92t-72.5 -78t-97 -32.5q-35 0 -74.5 16.5t-72.5 52t-54.5 92t-21.5 138.5z M217 588q0 -72 15.5 -120t48.5 -48q31 0 60.5 46t56 107.5t46 125t27.5 98.5q0 23 -2 49t-9 50t-24.5 39t-48.5 15q-41 0 -72.5 -34.5t-53 -88t-33 -117t-11.5 -122.5zM266 1157q4 12 18.5 25.5t33 29t36 37t25.5 49.5q10 31 22.5 39.5t42.5 8.5q18 0 28.5 -13.5t16.5 -34.5 q8 -29 25.5 -50t36 -36.5t33 -28t18.5 -24.5q4 -18 -5 -34.5t-28 -22.5q-18 0 -37.5 10t-38 25.5t-34 33t-25.5 31.5q-6 -10 -21.5 -26.5t-33 -33t-35.5 -28.5t-35 -12q-6 0 -10 2q-18 4 -27.5 20.5t-5.5 32.5z" />
<glyph unicode="&#xe3;" horiz-adv-x="868" d="M10 635q0 98 32 171t80 122t106.5 73.5t113.5 24.5q72 0 115 -35t55 -82q8 25 29.5 37t44.5 12q25 0 59.5 -15t34.5 -46q0 -16 -5 -62.5t-10.5 -105.5t-10.5 -124.5t-5 -123.5q0 -35 6 -63q4 -23 14.5 -43.5t28.5 -20.5q25 0 49.5 34t49 84t48 110.5t43 114t34 92 t22.5 45.5q8 8 21 8q14 0 32.5 -12.5t18.5 -28.5q0 -29 -12.5 -82t-35 -114.5t-54 -126t-71.5 -117t-86 -86t-98 -33.5q-59 0 -91.5 43t-49 102t-20.5 122.5t-4 104.5q-14 -29 -37 -75.5t-54.5 -92t-72.5 -78t-97 -32.5q-35 0 -74.5 16.5t-72.5 52t-54.5 92t-21.5 138.5z M150 1196q0 84 43 143.5t135 59.5q59 0 90 -21.5t49 -48t33.5 -48t40.5 -21.5q37 0 47 17t16 38.5t16.5 39t43.5 17.5q29 0 43 -20.5t14 -46.5q0 -74 -50 -116t-126 -42q-57 0 -87 21.5t-49.5 46t-34.5 46t-42 21.5q-41 0 -52.5 -22.5t-15.5 -48t-13 -48t-46 -22.5 q-23 0 -39 16.5t-16 38.5zM217 588q0 -72 15.5 -120t48.5 -48q31 0 60.5 46t56 107.5t46 125t27.5 98.5q0 23 -2 49t-9 50t-24.5 39t-48.5 15q-41 0 -72.5 -34.5t-53 -88t-33 -117t-11.5 -122.5z" />
<glyph unicode="&#xe4;" horiz-adv-x="868" d="M10 635q0 98 32 171t80 122t106.5 73.5t113.5 24.5q72 0 115 -35t55 -82q8 25 29.5 37t44.5 12q25 0 59.5 -15t34.5 -46q0 -16 -5 -62.5t-10.5 -105.5t-10.5 -124.5t-5 -123.5q0 -35 6 -63q4 -23 14.5 -43.5t28.5 -20.5q25 0 49.5 34t49 84t48 110.5t43 114t34 92 t22.5 45.5q8 8 21 8q14 0 32.5 -12.5t18.5 -28.5q0 -29 -12.5 -82t-35 -114.5t-54 -126t-71.5 -117t-86 -86t-98 -33.5q-59 0 -91.5 43t-49 102t-20.5 122.5t-4 104.5q-14 -29 -37 -75.5t-54.5 -92t-72.5 -78t-97 -32.5q-35 0 -74.5 16.5t-72.5 52t-54.5 92t-21.5 138.5z M217 588q0 -72 15.5 -120t48.5 -48q31 0 60.5 46t56 107.5t46 125t27.5 98.5q0 23 -2 49t-9 50t-24.5 39t-48.5 15q-41 0 -72.5 -34.5t-53 -88t-33 -117t-11.5 -122.5zM270 1212q0 29 16.5 45.5t45.5 16.5t45 -16.5t16 -45.5t-16.5 -45t-44.5 -16q-29 0 -45.5 16t-16.5 45z M475 1212q0 29 16.5 45.5t45.5 16.5t45 -16.5t16 -45.5t-16.5 -45t-44.5 -16q-29 0 -45.5 16t-16.5 45z" />
<glyph unicode="&#xe5;" horiz-adv-x="868" d="M10 635q0 98 32 171t80 122t106.5 73.5t113.5 24.5q72 0 115 -35t55 -82q8 25 29.5 37t44.5 12q25 0 59.5 -15t34.5 -46q0 -16 -5 -62.5t-10.5 -105.5t-10.5 -124.5t-5 -123.5q0 -35 6 -63q4 -23 14.5 -43.5t28.5 -20.5q25 0 49.5 34t49 84t48 110.5t43 114t34 92 t22.5 45.5q8 8 21 8q14 0 32.5 -12.5t18.5 -28.5q0 -29 -12.5 -82t-35 -114.5t-54 -126t-71.5 -117t-86 -86t-98 -33.5q-59 0 -91.5 43t-49 102t-20.5 122.5t-4 104.5q-14 -29 -37 -75.5t-54.5 -92t-72.5 -78t-97 -32.5q-35 0 -74.5 16.5t-72.5 52t-54.5 92t-21.5 138.5z M217 588q0 -72 15.5 -120t48.5 -48q31 0 60.5 46t56 107.5t46 125t27.5 98.5q0 23 -2 49t-9 50t-24.5 39t-48.5 15q-41 0 -72.5 -34.5t-53 -88t-33 -117t-11.5 -122.5zM281 1192q0 72 52 116t122 44q14 0 33.5 -2t37 -9.5t29.5 -18.5t12 -30q0 -8 -2 -12q23 -23 23 -61 q0 -35 -14.5 -68t-38 -59.5t-55 -42t-66.5 -15.5q-66 0 -99.5 49.5t-33.5 108.5zM373 1192q0 -18 8 -42t33 -24q33 0 57.5 32t22.5 63q-16 10 -30.5 16t-21.5 23q-29 -4 -49 -20.5t-20 -47.5z" />
<glyph unicode="&#xe6;" horiz-adv-x="1142" d="M10 635q0 98 32 171t80 122t105.5 73.5t110.5 24.5q72 0 126 -36t68 -83q35 53 84.5 86t114.5 33q84 0 140.5 -55.5t56.5 -143.5q0 -55 -23.5 -93t-58.5 -60.5t-77 -31.5t-77 -9q-16 0 -29.5 1t-23.5 3q0 -47 8 -90t25.5 -77t46.5 -54.5t72 -20.5q53 0 101 30t91 75 t80 98t64.5 101.5t45 83t21.5 40.5q8 10 13 14.5t18 4.5q51 0 51 -51q0 -23 -10.5 -58t-20.5 -57q-33 -63 -84 -129t-115.5 -119t-140.5 -86t-160 -33q-109 0 -186.5 59.5t-99.5 176.5q-16 -33 -38 -70t-49.5 -67.5t-61.5 -51t-77 -20.5q-35 0 -74.5 16.5t-72.5 52t-54.5 92 t-21.5 138.5zM217 588q0 -72 15.5 -120t48.5 -48q31 0 60.5 46t56 107.5t46 125t27.5 98.5q0 23 -2 49t-9 50t-24.5 39t-48.5 15q-41 0 -72.5 -34.5t-53 -88t-33 -117t-11.5 -122.5zM641 682q23 -6 41 -6q29 0 53.5 18.5t42 45t27.5 59t10 59.5q0 39 -16.5 60.5t-38.5 21.5 q-23 0 -43.5 -21.5t-35.5 -58.5t-25.5 -83t-14.5 -95z" />
<glyph unicode="&#xe7;" horiz-adv-x="675" d="M0 623q0 66 17.5 137t54.5 130.5t92 97.5t131 38q35 0 67.5 -14.5t57 -39t40 -56t15.5 -68.5q0 -23 -17.5 -39t-39.5 -16q-23 0 -32 23.5t-17.5 51t-23.5 50t-50 22.5q-20 0 -39.5 -26.5t-35 -69.5t-25 -97.5t-9.5 -109.5q0 -47 8.5 -90t26 -77t46 -54.5t71.5 -20.5 q53 0 101 30t91 75t80 98t64.5 101.5t45 83t21.5 40.5q8 10 13.5 14.5t17.5 4.5q51 0 51 -51q0 -23 -10 -58t-20 -57q-31 -57 -76 -116.5t-100.5 -110t-121 -86t-139.5 -48.5q-8 -23 -18 -47t-14 -35q41 -12 77.5 -24t65.5 -33.5t46 -53.5t17 -81q0 -43 -14 -80t-40.5 -64.5 t-62.5 -44t-79 -16.5q-23 0 -50.5 6t-51 18.5t-40 32t-16.5 48.5q0 18 13.5 31.5t31.5 13.5q14 0 29.5 -10.5t15.5 -26.5q10 -10 30.5 -15.5t37.5 -5.5q47 0 75.5 33t28.5 80t-33.5 66.5t-75.5 29.5t-76 22.5t-34 45.5q0 4 11.5 37.5t25.5 68.5q-111 10 -183.5 90.5 t-72.5 221.5z" />
<glyph unicode="&#xe8;" horiz-adv-x="690" d="M0 623q0 66 17.5 137t52 130.5t87 97.5t122.5 38q84 0 140 -55.5t56 -143.5q0 -55 -23.5 -93t-58.5 -60.5t-77 -31.5t-76 -9q-16 0 -29.5 1t-24.5 3q0 -47 8.5 -90t26 -77t46 -54.5t71.5 -20.5q53 0 101 30t91 75t80 98t64.5 101.5t45 83t21.5 40.5q8 10 13.5 14.5 t17.5 4.5q51 0 51 -51q0 -23 -10 -58t-20 -57q-33 -63 -84.5 -129t-116 -119t-140 -86t-159.5 -33q-61 0 -115.5 20.5t-93.5 59.5t-61.5 98.5t-22.5 135.5zM188 682q23 -6 41 -6q29 0 53.5 18.5t42 45t27.5 59t10 59.5q0 39 -16 60.5t-39 21.5t-43 -21.5t-35.5 -58.5 t-26 -83t-14.5 -95zM243 1328.5q5 19.5 31 27.5q6 2 15 2q18 0 29.5 -13.5t15.5 -33.5q8 -29 25.5 -50.5t36 -37t32.5 -27.5t18 -25q4 -18 -6 -34.5t-26 -22.5q-2 0 -4 -1t-4 -1q-23 0 -48.5 18.5t-48 45t-40 57t-23.5 53.5q-8 23 -3 42.5z" />
<glyph unicode="&#xe9;" horiz-adv-x="690" d="M0 623q0 66 17.5 137t52 130.5t87 97.5t122.5 38q84 0 140 -55.5t56 -143.5q0 -55 -23.5 -93t-58.5 -60.5t-77 -31.5t-76 -9q-16 0 -29.5 1t-24.5 3q0 -47 8.5 -90t26 -77t46 -54.5t71.5 -20.5q53 0 101 30t91 75t80 98t64.5 101.5t45 83t21.5 40.5q8 10 13.5 14.5 t17.5 4.5q51 0 51 -51q0 -23 -10 -58t-20 -57q-33 -63 -84.5 -129t-116 -119t-140 -86t-159.5 -33q-61 0 -115.5 20.5t-93.5 59.5t-61.5 98.5t-22.5 135.5zM188 682q23 -6 41 -6q29 0 53.5 18.5t42 45t27.5 59t10 59.5q0 39 -16 60.5t-39 21.5t-43 -21.5t-35.5 -58.5 t-26 -83t-14.5 -95zM244 1151q4 12 18 24.5t32.5 28t36 37t25.5 49.5q4 20 15.5 33.5t29.5 13.5q8 0 15 -2q25 -8 30 -27.5t-2 -41.5q-14 -45 -32 -72q-10 -14 -25.5 -31.5t-34 -33t-38.5 -25.5t-38 -10q-18 6 -28 22.5t-4 34.5z" />
<glyph unicode="&#xea;" horiz-adv-x="690" d="M0 623q0 66 17.5 137t52 130.5t87 97.5t122.5 38q84 0 140 -55.5t56 -143.5q0 -55 -23.5 -93t-58.5 -60.5t-77 -31.5t-76 -9q-16 0 -29.5 1t-24.5 3q0 -47 8.5 -90t26 -77t46 -54.5t71.5 -20.5q53 0 101 30t91 75t80 98t64.5 101.5t45 83t21.5 40.5q8 10 13.5 14.5 t17.5 4.5q51 0 51 -51q0 -23 -10 -58t-20 -57q-33 -63 -84.5 -129t-116 -119t-140 -86t-159.5 -33q-61 0 -115.5 20.5t-93.5 59.5t-61.5 98.5t-22.5 135.5zM178 1157q4 12 18.5 25.5t33 29t36 37t25.5 49.5q10 31 22.5 39.5t42.5 8.5q18 0 28.5 -13.5t16.5 -34.5 q8 -29 25.5 -50t36 -36.5t33 -28t18.5 -24.5q4 -18 -5 -34.5t-28 -22.5q-18 0 -37.5 10t-38 25.5t-34 33t-25.5 31.5q-6 -10 -21.5 -26.5t-33 -33t-35.5 -28.5t-35 -12q-6 0 -10 2q-18 4 -27.5 20.5t-5.5 32.5zM188 682q23 -6 41 -6q29 0 53.5 18.5t42 45t27.5 59t10 59.5 q0 39 -16 60.5t-39 21.5t-43 -21.5t-35.5 -58.5t-26 -83t-14.5 -95z" />
<glyph unicode="&#xeb;" horiz-adv-x="690" d="M0 623q0 66 17.5 137t52 130.5t87 97.5t122.5 38q84 0 140 -55.5t56 -143.5q0 -55 -23.5 -93t-58.5 -60.5t-77 -31.5t-76 -9q-16 0 -29.5 1t-24.5 3q0 -47 8.5 -90t26 -77t46 -54.5t71.5 -20.5q53 0 101 30t91 75t80 98t64.5 101.5t45 83t21.5 40.5q8 10 13.5 14.5 t17.5 4.5q51 0 51 -51q0 -23 -10 -58t-20 -57q-33 -63 -84.5 -129t-116 -119t-140 -86t-159.5 -33q-61 0 -115.5 20.5t-93.5 59.5t-61.5 98.5t-22.5 135.5zM182 1212q0 29 16.5 45.5t45.5 16.5t45 -16.5t16 -45.5t-16.5 -45t-44.5 -16q-29 0 -45.5 16t-16.5 45zM188 682 q23 -6 41 -6q29 0 53.5 18.5t42 45t27.5 59t10 59.5q0 39 -16 60.5t-39 21.5t-43 -21.5t-35.5 -58.5t-26 -83t-14.5 -95zM387 1212q0 29 16.5 45.5t45.5 16.5t45 -16.5t16 -45.5t-16 -45t-45 -16t-45.5 16.5t-16.5 44.5z" />
<glyph unicode="&#xec;" horiz-adv-x="423" d="M6 580q0 12 2 48t4 83t6.5 99t7.5 96t6 76t5 36q8 16 37.5 23.5t58.5 7.5q88 0 88 -50q0 -29 -3 -54t-7 -54l-12 -156t-6 -155q0 -20 1 -48t7 -52.5t18 -41t37 -16.5q23 0 41 13.5t33.5 33.5t29 44t21.5 44q8 18 23.5 59t32 85t31.5 81t21 45q2 2 2.5 3t2.5 4l4 4 q8 4 16 4q10 0 21.5 -5.5t19.5 -15.5q10 -10 10 -22v-4q0 -6 -1 -12.5t-1 -14.5q-4 -23 -8 -49.5t-8 -36.5q-14 -41 -30.5 -87t-39.5 -93q-4 -10 -12 -27q-2 -4 -4 -9t-4 -9l-2 2q-37 -63 -92.5 -106.5t-135.5 -43.5q-59 0 -101 24.5t-68.5 63.5t-39 87t-12.5 96z M110 1328.5q5 19.5 31 27.5q6 2 15 2q18 0 29.5 -13.5t15.5 -33.5q8 -29 25.5 -50.5t36 -37t32.5 -28t18 -24.5q4 -18 -6 -34.5t-26 -22.5q-2 0 -4.5 -1t-4.5 -1q-23 0 -48 18.5t-47.5 45t-40 57.5t-23.5 53q-8 23 -3 42.5z" />
<glyph unicode="&#xed;" horiz-adv-x="423" d="M6 580q0 12 2 48t4 83t6.5 99t7.5 96t6 76t5 36q8 16 37.5 23.5t58.5 7.5q88 0 88 -50q0 -29 -3 -54t-7 -54l-12 -156t-6 -155q0 -20 1 -48t7 -52.5t18 -41t37 -16.5q23 0 41 13.5t33.5 33.5t29 44t21.5 44q8 18 23.5 59t32 85t31.5 81t21 45q2 2 2.5 3t2.5 4l4 4 q8 4 16 4q10 0 21.5 -5.5t19.5 -15.5q10 -10 10 -22v-4q0 -6 -1 -12.5t-1 -14.5q-4 -23 -8 -49.5t-8 -36.5q-14 -41 -30.5 -87t-39.5 -93q-4 -10 -12 -27q-2 -4 -4 -9t-4 -9l-2 2q-37 -63 -92.5 -106.5t-135.5 -43.5q-59 0 -101 24.5t-68.5 63.5t-39 87t-12.5 96zM111 1151 q4 12 18 24.5t32.5 28t36 37t25.5 49.5q4 20 15.5 33.5t29.5 13.5q8 0 15 -2q25 -8 29.5 -27.5t-1.5 -41.5q-14 -45 -32 -72q-10 -14 -25.5 -31.5t-34 -33t-38 -25.5t-38.5 -10q-18 6 -28 22.5t-4 34.5z" />
<glyph unicode="&#xee;" horiz-adv-x="423" d="M6 580q0 12 2 48t4 83t6.5 99t7.5 96t6 76t5 36q8 16 37.5 23.5t58.5 7.5q88 0 88 -50q0 -29 -3 -54t-7 -54l-12 -156t-6 -155q0 -20 1 -48t7 -52.5t18 -41t37 -16.5q23 0 41 13.5t33.5 33.5t29 44t21.5 44q8 18 23.5 59t32 85t31.5 81t21 45q2 2 2.5 3t2.5 4l4 4 q8 4 16 4q10 0 21.5 -5.5t19.5 -15.5q10 -10 10 -22v-4q0 -6 -1 -12.5t-1 -14.5q-4 -23 -8 -49.5t-8 -36.5q-14 -41 -30.5 -87t-39.5 -93q-4 -10 -12 -27q-2 -4 -4 -9t-4 -9l-2 2q-37 -63 -92.5 -106.5t-135.5 -43.5q-59 0 -101 24.5t-68.5 63.5t-39 87t-12.5 96zM45 1157 q4 12 18.5 25.5t33 29t36 37t25.5 49.5q10 31 22.5 39.5t42.5 8.5q18 0 28.5 -13.5t16.5 -34.5q8 -29 25.5 -50t36 -36.5t33 -28t18.5 -24.5q4 -18 -5 -34.5t-28 -22.5q-18 0 -37.5 10t-38 25.5t-34 33t-25.5 31.5q-6 -10 -21.5 -26.5t-33 -33t-36 -28.5t-34.5 -12 q-6 0 -10 2q-18 4 -27.5 20.5t-5.5 32.5z" />
<glyph unicode="&#xef;" horiz-adv-x="423" d="M6 580q0 12 2 48t4 83t6.5 99t7.5 96t6 76t5 36q8 16 37.5 23.5t58.5 7.5q88 0 88 -50q0 -29 -3 -54t-7 -54l-12 -156t-6 -155q0 -20 1 -48t7 -52.5t18 -41t37 -16.5q23 0 41 13.5t33.5 33.5t29 44t21.5 44q8 18 23.5 59t32 85t31.5 81t21 45q2 2 2.5 3t2.5 4l4 4 q8 4 16 4q10 0 21.5 -5.5t19.5 -15.5q10 -10 10 -22v-4q0 -6 -1 -12.5t-1 -14.5q-4 -23 -8 -49.5t-8 -36.5q-14 -41 -30.5 -87t-39.5 -93q-4 -10 -12 -27q-2 -4 -4 -9t-4 -9l-2 2q-37 -63 -92.5 -106.5t-135.5 -43.5q-59 0 -101 24.5t-68.5 63.5t-39 87t-12.5 96zM49 1212 q0 29 16.5 45.5t45.5 16.5t45 -16.5t16 -45.5t-16.5 -45t-44.5 -16q-29 0 -45.5 16t-16.5 45zM254 1212q0 29 16.5 45.5t44.5 16.5q29 0 45.5 -16.5t16.5 -45.5t-16.5 -45t-45.5 -16t-45 16t-16 45z" />
<glyph unicode="&#xf0;" horiz-adv-x="1040" d="M40 619.5q-13 72.5 2 141t58 129t113 103.5q63 39 142 58.5t161 19.5q59 0 115.5 -10t105.5 -33q-41 111 -91 212t-93 175l-102 -61q-12 -6 -21 -6q-18 0 -35 30q-12 20 -17 40t13 32l103 63q-20 31 -40 60t-38 53q-10 12 -25.5 32.5t-28.5 43.5q-18 29 -18 41t12.5 25.5 t26.5 23.5q10 8 25 8q16 0 30 -12q29 -29 73 -81t97 -124l82 49q12 6 21 6q23 0 39 -30q12 -18 16 -39t-16 -33l-76 -47q16 -27 34.5 -53.5t34.5 -55.5q43 -68 90.5 -157.5t85 -189t60 -203t15.5 -199.5t-50 -178t-137 -140q-59 -37 -126 -54t-136 -17q-135 0 -257 61 t-194 176q-41 68 -54 140.5zM246 712.5q-6 -65.5 7 -130t42 -113.5q35 -59 95.5 -88t125.5 -29q86 0 156 43q61 37 93 93.5t41 124t1 143t-31 155.5q-53 31 -109.5 50.5t-115.5 19.5q-47 0 -95.5 -13t-97.5 -44q-51 -33 -78.5 -89.5t-33.5 -122z" />
<glyph unicode="&#xf1;" horiz-adv-x="839" d="M23 659q0 23 2 82.5t7 124t12 118.5t17 67q12 16 35 22t41 6q12 0 29.5 -4t33 -11t26 -17.5t10.5 -24.5q0 -18 -5.5 -61t-11.5 -96.5t-11 -112t-5 -105.5q10 41 33.5 116t61.5 150.5t93 131t129 55.5q63 0 91 -42t35 -108.5t3 -145.5t-4 -153q0 -43 3 -81t9.5 -67.5 t17.5 -47t27 -17.5q31 0 62 52.5t58.5 119t52 131t38.5 88.5q2 4 5.5 8.5t17.5 4.5q23 0 37 -15.5t14 -25.5q0 -53 -23.5 -137t-68.5 -163t-107.5 -135.5t-140.5 -56.5q-47 0 -79.5 21.5t-54 57.5t-32 82t-10.5 93q0 37 4 108.5t4 141.5t-7 122t-32 52q-20 0 -46.5 -45 t-49 -101.5t-40 -110.5t-23.5 -73q-23 -84 -37.5 -166.5t-24.5 -168.5q-4 -35 -5 -70t-11 -70q-10 -39 -86 -39q-61 0 -68 47q-16 115 -21 234t-5 235zM135 1196q0 84 43 143.5t135 59.5q59 0 90 -21.5t49.5 -48t34 -48t39.5 -21.5q37 0 47.5 17t16.5 38.5t16 39t43 17.5 q29 0 43.5 -20.5t14.5 -46.5q0 -74 -50.5 -116t-126.5 -42q-57 0 -86.5 21.5t-49 46t-35 46t-42.5 21.5q-41 0 -52 -22.5t-15 -48t-13.5 -48t-46.5 -22.5q-23 0 -39 16.5t-16 38.5z" />
<glyph unicode="&#xf2;" horiz-adv-x="757" d="M-4 608q0 84 17.5 146.5t45 104.5t60.5 62.5t63 20.5q18 43 57.5 76t106.5 33q66 0 111 -39t73.5 -96.5t42 -125t13.5 -126.5v-26.5t-2 -29.5q47 18 87 53t72.5 71t56 66.5t36.5 39.5q10 6 18 6q16 0 33.5 -15.5t17.5 -33.5q0 -29 -14 -45.5t-33 -32.5q-39 -35 -72.5 -68 t-67.5 -58.5t-70 -44t-81 -26.5q-12 -49 -33.5 -95t-56.5 -83t-82.5 -59.5t-113.5 -22.5q-55 0 -107.5 19.5t-91.5 61.5t-62.5 107.5t-23.5 159.5zM166 594q0 -31 8 -73t26.5 -80t50.5 -65.5t79 -27.5q63 0 106 48t66 120q-45 2 -93.5 13.5t-92.5 34t-78.5 55t-57.5 77.5 q-6 -27 -10 -52.5t-4 -49.5zM272 823q0 -49 20.5 -92t54.5 -73.5t79 -48t92 -17.5q2 18 3 37.5t1 38.5q0 63 -12 118.5t-33.5 96.5t-48.5 64.5t-55 23.5q-25 0 -44.5 -17.5t-31.5 -42t-18.5 -49.5t-6.5 -39zM278 1328.5q5 19.5 31 27.5q6 2 15 2q18 0 29.5 -13.5t15.5 -33.5 q8 -29 25.5 -50.5t36 -37t32.5 -27.5t18 -25q4 -18 -6 -34.5t-26 -22.5q-2 0 -4.5 -1t-4.5 -1q-23 0 -48 18.5t-47.5 45t-40 57t-23.5 53.5q-8 23 -3 42.5z" />
<glyph unicode="&#xf3;" horiz-adv-x="757" d="M-4 608q0 84 17.5 146.5t45 104.5t60.5 62.5t63 20.5q18 43 57.5 76t106.5 33q66 0 111 -39t73.5 -96.5t42 -125t13.5 -126.5v-26.5t-2 -29.5q47 18 87 53t72.5 71t56 66.5t36.5 39.5q10 6 18 6q16 0 33.5 -15.5t17.5 -33.5q0 -29 -14 -45.5t-33 -32.5q-39 -35 -72.5 -68 t-67.5 -58.5t-70 -44t-81 -26.5q-12 -49 -33.5 -95t-56.5 -83t-82.5 -59.5t-113.5 -22.5q-55 0 -107.5 19.5t-91.5 61.5t-62.5 107.5t-23.5 159.5zM166 594q0 -31 8 -73t26.5 -80t50.5 -65.5t79 -27.5q63 0 106 48t66 120q-45 2 -93.5 13.5t-92.5 34t-78.5 55t-57.5 77.5 q-6 -27 -10 -52.5t-4 -49.5zM272 823q0 -49 20.5 -92t54.5 -73.5t79 -48t92 -17.5q2 18 3 37.5t1 38.5q0 63 -12 118.5t-33.5 96.5t-48.5 64.5t-55 23.5q-25 0 -44.5 -17.5t-31.5 -42t-18.5 -49.5t-6.5 -39zM279 1151q4 12 18 24.5t32.5 28t36 37t25.5 49.5q4 20 15.5 33.5 t29.5 13.5q8 0 15 -2q25 -8 29.5 -27.5t-1.5 -41.5q-14 -45 -33 -72q-10 -14 -25 -31.5t-33.5 -33t-38.5 -25.5t-38 -10q-18 6 -28.5 22.5t-3.5 34.5z" />
<glyph unicode="&#xf4;" horiz-adv-x="757" d="M-4 608q0 84 17.5 146.5t45 104.5t60.5 62.5t63 20.5q18 43 57.5 76t106.5 33q66 0 111 -39t73.5 -96.5t42 -125t13.5 -126.5v-26.5t-2 -29.5q47 18 87 53t72.5 71t56 66.5t36.5 39.5q10 6 18 6q16 0 33.5 -15.5t17.5 -33.5q0 -29 -14 -45.5t-33 -32.5q-39 -35 -72.5 -68 t-67.5 -58.5t-70 -44t-81 -26.5q-12 -49 -33.5 -95t-56.5 -83t-83 -59.5t-113 -22.5q-55 0 -107.5 19.5t-91.5 61.5t-62.5 107.5t-23.5 159.5zM166 594q0 -31 8 -73t26.5 -80t50.5 -65.5t79 -27.5q63 0 106 48t66 120q-45 2 -93.5 13.5t-92.5 34t-78.5 55t-57.5 77.5 q-6 -27 -10 -52.5t-4 -49.5zM211 1157q4 12 18.5 25.5t33 29t35.5 37t26 49.5q10 31 22 39.5t43 8.5q18 0 28.5 -13.5t16.5 -34.5q8 -29 25.5 -50t36 -36.5t33 -28t18.5 -24.5q4 -18 -5.5 -34.5t-27.5 -22.5q-18 0 -37.5 10t-38 25.5t-34 33t-25.5 31.5q-6 -10 -21.5 -26.5 t-33 -33t-36 -28.5t-34.5 -12q-6 0 -10 2q-18 4 -27.5 20.5t-5.5 32.5zM272 823q0 -49 20.5 -92t54.5 -73.5t79 -48t92 -17.5q2 18 3 37.5t1 38.5q0 63 -12 118.5t-33.5 96.5t-48.5 64.5t-55 23.5q-25 0 -44.5 -17.5t-31.5 -42t-18.5 -49.5t-6.5 -39z" />
<glyph unicode="&#xf5;" horiz-adv-x="757" d="M-4 608q0 84 17.5 146.5t45 104.5t60.5 62.5t63 20.5q18 43 57.5 76t106.5 33q66 0 111 -39t73.5 -96.5t42 -125t13.5 -126.5v-26.5t-2 -29.5q47 18 87 53t72.5 71t56 66.5t36.5 39.5q10 6 18 6q16 0 33.5 -15.5t17.5 -33.5q0 -29 -14 -45.5t-33 -32.5q-39 -35 -72.5 -68 t-67.5 -58.5t-70 -44t-81 -26.5q-12 -49 -33.5 -95t-56.5 -83t-82.5 -59.5t-113.5 -22.5q-55 0 -107.5 19.5t-91.5 61.5t-62.5 107.5t-23.5 159.5zM94 1196q0 84 43 143.5t135 59.5q59 0 90 -21.5t49.5 -48t34 -48t39.5 -21.5q37 0 47.5 17t16.5 38.5t16 39t43 17.5 q29 0 43.5 -20.5t14.5 -46.5q0 -74 -50.5 -116t-126.5 -42q-57 0 -86.5 21.5t-49 46t-35 46t-42.5 21.5q-41 0 -52 -22.5t-15 -48t-13.5 -48t-45.5 -22.5q-23 0 -39.5 16t-16.5 39zM166 594q0 -31 8 -73t26.5 -80t50.5 -65.5t79 -27.5q63 0 106 48t66 120q-45 2 -93.5 13.5 t-92.5 34t-78.5 55t-57.5 77.5q-6 -27 -10 -52.5t-4 -49.5zM272 823q0 -49 20.5 -92t54.5 -73.5t79 -48t92 -17.5q2 18 3 37.5t1 38.5q0 63 -12 118.5t-33.5 96.5t-48.5 64.5t-55 23.5q-25 0 -44.5 -17.5t-31.5 -42t-18.5 -49.5t-6.5 -39z" />
<glyph unicode="&#xf6;" horiz-adv-x="757" d="M-4 608q0 84 17.5 146.5t45 104.5t60.5 62.5t63 20.5q18 43 57.5 76t106.5 33q66 0 111 -39t73.5 -96.5t42 -125t13.5 -126.5v-26.5t-2 -29.5q47 18 87 53t72.5 71t56 66.5t36.5 39.5q10 6 18 6q16 0 33.5 -15.5t17.5 -33.5q0 -29 -14 -45.5t-33 -32.5q-39 -35 -72.5 -68 t-67.5 -58.5t-70 -44t-81 -26.5q-12 -49 -33.5 -95t-56.5 -83t-83 -59.5t-113 -22.5q-55 0 -107.5 19.5t-91.5 61.5t-62.5 107.5t-23.5 159.5zM166 594q0 -31 8 -73t26.5 -80t50.5 -65.5t79 -27.5q63 0 106 48t66 120q-45 2 -93.5 13.5t-92.5 34t-78.5 55t-57.5 77.5 q-6 -27 -10 -52.5t-4 -49.5zM215 1212q0 29 16.5 45.5t44.5 16.5q29 0 45.5 -16.5t16.5 -45.5t-16.5 -45t-45.5 -16t-45 16t-16 45zM272 823q0 -49 20.5 -92t54.5 -73.5t79 -48t92 -17.5q2 18 3 37.5t1 38.5q0 63 -12 118.5t-33.5 96.5t-48.5 64.5t-55 23.5 q-25 0 -44.5 -17.5t-31.5 -42t-18.5 -49.5t-6.5 -39zM420 1212q0 29 16.5 45.5t44.5 16.5q29 0 45.5 -16.5t16.5 -45.5t-16.5 -45t-45.5 -16t-45 16t-16 45z" />
<glyph unicode="&#xf7;" horiz-adv-x="1048" d="M109 1026q0 23 16 40t39 17h663q23 0 40.5 -17t17.5 -40t-17.5 -39t-40.5 -16h-663q-23 0 -39 16.5t-16 38.5zM442 684q0 35 19.5 55.5t54.5 20.5t55.5 -20.5t20.5 -55.5t-20.5 -54.5t-55.5 -19.5t-54.5 19.5t-19.5 54.5zM442 1403q0 35 19.5 55.5t54.5 20.5t55.5 -20.5 t20.5 -55.5t-20.5 -54.5t-55.5 -19.5t-54.5 19.5t-19.5 54.5z" />
<glyph unicode="&#xf8;" horiz-adv-x="757" d="M-4 608q0 84 17.5 146.5t45 104.5t60.5 62.5t63 20.5q18 43 57.5 76t106.5 33q41 0 70 -15l69 232q4 12 8.5 29.5t10.5 34t15 27.5t26 11q16 0 40.5 -11t24.5 -28q0 -10 -11 -48t-24.5 -83t-26.5 -86t-20 -57l-28 -92q47 -61 66.5 -145.5t19.5 -155.5v-26.5t-2 -29.5 q47 18 87 53t72.5 71t56 66.5t36.5 39.5q10 6 18 6q16 0 33.5 -15.5t17.5 -33.5q0 -29 -14 -45.5t-33 -32.5q-39 -35 -72.5 -68t-67.5 -58.5t-70 -44t-81 -26.5q-12 -47 -33.5 -93t-55.5 -83t-81 -60.5t-112 -23.5l-54 -172q-10 -37 -19 -58.5t-18.5 -30.5t-20.5 -11t-28 -2 q-16 0 -27.5 11t-11.5 28q0 8 8.5 38.5t20.5 68.5t25.5 78t21.5 66q-78 29 -132 108t-54 224zM166 594q0 -37 12 -92.5t45 -95.5l56 180q-66 47 -99 110q-6 -27 -10 -52.5t-4 -49.5zM272 823q0 -68 41 -125l80 269q-12 4 -20 4q-25 0 -44.5 -17.5t-31.5 -42t-18.5 -49 t-6.5 -39.5zM313 350q4 -2 17 -2q63 0 106 48t66 120q-33 2 -66 7t-65 18zM395 623q29 -18 58.5 -24.5t64.5 -6.5q2 18 3 37.5t1 38.5q0 66 -12 120t-35 95z" />
<glyph unicode="&#xf9;" horiz-adv-x="821" d="M10 637q0 33 3 94.5t8.5 122.5t11.5 110.5t12 57.5q16 23 74 22q39 0 60.5 -15t15.5 -79q0 -8 -3.5 -36.5t-6.5 -68.5t-6 -86t-3 -89q0 -14 1 -58.5t9.5 -90.5t25.5 -82t50 -36q35 0 60.5 40t45 100.5t33 133.5t21.5 137.5t12 112.5t6 60q2 16 20.5 22.5t35.5 6.5 q10 0 27.5 -3t33.5 -7.5t28.5 -11.5t12.5 -15q0 -94 -12.5 -195.5t-12.5 -191.5v-58.5t4.5 -63.5t17.5 -50.5t38 -20.5q33 0 60.5 33t52 82t47 106.5t43 106.5t41 82t41.5 33q23 0 37 -15.5t14 -29.5q0 -8 -2 -23.5t-5.5 -33t-6.5 -33t-7 -25.5q-18 -51 -48 -116.5t-72 -122 t-97 -95.5t-127 -39q-49 0 -84 20.5t-54.5 56.5t-25.5 84t0 103q-10 -31 -24.5 -74.5t-39 -83.5t-60 -69t-91.5 -29q-49 0 -89 26t-67.5 70t-43 102.5t-15.5 121.5zM308 1328.5q5 19.5 32 27.5q6 2 14 2q18 0 29.5 -13.5t15.5 -33.5q8 -29 25.5 -50.5t36 -37t33 -28 t18.5 -24.5q4 -18 -6 -34.5t-27 -22.5q-2 0 -4 -1t-4 -1q-23 0 -48.5 18.5t-48 45t-40 57.5t-23.5 53q-8 23 -3 42.5z" />
<glyph unicode="&#xfa;" horiz-adv-x="821" d="M10 637q0 33 3 94.5t8.5 122.5t11.5 110.5t12 57.5q16 23 74 22q39 0 60.5 -15t15.5 -79q0 -8 -3.5 -36.5t-6.5 -68.5t-6 -86t-3 -89q0 -14 1 -58.5t9.5 -90.5t25.5 -82t50 -36q35 0 60.5 40t45 100.5t33 133.5t21.5 137.5t12 112.5t6 60q2 16 20.5 22.5t35.5 6.5 q10 0 27.5 -3t33.5 -7.5t28.5 -11.5t12.5 -15q0 -94 -12.5 -195.5t-12.5 -191.5v-58.5t4.5 -63.5t17.5 -50.5t38 -20.5q33 0 60.5 33t52 82t47 106.5t43 106.5t41 82t41.5 33q23 0 37 -15.5t14 -29.5q0 -8 -2 -23.5t-5.5 -33t-6.5 -33t-7 -25.5q-18 -51 -48 -116.5t-72 -122 t-97 -95.5t-127 -39q-49 0 -84 20.5t-54.5 56.5t-25.5 84t0 103q-10 -31 -24.5 -74.5t-39 -83.5t-60 -69t-91.5 -29q-49 0 -89 26t-67.5 70t-43 102.5t-15.5 121.5zM309 1151q4 12 18.5 24.5t33 28t36 37t25.5 49.5q4 20 15.5 33.5t29.5 13.5q8 0 14 -2q25 -8 30 -27.5 t-1 -41.5q-14 -45 -33 -72q-10 -14 -25.5 -31.5t-34 -33t-38 -25.5t-37.5 -10q-18 6 -28.5 22.5t-4.5 34.5z" />
<glyph unicode="&#xfb;" horiz-adv-x="821" d="M10 637q0 33 3 94.5t8.5 122.5t11.5 110.5t12 57.5q16 23 74 22q39 0 60.5 -15t15.5 -79q0 -8 -3.5 -36.5t-6.5 -68.5t-6 -86t-3 -89q0 -14 1 -58.5t9.5 -90.5t25.5 -82t50 -36q35 0 60.5 40t45 100.5t33 133.5t21.5 137.5t12 112.5t6 60q2 16 20.5 22.5t35.5 6.5 q10 0 27.5 -3t33.5 -7.5t28.5 -11.5t12.5 -15q0 -94 -12.5 -195.5t-12.5 -191.5v-58.5t4.5 -63.5t17.5 -50.5t38 -20.5q33 0 60.5 33t52 82t47 106.5t43 106.5t41 82t41.5 33q23 0 37 -15.5t14 -29.5q0 -8 -2 -23.5t-5.5 -33t-6.5 -33t-7 -25.5q-18 -51 -48 -116.5t-72 -122 t-97 -95.5t-127 -39q-49 0 -84 20.5t-54.5 56.5t-25.5 84t0 103q-10 -31 -24.5 -74.5t-39 -83.5t-60 -69t-91.5 -29q-49 0 -89 26t-67.5 70t-43 102.5t-15.5 121.5zM244 1157q4 12 18 25.5t32.5 29t36 37t25.5 49.5q10 31 22.5 39.5t43.5 8.5q18 0 28.5 -13.5t16.5 -34.5 q8 -29 25.5 -50t36 -36.5t32.5 -28t19 -24.5q4 -18 -5.5 -34.5t-27.5 -22.5q-18 0 -38 10t-38 25.5t-33.5 33t-25.5 31.5q-6 -10 -21.5 -26.5t-33 -33t-36 -28.5t-34.5 -12q-6 0 -11 2q-18 4 -27 20.5t-5 32.5z" />
<glyph unicode="&#xfc;" horiz-adv-x="821" d="M10 637q0 33 3 94.5t8.5 122.5t11.5 110.5t12 57.5q16 23 74 22q39 0 60.5 -15t15.5 -79q0 -8 -3.5 -36.5t-6.5 -68.5t-6 -86t-3 -89q0 -14 1 -58.5t9.5 -90.5t25.5 -82t50 -36q35 0 60.5 40t45 100.5t33 133.5t21.5 137.5t12 112.5t6 60q2 16 20.5 22.5t35.5 6.5 q10 0 27.5 -3t33.5 -7.5t28.5 -11.5t12.5 -15q0 -94 -12.5 -195.5t-12.5 -191.5v-58.5t4.5 -63.5t17.5 -50.5t38 -20.5q33 0 60.5 33t52 82t47 106.5t43 106.5t41 82t41.5 33q23 0 37 -15.5t14 -29.5q0 -8 -2 -23.5t-5.5 -33t-6.5 -33t-7 -25.5q-18 -51 -48 -116.5t-72 -122 t-97 -95.5t-127 -39q-49 0 -84 20.5t-54.5 56.5t-25.5 84t0 103q-10 -31 -24.5 -74.5t-39 -83.5t-60 -69t-91.5 -29q-49 0 -89 26t-67.5 70t-43 102.5t-15.5 121.5zM248 1212q0 29 16.5 45.5t44.5 16.5q29 0 45.5 -16.5t16.5 -45.5t-16.5 -45t-45.5 -16t-45 16t-16 45z M453 1212q0 29 16 45.5t45 16.5t45 -16.5t16 -45.5t-16 -45t-45 -16t-45 16t-16 45z" />
<glyph unicode="&#xfd;" horiz-adv-x="708" d="M-188 -223q0 117 57 200.5t148.5 140t202 89.5t216.5 47q-6 68 -12 134.5t-10 135.5q-31 -76 -71 -132t-107 -56q-78 0 -123 37t-67.5 90t-29 112.5t-6.5 104.5q0 16 3 67.5t8.5 108.5t10.5 104.5t11 55.5q10 12 23.5 20t37.5 8q6 0 18.5 -1t25 -5t21.5 -10t9 -18 q0 -23 2 -54.5t-2 -54.5q-6 -55 -11 -110.5t-5 -110.5q0 -18 2 -65.5t9 -95.5t21.5 -86t41.5 -38q39 0 68.5 40t52 99.5t38 126t25.5 121.5q2 76 7 139.5t13 77.5q12 23 29.5 38.5t46.5 15.5q27 0 57.5 -20.5t30.5 -49.5q0 -100 -10 -198.5t-10 -198.5q0 -80 8 -160t18 -160 h21h37q31 0 60.5 -7t29.5 -42q0 -20 -12.5 -24.5t-28.5 -4.5h-47.5t-51.5 -2q4 -43 7.5 -85t3.5 -85q0 -100 -25.5 -204.5t-80 -189.5t-138.5 -139t-201 -54q-74 0 -141.5 25.5t-118.5 71.5t-81.5 109.5t-30.5 141.5zM-20 -207q0 -51 16 -103t48 -94t77 -69t100 -27 q80 0 127 59.5t69.5 142.5t29 170t6.5 144q0 76 -7 150q-86 -14 -169.5 -41t-149.5 -72t-106.5 -108.5t-40.5 -151.5zM254 1151q4 12 18.5 24.5t33 28t35.5 37t26 49.5q4 20 15 33.5t30 13.5q8 0 14 -2q25 -8 30 -27.5t-1 -41.5q-14 -45 -33 -72q-10 -14 -25.5 -31.5 t-34 -33t-38 -25.5t-37.5 -10q-18 6 -28.5 22.5t-4.5 34.5z" />
<glyph unicode="&#xfe;" horiz-adv-x="780" d="M-12 -86q0 176 4 338t10 270q4 53 7 127t7 156t7.5 166t8.5 157.5t9 132t10 89.5q4 29 34 44t67 15q23 0 51 -5t28 -28q0 -8 -2 -45t-4 -86t-5 -106.5t-6 -106.5t-6 -86t-3 -45q-4 -41 -7 -80t-8 -80q18 51 43 101.5t58 90.5t77 64.5t99 24.5q90 0 153.5 -68.5 t63.5 -205.5q0 -86 -26.5 -161t-72.5 -132.5t-107.5 -90t-129.5 -32.5q-66 0 -109.5 26.5t-66.5 61.5q-6 -123 -8 -253t-2 -253q0 -59 2 -119.5t6 -120.5q2 -25 5 -49t3 -49q0 -23 -17.5 -39t-39.5 -16q-8 0 -26.5 3t-37 7t-33 11t-18.5 16q-4 10 -8 60t-6 109.5t-3 114 t-1 72.5zM209 545q0 -23 8 -49.5t22.5 -49t36 -37t52.5 -14.5q47 0 80.5 38t55 93.5t32 117t10.5 110.5q0 10 -1 40.5t-8.5 64.5t-21.5 60.5t-41 26.5q-31 0 -63.5 -36t-63.5 -93t-56.5 -129t-41.5 -143z" />
<glyph unicode="&#xff;" horiz-adv-x="708" d="M-188 -223q0 117 57 200.5t148.5 140t202 89.5t216.5 47q-6 68 -12 134.5t-10 135.5q-31 -76 -71 -132t-107 -56q-78 0 -123 37t-67.5 90t-29 112.5t-6.5 104.5q0 16 3 67.5t8.5 108.5t10.5 104.5t11 55.5q10 12 23.5 20t37.5 8q6 0 18.5 -1t25 -5t21.5 -10t9 -18 q0 -23 2 -54.5t-2 -54.5q-6 -55 -11 -110.5t-5 -110.5q0 -18 2 -65.5t9 -95.5t21.5 -86t41.5 -38q39 0 68.5 40t52 99.5t38 126t25.5 121.5q2 76 7 139.5t13 77.5q12 23 29.5 38.5t46.5 15.5q27 0 57.5 -20.5t30.5 -49.5q0 -100 -10 -198.5t-10 -198.5q0 -80 8 -160t18 -160 h21h37q31 0 60.5 -7t29.5 -42q0 -20 -12.5 -24.5t-28.5 -4.5h-47.5t-51.5 -2q4 -43 7.5 -85t3.5 -85q0 -100 -25.5 -204.5t-80 -189.5t-138.5 -139t-201 -54q-74 0 -141.5 25.5t-118.5 71.5t-81.5 109.5t-30.5 141.5zM-20 -207q0 -51 16 -103t48 -94t77 -69t100 -27 q80 0 127 59.5t69.5 142.5t29 170t6.5 144q0 76 -7 150q-86 -14 -169.5 -41t-149.5 -72t-106.5 -108.5t-40.5 -151.5zM190 1212q0 29 16.5 45.5t45.5 16.5t45 -16.5t16 -45.5t-16 -45t-45 -16t-45.5 16.5t-16.5 44.5zM395 1212q0 29 16.5 45.5t45.5 16.5t45 -16.5t16 -45.5 t-16 -45t-45 -16t-45.5 16.5t-16.5 44.5z" />
<glyph unicode="&#x110;" horiz-adv-x="1179" d="M29 834q0 23 6 42t28 19h101q2 160 7 320.5t22 320.5q-12 -2 -24.5 -3t-27.5 -1q-25 0 -41 12t-23 27.5t-6 33t13 25.5q8 8 43 12.5t80 8.5v2q6 23 21.5 42t66.5 19q43 0 81 -14t44 -35q14 2 27.5 2h27.5q152 0 279 -40t218 -122t141 -202.5t50 -284.5q0 -170 -53 -317.5 t-143 -270.5t-211 -220t-254 -165q-31 -14 -72 -33.5t-82 -36t-73.5 -27.5t-49.5 -11q-27 0 -37 24.5t-10 46.5q0 25 23 33q4 10 2 17.5t-2 17.5q-23 178 -30 352t-7 354h-101q-23 0 -28.5 14.5t-5.5 37.5zM373 782q0 -166 5 -329.5t25 -329.5q23 10 42.5 20.5t39.5 22.5 q96 55 179.5 146t145.5 202t98 233.5t36 241.5t-39 224.5t-109.5 184.5t-170 125t-222.5 46l-2 -19q-14 -166 -20 -327.5t-8 -327.5h41q23 0 31 -14.5t8 -36.5q0 -23 -8.5 -42.5t-30.5 -19.5h-41z" />
<glyph unicode="&#x111;" horiz-adv-x="735" d="M4 637q0 84 23.5 154.5t64.5 123t96.5 82t118.5 29.5q70 0 111 -30.5t55 -61.5q0 4 1 50t5 118h-18q-10 0 -24.5 -1t-30.5 -1q-35 0 -65 10t-30 49q0 37 37 53q4 2 45 3.5t90 3.5q4 92 7.5 191t6.5 182t6 136.5t5 55.5q10 10 35.5 16t42.5 6q12 0 29.5 -4t35 -11 t28.5 -18.5t11 -27.5q0 -8 -3 -55.5t-7 -120t-9 -163.5t-12 -187q10 0 19.5 1t19.5 1q35 0 65 -10.5t30 -49.5q0 -18 -11.5 -31.5t-27.5 -21.5q-4 -2 -33 -3t-68 -1q-6 -127 -10 -239.5t-4 -188.5q0 -59 3 -118.5t6 -111t5 -91.5t2 -58q0 -41 -14 -64.5t-57 -23.5 q-29 0 -47.5 27.5t-29.5 70.5t-16.5 95.5t-6.5 100.5t0 88t1 56q-10 -31 -28.5 -85t-48 -107.5t-71.5 -92t-101 -38.5q-37 0 -78 18t-75 56t-56.5 97.5t-22.5 141.5zM211 588q0 -72 11 -120t46 -48q31 0 60.5 40t55.5 98t45.5 124t27.5 115q0 23 -2 49t-9.5 50t-24.5 39 t-48 15q-41 0 -72 -34.5t-50.5 -88t-29.5 -117t-10 -122.5z" />
<glyph unicode="&#x131;" horiz-adv-x="423" d="M6 580q0 12 2 48t4 83t6.5 99t7.5 96t6 76t5 36q8 16 37.5 23.5t58.5 7.5q88 0 88 -50q0 -29 -3 -54t-7 -54l-12 -156t-6 -155q0 -20 1 -48t7 -52.5t18 -41t37 -16.5q23 0 41 13.5t33.5 33.5t29 44t21.5 44q8 18 23.5 59t32 85t31.5 81t21 45q2 2 2.5 3t2.5 4l4 4 q8 4 16 4q10 0 21.5 -5.5t19.5 -15.5q10 -10 10 -22v-4q0 -6 -1 -12.5t-1 -14.5q-4 -23 -8 -49.5t-8 -36.5q-14 -41 -30.5 -87t-39.5 -93q-4 -10 -12 -27q-2 -4 -4 -9t-4 -9l-2 2q-37 -63 -92.5 -106.5t-135.5 -43.5q-59 0 -101 24.5t-68.5 63.5t-39 87t-12.5 96z" />
<glyph unicode="&#x141;" horiz-adv-x="813" d="M-3 514q-1 19 9 25l154 86q-2 92 -2 165.5v108.5q0 27 1 88.5t4 140t7 165.5t9 162t12.5 130t15.5 72q10 16 24.5 27.5t55.5 11.5q49 0 85 -14.5t31 -32.5q-33 -229 -39 -456.5t-6 -459.5l189 105q2 2 8 2q27 0 45 -35q12 -23 12 -41.5t-10 -24.5l-242 -135 q2 -90 5.5 -178t9.5 -178q2 -25 6 -54.5t10 -62.5q6 2 25 2q150 0 284 8.5t283 8.5q23 0 28 -16.5t5 -35.5q0 -20 -8.5 -39.5t-32.5 -19.5q-123 0 -235.5 -10.5t-237.5 -10.5q-14 0 -40 -1t-56 -3v-18q0 -23 -38 -39t-83 -16q-49 0 -64.5 19.5t-25.5 59.5q-25 8 -33 18.5 t-8 39.5q0 16 6 32.5t22 22.5q-8 76 -11 170t-7 193l-103 -58q-35 0 -53 37q-10 20 -11 39z" />
<glyph unicode="&#x142;" horiz-adv-x="339" d="M-133 790.5q-2 18.5 8 24.5l178 115q0 43 1 110.5t5 148.5t9.5 168t13.5 166t19.5 142.5t25.5 97.5q6 16 11 26.5t24 10.5q12 0 30.5 -2t36 -7t29.5 -12t12 -20q0 -23 -2 -33t-6 -32q-27 -160 -40 -334t-17 -334l190 123q2 2 11 2q25 0 45 -33q12 -18 14 -37.5t-8 -25.5 l-252 -162q2 -127 11 -256t21.5 -239.5t27 -194.5t28.5 -123q4 -10 -5 -20.5t-24.5 -17.5t-33 -12t-29.5 -5q-29 0 -49 26q-14 20 -26.5 75.5t-23 129.5t-18.5 159t-14.5 160.5t-9.5 136t-5 85.5l-118 -78q-18 0 -31 8.5t-25 24.5q-12 20 -14 38.5z" />
<glyph unicode="&#x152;" horiz-adv-x="2050" d="M94 766q0 82 13.5 183.5t42 204.5t75.5 201.5t115 175.5t160 123t209 46q100 0 179 -34t140 -93q4 20 23 29q25 12 90 18q4 14 5 23.5t5 13.5q10 16 24.5 27.5t55.5 11.5q49 0 85 -14.5t32 -32.5q0 -4 -1 -6.5t-1 -4.5h8q88 6 179 10.5t173 7.5t146.5 4t97.5 1 q23 0 32 -18.5t9 -40.5q0 -20 -3 -31.5t-20 -20.5q-2 -2 -29.5 -3t-68.5 -3t-89 -3t-92 -2t-79 -2t-47 -1q-55 -4 -111.5 -5t-114.5 -5h-6q-16 -154 -22 -309.5t-6 -309.5l20 2q41 4 74 4h49t74.5 -1t124 -2t119 -3t57.5 -4q16 -8 27.5 -21.5t11.5 -31.5q0 -23 -17.5 -40 t-40.5 -17q-90 0 -178 4t-178 4h-72t-71 -2q0 -139 3 -276.5t13 -274.5q2 -25 6 -54.5t10 -60.5h25q150 0 294 8.5t294 8.5q23 0 27.5 -16.5t4.5 -35.5q0 -20 -8 -39.5t-33 -19.5q-123 0 -245.5 -10.5t-247.5 -10.5q-12 0 -38 -1t-58 -1v-20q0 -23 -38 -39t-83 -16 q-41 0 -62.5 16t-25.5 57q-29 2 -49.5 5.5t-30.5 7.5q-16 10 -20.5 21t-4.5 30q0 20 9.5 38.5t33.5 18.5q23 0 47 -6q-4 27 -5 56.5t-3 60.5q-35 -72 -80 -133.5t-101 -107.5t-124.5 -71.5t-150.5 -25.5q-100 0 -182.5 39t-145 105.5t-108.5 152.5t-74.5 181t-43 193.5 t-14.5 186.5zM340 735q0 -66 5 -144.5t18.5 -158.5t37 -155.5t60.5 -134t88 -94.5t121 -36q80 0 138 47t98 122t65.5 169t39 190.5t18.5 185.5t5 151q0 111 -14 239.5t-51 238t-100.5 182.5t-161.5 73q-76 0 -133.5 -45t-98.5 -120t-67.5 -168t-41 -190.5t-20.5 -189.5 t-6 -162zM1094 1495q8 -10 15 -21.5t13 -23.5q2 14 3 26.5t1 24.5q-8 -2 -15 -3t-17 -3z" />
<glyph unicode="&#x153;" horiz-adv-x="1212" d="M-4 608q0 84 17.5 146.5t45 104.5t60.5 62.5t63 20.5q18 43 57.5 76t106.5 33q43 0 78 -18.5t61.5 -48.5t46 -70t31.5 -83q33 80 92.5 137.5t145.5 57.5q84 0 140 -55.5t56 -143.5q0 -55 -23.5 -93t-58 -60.5t-76.5 -31.5t-77 -9q-16 0 -29.5 1t-23.5 3q0 -47 8 -90 t25.5 -77t46 -54.5t71.5 -20.5q53 0 101.5 30t91.5 75t79.5 98t64.5 101.5t45.5 83t21.5 40.5q8 10 13 14.5t17 4.5q51 0 52 -51q0 -23 -10.5 -58t-20.5 -57q-33 -63 -84 -129t-115.5 -119t-140.5 -86t-160 -33q-88 0 -157.5 41t-104.5 119q-14 -41 -37.5 -79t-57.5 -66.5 t-78 -46t-99 -17.5t-107.5 19.5t-91.5 61.5t-62.5 107.5t-23.5 159.5zM166 594q0 -31 8 -73t26.5 -80t50.5 -65.5t79 -27.5q63 0 106 48t66 120q-45 2 -93.5 13.5t-92.5 34t-78.5 55t-57.5 77.5q-6 -27 -10 -52.5t-4 -49.5zM272 823q0 -51 20.5 -93t54.5 -72.5t78 -48 t93 -17.5q2 18 3 37.5t1 38.5q0 63 -12 118.5t-33.5 96.5t-48 64.5t-55.5 23.5q-25 0 -44.5 -17.5t-31.5 -42t-18.5 -49t-6.5 -39.5zM711 682q23 -6 41 -6q29 0 53 18.5t41.5 45t28 59t10.5 59.5q0 39 -16.5 60.5t-39.5 21.5t-43 -21.5t-35.5 -58.5t-25.5 -83t-14 -95z" />
<glyph unicode="&#x160;" horiz-adv-x="1245" d="M115 1006q0 143 61.5 265t157.5 211t216 139t236 50q102 0 175 -37t118 -94t65.5 -126t20.5 -132q0 -45 -10 -101.5t-29.5 -105.5t-47 -81.5t-64.5 -32.5q-12 0 -29.5 5t-34 14t-28 19.5t-11.5 22.5q0 18 17.5 34.5t39 46.5t39 81t17.5 139q0 20 -2 60t-19.5 79t-55.5 68 t-111 29q-94 0 -182.5 -51.5t-156 -130.5t-107.5 -174t-40 -185q0 -86 38 -139.5t99.5 -86t139.5 -51t159.5 -35t159.5 -36t139.5 -55t99.5 -93t38 -149.5q0 -115 -57.5 -200t-144.5 -142.5t-193.5 -85t-204.5 -27.5q-96 0 -183.5 26.5t-153 76t-103.5 120t-38 160.5 q0 16 1 38.5t9.5 43t25 34t46.5 13.5q35 0 72 -17.5t37 -39.5q0 -18 -4 -36t-4 -36q0 -135 71.5 -202.5t210.5 -67.5q80 0 149.5 22.5t122 65.5t82 104.5t29.5 136.5q0 88 -37.5 137.5t-99 76t-140.5 38t-162 21.5t-162 27.5t-140.5 56.5t-99 107.5t-37.5 181.5zM455 2048 q-4 16 5 33.5t27 21.5q2 0 4.5 1t4.5 1q16 0 35.5 -12t37 -28.5t32.5 -34t22 -27.5q6 10 21 27.5t32.5 34t37 28.5t36.5 12q2 0 4 -1t4 -1q16 -4 26.5 -21.5t6.5 -33.5q-2 -12 -17.5 -25.5t-34 -29t-36 -36t-25.5 -50.5q-8 -25 -17.5 -35t-37.5 -10q-4 -2 -13 -2 q-18 0 -28.5 14t-14.5 33q-8 31 -25.5 51t-36 35.5t-32.5 29t-18 25.5z" />
<glyph unicode="&#x161;" horiz-adv-x="681" d="M29 301q0 37 21.5 72t58 69.5t86 68.5t102.5 64q-41 31 -86 62t-82 63.5t-61.5 69.5t-24.5 80q0 37 19.5 72.5t52 62.5t74.5 43t87 16t83 -15t66 -40.5t44 -60.5t16 -72q0 -27 -14 -45t-43 -18q-37 0 -48 19t-18 48q-2 12 -7 30.5t-13 36t-20.5 30t-30.5 12.5 q-31 0 -51.5 -32t-20.5 -65q0 -31 19.5 -59.5t51.5 -56t70.5 -54t77.5 -55.5q98 49 181 88t116 66q18 16 27.5 28.5t21.5 12.5q23 0 40.5 -13.5t17.5 -29.5q0 -29 -27 -51q-33 -29 -118 -69t-183 -91q41 -37 67.5 -78t26.5 -90q0 -57 -35.5 -108.5t-91 -89.5t-120 -60.5 t-121.5 -22.5q-45 0 -84 13.5t-67 37t-44 52t-16 59.5zM174 1286q-4 16 5 33.5t28 21.5q2 0 4 1t4 1q16 0 35.5 -12t37 -28.5t33 -34t21.5 -27.5q6 10 21.5 27.5t33 34t37 28.5t35.5 12q2 0 4 -1t4 -1q16 -4 26.5 -21t6.5 -34q-2 -12 -17.5 -25.5t-34 -28.5t-35.5 -35.5 t-26 -51.5q-8 -25 -17 -35t-38 -10q-4 -2 -12 -2q-18 0 -28.5 14t-14.5 33q-8 31 -25.5 51.5t-36 35.5t-33 28.5t-18.5 25.5zM203 299q0 -27 15 -55.5t56 -28.5q33 0 59.5 20.5t46 50t30 63.5t10.5 59q0 29 -12.5 52t-32.5 46q-74 -47 -123 -99.5t-49 -107.5z" />
<glyph unicode="&#x178;" horiz-adv-x="1263" d="M143 1591q0 47 18.5 68.5t67.5 21.5q12 0 33 -3t40.5 -9t32.5 -17.5t13 -27.5v-163t6 -163q2 -39 6.5 -106.5t12.5 -145t23.5 -156.5t40 -142.5t62.5 -104.5t89 -41q57 0 108.5 48t94.5 124t78.5 171t62 187.5t43 173t22.5 130.5q2 12 5.5 46t8.5 69.5t9 65.5t8 36 q14 18 42 27.5t50 9.5q41 0 59.5 -14.5t24.5 -37t4 -51t-2 -57.5q0 -31 -7 -114t-19.5 -199.5t-29.5 -255t-34.5 -279.5t-36 -275.5t-36 -239t-32 -172t-22.5 -75.5q-14 -14 -42.5 -21.5t-57.5 -7.5q-47 0 -66.5 17.5t-19.5 40.5q0 16 6 51t14 77t16.5 86t14.5 79t14.5 89 t18.5 119.5t20.5 134t19.5 134t17 120t12 89.5q-20 -37 -59 -111t-97.5 -146.5t-133 -127t-164.5 -54.5q-94 0 -156.5 62.5t-102.5 161t-60.5 222.5t-29 246t-9.5 231.5t-1 178.5zM469 1974q0 29 16.5 45.5t44.5 16.5q29 0 45.5 -16.5t16.5 -45.5t-16.5 -45t-45.5 -16 t-45 16t-16 45zM674 1974q0 29 16.5 45.5t44.5 16.5q29 0 45.5 -16.5t16.5 -45.5t-16.5 -45t-45.5 -16t-45 16t-16 45z" />
<glyph unicode="&#x17d;" horiz-adv-x="1251" d="M98 49q0 14 42 88t107.5 180.5t143.5 230.5t148.5 234.5t125 195.5t70.5 112q72 117 155 234.5t148 238.5q-63 4 -141 6t-141 2q-98 0 -196.5 -2t-197.5 -10q-37 -4 -74.5 -10.5t-74.5 -6.5q-25 0 -33 19.5t-8 40.5q0 16 1 26t15 21q12 8 58.5 13t113 9t144.5 7t152.5 4 t137 2.5t97.5 1.5q53 0 112.5 -3.5t110.5 -11.5t85 -24.5t34 -44.5q0 -27 -32 -95.5t-84 -166t-120.5 -215t-144.5 -240.5t-153.5 -245t-147.5 -227.5t-126 -187.5t-89 -125q33 -2 52.5 -4t34.5 -4t34.5 -4t52.5 -2q61 0 129 1t137.5 4t136 9t127.5 15q12 2 37 9t49.5 14 t44 13.5t21.5 6.5q23 0 32 -24.5t9 -47.5q0 -39 -62.5 -61.5t-153.5 -35t-195.5 -15.5t-188.5 -3h-70t-97 1t-108.5 2t-103.5 4.5t-81 8.5t-44 11q-31 20 -31 51zM459 2048q-4 16 5.5 33.5t27.5 21.5q2 0 4 1t4 1q16 0 35.5 -12t37 -28.5t33 -34t21.5 -27.5q6 10 21.5 27.5 t32.5 34t36.5 28.5t36.5 12q2 0 4 -1t4 -1q16 -4 26.5 -21.5t6.5 -33.5q-2 -12 -17.5 -25.5t-34 -29t-36 -36t-25.5 -50.5q-8 -25 -17.5 -35t-37.5 -10q-4 -2 -13 -2q-18 0 -28.5 14t-14.5 33q-8 31 -25.5 51t-35.5 35.5t-32.5 29t-18.5 25.5z" />
<glyph unicode="&#x17e;" horiz-adv-x="690" d="M48 393.5q-1 14.5 3 20.5q23 35 51.5 65.5t57.5 61.5q78 88 151.5 179t132.5 193q-10 0 -18 1t-18 1q-63 0 -125 -4t-125 -4q-33 0 -51.5 6.5t-18.5 44.5q0 37 17.5 49.5t52.5 12.5q72 0 143 4t143 4q18 0 48 -1t59 -7t50.5 -20.5t21.5 -38.5q0 -20 -19.5 -62.5 t-50.5 -93.5t-70 -107.5t-77.5 -106.5t-73.5 -90t-60 -59l492 17q23 2 27 -15.5t4 -40.5q0 -20 -34 -34.5t-86 -23.5t-115.5 -15t-123 -8.5t-107.5 -3.5t-69 -1h-58.5t-58 1t-45 2.5t-22.5 3.5q-6 4 -12.5 15t-10.5 25.5t-5 29zM178 1286q-4 16 5.5 33.5t27.5 21.5q2 0 4 1 t4 1q16 0 35.5 -12t37 -28.5t33 -34t21.5 -27.5q6 10 21.5 27.5t33 34t37 28.5t35.5 12q2 0 4 -1t4 -1q16 -4 26.5 -21t6.5 -34q-2 -12 -17.5 -25.5t-34 -28.5t-35.5 -35.5t-26 -51.5q-8 -25 -17 -35t-38 -10q-4 -2 -12 -2q-18 0 -28.5 14t-14.5 33q-8 31 -25.5 51.5 t-36 35.5t-33 28.5t-18.5 25.5z" />
<glyph unicode="&#x192;" horiz-adv-x="550" d="M-156 35q0 23 17.5 39t40.5 16t37 -20.5t36 -20.5q20 0 39 28.5t34 73t27.5 98.5t21.5 106.5t15.5 96.5t8.5 68l55 422q4 29 8 65.5t9 82.5h-84q-23 0 -40.5 16t-17.5 39q0 18 11.5 31.5t27.5 21.5q4 2 37 3t80 3q12 90 34.5 184.5t60.5 170t96.5 124t144.5 48.5 q29 0 59.5 -9.5t56 -27t43 -42t17.5 -57.5q0 -23 -17.5 -39t-39.5 -16q-27 0 -36.5 16.5t-16.5 35t-19 34.5t-47 16q-41 0 -72 -41.5t-52.5 -106t-35.5 -141.5t-23 -147q47 2 84 2h52q23 0 40 -17t17 -40q0 -39 -39 -53q-10 -4 -58 -5t-110 -3q-4 -35 -6 -54l-72 -561 q-8 -61 -20 -149t-42 -168t-82 -136.5t-140 -56.5q-16 0 -41 2t-46.5 9.5t-37 20.5t-15.5 38z" />
<glyph unicode="&#x2c6;" horiz-adv-x="485" d="M86 1157q4 12 18.5 25.5t33 29t35.5 37t26 49.5q10 31 22 39.5t43 8.5q18 0 28.5 -13.5t16.5 -34.5q8 -29 25.5 -50t36 -36.5t33 -28t18.5 -24.5q4 -18 -5 -34.5t-28 -22.5q-18 0 -37.5 10t-38 25.5t-34 33t-25.5 31.5q-6 -10 -21.5 -26.5t-33 -33t-36 -28.5t-34.5 -12 q-6 0 -10 2q-18 4 -27.5 20.5t-5.5 32.5z" />
<glyph unicode="&#x2c7;" horiz-adv-x="561" d="M86 1286q-4 16 5.5 33.5t27.5 21.5q2 0 4 1t4 1q16 0 35.5 -12t37 -28.5t33 -34t21.5 -27.5q6 10 21.5 27.5t33 34t37 28.5t35.5 12q2 0 4 -1t4 -1q16 -4 26.5 -21t6.5 -34q-2 -12 -17.5 -25.5t-34 -28.5t-36 -35.5t-25.5 -51.5q-8 -25 -17 -35t-38 -10q-4 -2 -12 -2 q-18 0 -28.5 14t-14.5 33q-8 31 -25.5 51.5t-36 35.5t-33 28.5t-18.5 25.5z" />
<glyph unicode="&#x2d8;" horiz-adv-x="552" d="M66 1325q0 23 17 40t40 17q25 0 35 -10t15 -25.5t6 -33t3 -33.5q10 -49 43 -71.5t82 -22.5q59 0 99 37t40 96q0 29 9.5 55.5t46.5 26.5q35 0 46 -26.5t11 -55.5q0 -53 -19.5 -98t-53 -78t-80 -51.5t-99.5 -18.5q-115 0 -178 70.5t-63 181.5z" />
<glyph unicode="&#x2d9;" horiz-adv-x="305" d="M119 1186q0 29 16.5 45t44.5 16q29 0 45.5 -16.5t16.5 -44.5q0 -29 -16.5 -45.5t-45.5 -16.5t-45 16.5t-16 45.5z" />
<glyph unicode="&#x2da;" horiz-adv-x="458" d="M82 1192q0 72 52 116t122 44q14 0 33.5 -2t37 -9.5t30 -18.5t12.5 -30q0 -8 -2 -12q23 -23 22 -61q0 -35 -14.5 -68t-38 -59.5t-55 -42t-66.5 -15.5q-66 0 -99.5 49.5t-33.5 108.5zM174 1192q0 -18 8 -42t33 -24q33 0 57.5 32t22.5 63q-16 10 -30.5 16t-20.5 23 q-29 -4 -49.5 -20.5t-20.5 -47.5z" />
<glyph unicode="&#x2db;" horiz-adv-x="501" d="M102 -49q0 41 13.5 80t38 68.5t60.5 47t79 17.5q18 0 32.5 -14.5t14.5 -32.5q0 -27 -13.5 -34t-34 -10t-42 -12.5t-39.5 -37.5q-10 -16 -13 -35t-3 -37q0 -49 29.5 -79t76.5 -36q12 -2 25.5 -2t25.5 -4q31 -10 31 -43q0 -18 -14.5 -32.5t-32.5 -14.5q-47 0 -90 14.5 t-75 41t-50.5 65.5t-18.5 90z" />
<glyph unicode="&#x2dc;" horiz-adv-x="636" d="M39 1196q0 84 43 143.5t135 59.5q59 0 90 -21.5t49.5 -48t34 -48t39.5 -21.5q37 0 47 17t16.5 38.5t16.5 39t43 17.5q29 0 43 -20.5t14 -46.5q0 -74 -50 -116t-126 -42q-57 0 -87 21.5t-49 46t-34.5 46t-42.5 21.5q-41 0 -52 -22.5t-15 -48t-13.5 -48t-46.5 -22.5 q-23 0 -39 16.5t-16 38.5z" />
<glyph unicode="&#x2dd;" horiz-adv-x="557" d="M135 1128q4 12 18.5 24.5t33 28t36 37t25.5 50.5q4 20 15 33.5t30 13.5q8 0 14 -2q25 -8 30 -27.5t-1 -42.5t-23.5 -52.5t-40 -57t-47 -46t-49.5 -18.5q-2 0 -4 1t-4 1q-18 6 -28.5 22.5t-4.5 34.5zM272 1126q4 12 18.5 24.5t33 28t36 37t25.5 50.5q4 20 15.5 33.5 t29.5 13.5q8 0 14 -2q27 -8 31 -27.5t-2 -42.5q-6 -25 -22.5 -54.5t-40 -55t-51 -44t-54.5 -18.5q-18 6 -27.5 22.5t-5.5 34.5z" />
<glyph unicode="&#x2000;" horiz-adv-x="1103" />
<glyph unicode="&#x2001;" horiz-adv-x="2206" />
<glyph unicode="&#x2002;" horiz-adv-x="1103" />
<glyph unicode="&#x2003;" horiz-adv-x="2206" />
<glyph unicode="&#x2004;" horiz-adv-x="735" />
<glyph unicode="&#x2005;" horiz-adv-x="551" />
<glyph unicode="&#x2006;" horiz-adv-x="367" />
<glyph unicode="&#x2007;" horiz-adv-x="367" />
<glyph unicode="&#x2008;" horiz-adv-x="275" />
<glyph unicode="&#x2009;" horiz-adv-x="441" />
<glyph unicode="&#x200a;" horiz-adv-x="122" />
<glyph unicode="&#x2010;" horiz-adv-x="673" d="M195 731q0 23 6 42.5t28 19.5h351q23 0 30.5 -14.5t7.5 -37.5t-8 -42t-30 -19h-351q-23 0 -28.5 14.5t-5.5 36.5z" />
<glyph unicode="&#x2011;" horiz-adv-x="673" d="M195 731q0 23 6 42.5t28 19.5h351q23 0 30.5 -14.5t7.5 -37.5t-8 -42t-30 -19h-351q-23 0 -28.5 14.5t-5.5 36.5z" />
<glyph unicode="&#x2012;" horiz-adv-x="673" d="M195 731q0 23 6 42.5t28 19.5h351q23 0 30.5 -14.5t7.5 -37.5t-8 -42t-30 -19h-351q-23 0 -28.5 14.5t-5.5 36.5z" />
<glyph unicode="&#x2013;" horiz-adv-x="794" d="M76 696q0 23 9 39.5t19 16.5h619q12 0 21.5 -16.5t9.5 -39.5t-9.5 -40t-21.5 -17h-619q-10 0 -19 17.5t-9 39.5z" />
<glyph unicode="&#x2014;" horiz-adv-x="1257" d="M47 688q0 23 12.5 39t32.5 16h1000q18 0 32.5 -16t14.5 -39t-14.5 -40t-32.5 -17h-1000q-20 0 -32.5 17.5t-12.5 39.5z" />
<glyph unicode="&#x2018;" horiz-adv-x="231" d="M78 1606q0 20 12 43.5t30.5 43t41 32t43.5 12.5q20 0 19 -13.5t-10 -33t-20.5 -42t-11.5 -42.5t-13 -37t-36 -17t-39 15.5t-16 38.5z" />
<glyph unicode="&#x2019;" horiz-adv-x="245" d="M26 1565.5q1 13.5 10 33t20.5 43t11.5 41.5q0 20 13 37t38 17q23 0 38 -15.5t15 -38.5q0 -20 -11 -43.5t-29.5 -43t-41 -32t-45.5 -12.5q-20 0 -19 13.5z" />
<glyph unicode="&#x201a;" horiz-adv-x="360" d="M153 193.5q1 13.5 10 33t20.5 42t11.5 42.5t13 37t38 17q23 0 38 -15.5t15 -40.5q0 -20 -11.5 -43.5t-29.5 -42t-40.5 -31t-45.5 -12.5q-20 0 -19 13.5z" />
<glyph unicode="&#x201c;" horiz-adv-x="339" d="M51 1606q0 23 11.5 45t30 41.5t41 32t44.5 12.5q20 0 18.5 -13.5t-11 -33t-20.5 -42t-11 -42.5t-13.5 -37t-36.5 -17t-38 15.5t-15 38.5zM195 1606q0 23 11 45t29.5 41.5t41 32t45.5 12.5q20 0 19 -13.5t-10 -33t-20.5 -42t-11.5 -42.5t-13.5 -37t-37.5 -17 q-23 0 -38 15.5t-15 38.5z" />
<glyph unicode="&#x201d;" horiz-adv-x="362" d="M1 1565.5q1 13.5 10 33t20.5 43t11.5 41.5q0 20 13.5 37t37.5 17q23 0 38 -15.5t15 -38.5q0 -20 -11 -43.5t-29.5 -43t-41 -32t-45.5 -12.5q-20 0 -19 13.5zM145.5 1565.5q1.5 13.5 11 34t20.5 43.5t11 43q0 18 13.5 34.5t36.5 16.5t38 -15.5t15 -38.5q0 -20 -11.5 -43.5 t-30 -43t-41 -32t-44.5 -12.5q-20 0 -18.5 13.5z" />
<glyph unicode="&#x201e;" horiz-adv-x="481" d="M72 193.5q2 13.5 11 33t20.5 43t11.5 43.5q0 18 12 35t37 17q23 0 38 -15.5t15 -40.5q0 -20 -11 -43.5t-29.5 -42t-41 -31t-45.5 -12.5q-20 0 -18 13.5zM213 193.5q2 13.5 11 33t20.5 42t11.5 42.5t13.5 37t35.5 17q23 0 38 -15.5t15 -40.5q0 -20 -11 -43.5t-29.5 -42 t-41 -31t-45.5 -12.5q-20 0 -18 13.5z" />
<glyph unicode="&#x2020;" horiz-adv-x="577" d="M57 1479q0 23 16.5 40t39.5 17h114v55v64.5t1 111t2 131t2 127t3.5 98.5t4.5 44q4 8 22.5 15t40 12.5t42 8.5t30.5 3q23 0 40 -17.5t17 -40.5q0 -154 -3 -306t-7 -306h82q23 0 40 -17.5t17 -39.5q0 -23 -17.5 -39.5t-39.5 -16.5h-84l-21 -1292v-64.5t-1 -110.5t-2 -131 t-2 -127t-3 -98t-4 -44q-4 -8 -21.5 -15.5t-39 -12.5t-43 -8t-31.5 -3q-23 0 -39 17t-16 40q0 465 9 924.5t19 924.5h-112q-23 0 -39.5 16.5t-16.5 39.5z" />
<glyph unicode="&#x2021;" horiz-adv-x="546" d="M57 145q0 23 16.5 40.5t39.5 17.5h88q4 307 11 610t13 610h-112q-23 0 -39.5 16.5t-16.5 39.5t16.5 40t39.5 17h114v55v64.5t1 111t2 131t2 127t3.5 98.5t4.5 44q10 16 35.5 27.5t66.5 11.5q47 0 68.5 -17.5t21.5 -40.5q0 -154 -3 -306t-7 -306h82q23 0 40 -17.5 t17 -39.5q0 -23 -17.5 -39.5t-39.5 -16.5h-84l-19 -1220h103q23 0 40 -17.5t17 -40.5t-17.5 -39t-39.5 -16h-105q0 -51 -1 -139t-2 -174t-3 -150.5t-6 -70.5q-10 -16 -27.5 -27.5t-64.5 -11.5q-55 0 -76.5 17t-21.5 40q0 129 1 258t3 258h-88q-23 0 -39.5 16t-16.5 39z" />
<glyph unicode="&#x2022;" horiz-adv-x="770" d="M274 717q0 51 30 80.5t81 29.5t81 -29.5t30 -80.5t-30 -81t-81 -30t-81 30t-30 81z" />
<glyph unicode="&#x2026;" horiz-adv-x="1474" d="M166 307q0 35 19.5 55.5t54.5 20.5t55 -20.5t20 -55.5t-20.5 -54.5t-54.5 -19.5q-35 0 -54.5 19.5t-19.5 54.5zM657 307q0 35 19.5 55.5t54.5 20.5t55.5 -20.5t20.5 -55.5t-20.5 -54.5t-55.5 -19.5t-54.5 19.5t-19.5 54.5zM1149 307q0 35 19.5 55.5t54.5 20.5t55 -20.5 t20 -55.5t-20.5 -54.5t-54.5 -19.5q-35 0 -54.5 19.5t-19.5 54.5z" />
<glyph unicode="&#x202f;" horiz-adv-x="441" />
<glyph unicode="&#x2030;" horiz-adv-x="1976" d="M47 1278q0 74 18.5 146.5t54.5 130t89 93t123 35.5q78 0 124 -42t70.5 -101t31.5 -122.5t7 -106.5q0 -59 -11 -129t-40 -129.5t-77 -99.5t-122 -40q-59 0 -108 28t-85 77t-55.5 115.5t-19.5 144.5zM109 80q0 10 35.5 76.5t95 171t136.5 234.5t156.5 267.5t158.5 269.5 t143.5 239.5t107.5 179t51 88.5q8 14 18.5 35.5t26 42t37 36t49.5 15.5q31 0 63 -17.5t32 -40.5q0 -8 -36 -74.5t-96.5 -171t-136.5 -235.5t-156.5 -268t-159.5 -270.5t-143.5 -241t-107.5 -179t-51 -85.5t-18.5 -36t-24 -42.5t-29.5 -35.5t-37 -15q-10 0 -29.5 5t-38 12 t-32.5 17.5t-14 22.5zM203 1264q0 -47 6 -95.5t20.5 -86.5t38 -62.5t60.5 -24.5q39 0 68.5 29t51 75t33 104.5t11.5 119.5q0 33 -5.5 78t-18.5 85t-40 68.5t-70 28.5t-72.5 -28.5t-48 -73.5t-26.5 -102.5t-8 -114.5zM764 438q0 74 18.5 146.5t54 130t89 93.5t123.5 36 q78 0 124 -42t70.5 -101.5t31.5 -123t7 -106.5q0 -59 -11 -129t-40 -129t-77 -99t-122 -40q-59 0 -108.5 27.5t-85 76.5t-55 115.5t-19.5 144.5zM920 424q0 -47 6 -95t20.5 -86t38 -62.5t59.5 -24.5q39 0 69 28.5t51.5 74.5t32.5 104.5t11 119.5q0 33 -5 78t-18.5 85 t-40 68.5t-69.5 28.5t-72.5 -28.5t-48 -73.5t-26.5 -102.5t-8 -114.5zM1384 438q0 74 18.5 146.5t54.5 130t89 93.5t123 36q78 0 124 -42t70.5 -101.5t32 -123t7.5 -106.5q0 -59 -11.5 -129t-40 -129t-77 -99t-121.5 -40q-59 0 -108.5 27.5t-85.5 76.5t-55.5 115.5 t-19.5 144.5zM1540 424q0 -47 6 -95t20.5 -86t38 -62.5t60.5 -24.5q39 0 68.5 28.5t51 74.5t33 104.5t11.5 119.5q0 33 -5 78t-18.5 85t-40 68.5t-69.5 28.5t-73 -28.5t-48.5 -73.5t-26.5 -102.5t-8 -114.5z" />
<glyph unicode="&#x2039;" horiz-adv-x="417" d="M68 1022q0 16 6 29q2 2 16 18t35.5 40t48.5 52.5t49.5 52t37.5 41t20 19.5q18 14 36 14q23 0 40.5 -17.5t17.5 -39.5q0 -12 -8 -29q-4 -8 -27 -33.5t-50.5 -53.5t-53 -53.5t-35.5 -37.5q10 -10 32.5 -31.5t47 -46t44 -45t23.5 -29.5q8 -16 8 -28q0 -23 -17 -39.5 t-40 -16.5q-20 0 -37 13q-25 18 -44 41.5t-42 46.5q-23 25 -49.5 47t-46.5 49q-12 17 -12 37z" />
<glyph unicode="&#x203a;" horiz-adv-x="411" d="M68 846q0 12 8 28q4 10 26.5 35t50 52.5l53 53t36.5 38.5q-8 10 -32 31.5t-48.5 46t-44 45t-23.5 28.5q-8 16 -8 29q0 23 17.5 39t39.5 16q23 0 37 -12q25 -18 44.5 -42t41.5 -46q23 -25 49.5 -47.5t46.5 -48.5q13 -14 13 -37q0 -16 -6 -29q-2 -2 -33 -36t-68 -75 t-69.5 -74.5t-36.5 -37.5q-18 -14 -37 -15q-23 0 -40 17.5t-17 40.5z" />
<glyph unicode="&#x2044;" horiz-adv-x="573" d="M-119 80q0 10 36 76.5t95.5 171t136 234.5t156.5 267.5t159 269.5t143.5 239.5t107.5 179t51 88.5q8 14 18.5 35.5t25.5 42t36.5 36t50.5 15.5q31 0 62.5 -17.5t31.5 -40.5q0 -8 -35.5 -74.5t-96 -171t-136.5 -235.5t-157 -268t-159.5 -270.5t-143 -241t-107.5 -179 t-52 -85.5q-8 -14 -18 -36t-23.5 -42.5t-30 -35.5t-36.5 -15q-10 0 -29.5 5t-38 12t-33 17.5t-14.5 22.5z" />
<glyph unicode="&#x205f;" horiz-adv-x="551" />
<glyph unicode="&#x20ac;" horiz-adv-x="999" d="M47 963q0 23 13.5 40t31.5 17h68q2 10 2 21.5t2 21.5h-72q-18 0 -31.5 16.5t-13.5 38.5q0 23 13.5 40.5t31.5 17.5h90q20 92 57 178t95.5 152.5t139.5 107.5t188 41q70 0 131 -19.5t106 -58.5t71.5 -96.5t26.5 -130.5q0 -16 -13 -29.5t-32 -13.5q-20 0 -32.5 10 t-19.5 23.5t-10 29.5t-5 29q-16 88 -80 128t-143 40q-63 0 -111.5 -33t-85.5 -87t-61.5 -125t-38.5 -146h272q18 0 32.5 -17.5t14.5 -40.5t-14.5 -39t-32.5 -16h-291q-2 -10 -2 -21.5t-2 -21.5h295q18 0 32.5 -17.5t14.5 -39.5q0 -23 -14.5 -39.5t-32.5 -16.5h-299 q0 -92 15.5 -189t50 -178t92 -132.5t141.5 -51.5q74 0 130 46.5t110 156.5q18 39 36.5 71t57.5 32q18 0 32.5 -14.5t14.5 -31.5q0 -25 -12.5 -51t-22.5 -49q-57 -135 -156.5 -191.5t-210.5 -56.5q-125 0 -212 57.5t-142 149.5t-79.5 206t-26.5 226h-64q-18 0 -31.5 16.5 t-13.5 39.5z" />
<glyph unicode="&#x2122;" horiz-adv-x="1382" d="M18 1718q0 23 16.5 40.5t39.5 17.5h83t79 2v10q0 23 26.5 40t48.5 17q23 0 50.5 -17.5t27.5 -39.5v-8q35 2 71 2h75q14 0 22 -6q6 8 19.5 13t30 8t31.5 4t24 1q29 0 49 -20q23 -23 38 -54.5t31 -60.5q66 -111 135 -221q18 27 49 79t65 107.5t64.5 101.5t49.5 62 q10 10 22.5 16.5t26.5 6.5q18 0 53 -11.5t43 -27.5q4 -12 7 -66.5t5.5 -131.5t3.5 -166t2 -170t1 -144.5v-87.5q0 -59 -27 -79t-72 -20q-37 0 -53 37q-2 4 -3 49.5t-2 111t-1 144t-1 149.5t-1 126v74q-10 -16 -39 -62.5t-59.5 -96.5t-57 -91t-37.5 -47q-20 -14 -39 -15 q-16 0 -30.5 9.5t-24.5 21.5q-37 41 -64.5 93t-56.5 100l-37 61q2 -80 4.5 -174t3.5 -180t2 -150.5t1 -85.5q0 -23 -17.5 -39t-40.5 -16q-20 0 -52 10t-42 27q-2 2 -3 41t-3 100.5t-3 137t-2 152.5t-2 147.5t-1 119.5q-16 -2 -54 -3t-104 -3v-672q0 -23 -27.5 -39t-50.5 -16 t-49 16.5t-26 38.5v670h-130q-31 0 -59.5 8t-28.5 49z" />
<glyph unicode="&#x2212;" horiz-adv-x="964" d="M76 1026q0 23 16.5 40t38.5 17h664q23 0 40 -17t17 -40t-17.5 -39t-39.5 -16h-664q-23 0 -39 16.5t-16 38.5z" />
<glyph unicode="&#x25fc;" horiz-adv-x="1044" d="M0 0v1044h1044v-1044h-1044z" />
<glyph unicode="&#xfb01;" horiz-adv-x="772" d="M-211 -223q0 18 14.5 30.5t34 20.5t40 15t32.5 16q37 23 61.5 96.5t40 174.5t23.5 219t11 230.5t3 210v156.5v113h-72q-35 0 -50 6t-15 47q0 31 16.5 38t40.5 7h23h61q6 190 25.5 323.5t54.5 218.5t86 124t123 39q51 0 90 -17.5t66.5 -47.5t44 -66.5t24.5 -75.5 q23 -23 39.5 -56.5t16.5 -58.5q0 -33 -20.5 -52.5t-53.5 -19.5q-35 0 -54.5 19.5t-19.5 52.5q0 31 6 64q-4 25 -9 51t-14 47.5t-23.5 35t-37.5 13.5q-43 0 -71.5 -52t-47 -137t-26.5 -190.5t-12 -210.5q43 0 87 1t85 1q14 10 37.5 14.5t46.5 4.5q88 0 88 -49q0 -14 -3 -48 t-7.5 -73t-8.5 -73t-6 -48l-12 -156t-6 -155q0 -20 1 -48t7 -52.5t18.5 -41t36.5 -16.5q23 0 41.5 13.5t33.5 33.5t28.5 44t21.5 44q8 18 23.5 59t32 85t31.5 81t22 45q2 2 2 3t2 4l4 4q8 4 16 4q10 0 21.5 -5.5t19.5 -15.5q10 -10 10 -22v-4q0 -6 -1 -12.5t-1 -14.5 q-4 -23 -8 -49.5t-8 -36.5q-14 -41 -30.5 -87t-39.5 -93q-4 -10 -12 -27q-2 -4 -4 -9t-4 -9l-2 2q-37 -63 -92.5 -106.5t-135.5 -43.5q-59 0 -101 24.5t-68.5 63.5t-39 87t-12.5 96q0 14 3 70.5t8.5 130t11.5 152.5t12 134q-35 0 -74 -1t-79 -3q-2 -86 -1 -161t1 -124 q0 -70 -2.5 -162t-9.5 -192t-24.5 -202.5t-48 -192.5t-77.5 -162t-115 -111q-25 -14 -56.5 -25.5t-58.5 -11.5q-23 0 -39 17.5t-16 40.5z" />
<glyph unicode="&#xfb02;" horiz-adv-x="741" d="M-211 -223q0 18 14.5 30.5t34 20.5t40 15t32.5 16q37 23 61.5 96.5t40 174.5t23.5 219t11 230.5t3 210v156.5v115q-25 -2 -43 -2h-29q-35 0 -50 6t-15 47q0 31 16.5 38t40.5 7h23h61q6 190 25.5 323.5t54.5 218.5t86 124t123 39q66 0 111 -29t73 -74q2 2 2 4 q6 16 11.5 26.5t23.5 10.5q12 0 30.5 -2t36 -7t30 -12t12.5 -20q0 -23 -2 -33t-6 -32q-29 -176 -43.5 -366.5t-14.5 -358.5q0 -135 8.5 -274.5t20.5 -262.5t28.5 -216t30.5 -136q4 -10 -5 -20.5t-24.5 -17.5t-33 -12t-29.5 -5q-29 0 -49 26q-8 10 -15.5 40l-11.5 46 q-14 61 -27.5 158.5t-23.5 209t-15 226.5t-5 211q0 61 2 139t7 162t11 167t14 155q-6 25 -11 57.5t-14 61t-24.5 48t-42.5 19.5q-43 0 -71.5 -52t-47 -136t-26.5 -189.5t-12 -210.5q31 2 61.5 2h60.5q23 0 30 -24.5t7 -40.5q0 -14 -4 -16.5t-14 -8.5q-4 -2 -45 -4t-100 -4 q-2 -90 -1 -165t1 -124q0 -70 -2.5 -162t-9.5 -192t-24.5 -202.5t-48 -192.5t-77.5 -162t-115 -111q-25 -14 -56.5 -25.5t-58.5 -11.5q-23 0 -39 17.5t-16 40.5z" />
</font>
</defs>
</svg>
